<svg width="383" height="296" viewBox="0 0 383 296" fill="none" xmlns="http://www.w3.org/2000/svg">
<mask id="mask0_327_6" style="mask-type:luminance" maskUnits="userSpaceOnUse" x="0" y="0" width="383" height="296">
<path d="M0 0H383V296H0V0Z" fill="white"/>
</mask>
<g mask="url(#mask0_327_6)">
<g opacity="0.5">
<path d="M124.033 249.198C123.802 249.125 100.685 241.712 76.4105 231.586C43.6822 217.934 24.5372 206.095 19.5066 196.396L20.9933 195.646C32.6097 218.043 123.63 247.34 124.548 247.633L124.033 249.198Z" fill="#ACD0E9"/>
<path d="M52.8906 184.672C54.7465 187.409 55.2597 190.617 54.9633 193.916C54.0124 204.507 44.7239 216.052 44.7239 216.052C42.176 207.016 42.1755 196.685 43.7392 189.729C45.4074 182.304 48.8575 178.725 52.8906 184.672Z" fill="#ACD0E9"/>
<path d="M61.8924 224.714C62.4181 224.388 62.7179 224.216 62.7179 224.216C62.6791 224.543 62.6373 224.87 62.5914 225.198C61.5794 232.481 58.9346 239.85 55.8948 245.448C50.9366 254.58 44.9288 259.004 43.2476 250.668C42.5333 247.128 43.4937 243.648 45.3099 240.434C49.6948 232.675 59.0648 226.468 61.8924 224.714Z" fill="#ACD0E9"/>
<path d="M78.6281 232.823C77.8366 239.497 75.6222 246.313 72.9433 251.836C67.8103 262.42 60.9695 268.261 59.1571 259.276C58.359 255.318 59.6528 251.437 61.8963 247.918C67.403 239.276 78.6281 232.823 78.6281 232.823Z" fill="#ACD0E9"/>
<path d="M95.0567 237.972C94.2939 244.404 92.2098 250.967 89.6628 256.378C84.5004 267.343 77.433 273.581 75.5861 264.426C74.8139 260.597 76 256.84 78.1081 253.413C83.5311 244.598 95.0567 237.972 95.0567 237.972Z" fill="#ACD0E9"/>
<path d="M44.876 216.7C44.0326 223.814 41.5724 231.088 38.6556 236.787C33.5938 246.681 27.1557 251.829 25.4053 243.153C24.518 238.756 26.2147 234.452 28.9245 230.636C34.6434 222.582 44.876 216.7 44.876 216.7Z" fill="#ACD0E9"/>
<path d="M70.3389 194.363C71.9675 196.765 72.5618 199.529 72.4825 202.4C72.2192 211.953 64.4984 222.69 62.5932 225.198C62.3244 225.552 62.1715 225.742 62.1715 225.742C62.0756 225.402 61.9832 225.059 61.8946 224.714C59.3295 214.784 59.7373 203.529 61.8488 196.965C63.6766 191.284 66.7809 189.116 70.3389 194.363Z" fill="#ACD0E9"/>
<path d="M87.1664 200.715C89.5118 204.174 89.7129 208.384 88.8454 212.582C86.8242 222.369 78.9996 232.094 78.9996 232.094C76.4322 222.989 76.4515 212.567 78.0516 205.61C79.7336 198.295 83.1626 194.811 87.1664 200.715Z" fill="#ACD0E9"/>
<path d="M101.846 206.246C105.066 210.994 104.244 217.159 102.165 222.767C99.1998 230.763 93.6788 237.625 93.6788 237.625C91.5376 230.032 91.1966 221.523 92.0694 214.871C93.3448 205.161 97.2098 199.409 101.846 206.246Z" fill="#ACD0E9"/>
<path d="M32.9231 179.841C34.4911 182.091 35.1287 184.617 35.1719 187.185C35.3247 196.176 28.1928 205.685 28.1928 205.685C25.785 198.59 25.0561 190.705 25.6073 185.017C26.2987 177.891 28.9987 174.21 32.9231 179.841Z" fill="#ACD0E9"/>
<path d="M12.3076 173.947C14.1315 176.162 16.0128 179.64 17.5469 183.748C19.0237 187.699 20.1791 192.232 20.6538 196.782C20.6538 196.782 9.86405 191.219 6.46944 182.776C5.58307 180.572 5.20068 178.171 5.64583 175.622C5.65954 175.543 5.67389 175.466 5.68825 175.389C6.69157 170.098 9.42806 170.449 12.3076 173.947Z" fill="#ACD0E9"/>
<path d="M26.9861 204.658C25.3722 211.583 22.1587 218.364 18.9106 223.038C14.3382 229.617 9.69845 232.021 9.35775 224.771C9.21569 221.746 10.192 218.999 11.75 216.576C16.5771 209.066 26.9861 204.658 26.9861 204.658Z" fill="#ACD0E9"/>
<path d="M78.1079 253.413C82.3358 254.638 86.2301 255.61 89.6627 256.378C84.5001 267.342 77.4321 273.581 75.585 264.426C74.8128 260.597 75.9994 256.84 78.1079 253.413Z" fill="#E9F7FF"/>
<path d="M61.8961 247.918C65.7123 249.408 69.4156 250.707 72.9433 251.836C67.8099 262.421 60.9686 268.261 59.1563 259.276C58.3583 255.318 59.6525 251.437 61.8961 247.918Z" fill="#E9F7FF"/>
<path d="M45.3095 240.434C48.8721 242.277 52.4149 243.943 55.8944 245.448C50.936 254.581 44.928 259.004 43.2469 250.669C42.5324 247.128 43.4932 243.648 45.3095 240.434Z" fill="#E9F7FF"/>
<path d="M28.9238 230.636C32.1384 232.851 35.3932 234.898 38.655 236.788C33.5932 246.681 27.1546 251.829 25.4046 243.153C24.5169 238.757 26.2137 234.452 28.9238 230.636Z" fill="#E9F7FF"/>
<path d="M11.75 216.576C14.0785 218.847 16.4709 220.999 18.9105 223.038C14.3379 229.617 9.69809 232.021 9.35722 224.771C9.21554 221.746 10.1919 218.999 11.75 216.576Z" fill="#E9F7FF"/>
<path d="M92.0693 214.871C93.3448 205.161 97.2096 199.41 101.847 206.246C105.067 210.994 104.244 217.159 102.165 222.767C99.7564 220.726 96.3497 217.977 92.0693 214.871Z" fill="#E9F7FF"/>
<path d="M78.0515 205.61C79.7337 198.296 83.163 194.812 87.1669 200.716C89.5123 204.174 89.7134 208.384 88.8458 212.582C85.6309 210.349 82.0192 207.988 78.0515 205.61Z" fill="#E9F7FF"/>
<path d="M61.8494 196.965C63.6772 191.284 66.7814 189.117 70.3398 194.363C71.9682 196.764 72.5628 199.529 72.4834 202.4C69.1383 200.549 65.5877 198.719 61.8494 196.965Z" fill="#E9F7FF"/>
<path d="M43.739 189.729C45.4075 182.304 48.8579 178.725 52.8912 184.672C54.7471 187.409 55.2607 190.616 54.9642 193.915C51.3633 192.417 47.6161 191.008 43.739 189.729Z" fill="#E9F7FF"/>
<path d="M32.9235 179.841C34.4915 182.091 35.1295 184.617 35.1726 187.184C32.0527 186.362 28.8621 185.632 25.6074 185.017C26.2989 177.89 28.9989 174.21 32.9235 179.841Z" fill="#E9F7FF"/>
</g>
<g opacity="0.5">
<path d="M170.34 138.286L168.692 137.503C168.807 137.267 180.393 113.619 195.137 89.1353C215.017 56.1237 230.891 37.3831 242.319 33.4338L242.924 35.136C216.536 44.2558 170.799 137.347 170.34 138.286Z" fill="#ACD0E9"/>
<path d="M250.289 70.899C247 72.4806 243.391 72.5555 239.801 71.75C228.276 69.1655 216.934 57.5148 216.934 57.5148C227.264 56.1245 238.644 57.6526 246.074 60.3553C254.005 63.2395 257.436 67.4618 250.289 70.899Z" fill="#ACD0E9"/>
<path d="M204.852 74.6133C205.134 75.2239 205.279 75.5709 205.279 75.5709C204.924 75.4808 204.569 75.3875 204.216 75.2901C196.343 73.1294 188.618 69.2079 182.902 65.1261C173.577 58.4673 169.593 51.3823 179.023 50.816C183.028 50.575 186.719 52.1183 189.991 54.5378C197.887 60.3791 203.338 71.3268 204.852 74.6133Z" fill="#ACD0E9"/>
<path d="M193.446 91.3283C186.211 89.4936 179.032 86.1152 173.345 82.4304C162.446 75.3703 157.025 67.1839 167.19 66.5727C171.667 66.3041 175.751 68.2635 179.295 71.1853C187.999 78.3585 193.446 91.3283 193.446 91.3283Z" fill="#ACD0E9"/>
<path d="M185.345 108.152C178.374 106.384 171.454 103.182 165.87 99.6552C154.557 92.5072 148.731 84.0192 159.089 83.3965C163.42 83.1364 167.383 84.9622 170.845 87.7259C179.752 94.8343 185.345 108.152 185.345 108.152Z" fill="#ACD0E9"/>
<path d="M216.195 57.5841C208.485 55.6288 200.836 51.9195 194.99 47.9545C184.843 41.0725 180.125 33.419 189.94 32.8292C194.914 32.5299 199.404 34.9828 203.206 38.4482C211.231 45.7616 216.195 57.5841 216.195 57.5841Z" fill="#ACD0E9"/>
<path d="M237.035 88.1424C234.149 89.5305 231.016 89.7579 227.865 89.2482C217.382 87.5528 206.699 77.6999 204.217 75.2899C203.868 74.9497 203.681 74.7582 203.681 74.7582C204.07 74.7058 204.462 74.6577 204.853 74.6137C216.171 73.3373 228.508 75.439 235.426 78.6706C241.413 81.4673 243.34 85.1102 237.035 88.1424Z" fill="#ACD0E9"/>
<path d="M227.549 105.215C223.393 107.214 218.726 106.806 214.23 105.257C203.75 101.645 194.195 91.8309 194.195 91.8309C204.605 90.4295 216.081 91.9923 223.507 94.734C231.315 97.6169 234.645 101.803 227.549 105.215Z" fill="#ACD0E9"/>
<path d="M219.287 120.111C213.581 122.855 206.912 121.063 201.043 118.008C192.674 113.651 185.933 106.726 185.933 106.726C194.613 105.558 204.036 106.451 211.233 108.37C221.74 111.171 227.503 116.159 219.287 120.111Z" fill="#ACD0E9"/>
<path d="M258.563 50.2403C255.853 51.5852 252.976 51.8948 250.142 51.5612C240.215 50.3943 230.797 41.3532 230.797 41.3532C238.969 39.826 247.761 40.2126 253.945 41.6439C261.692 43.4383 265.346 46.8726 258.563 50.2403Z" fill="#ACD0E9"/>
<path d="M268.105 29.0456C265.395 30.6698 261.285 32.1693 256.534 33.2033C251.964 34.1998 246.8 34.7657 241.717 34.6003C241.717 34.6003 249.441 23.8746 259.244 21.4904C261.803 20.8676 264.504 20.8133 267.245 21.667C267.33 21.6935 267.413 21.7203 267.495 21.7471C273.175 23.6036 272.384 26.4809 268.105 29.0456Z" fill="#ACD0E9"/>
<path d="M232.105 40.2157C224.717 37.4638 217.723 33.0208 213.056 28.8527C206.486 22.9849 204.525 17.6626 212.561 18.3708C215.913 18.6665 218.794 20.1179 221.232 22.1439C228.79 28.4219 232.105 40.2157 232.105 40.2157Z" fill="#ACD0E9"/>
<path d="M170.845 87.7255C168.87 92.0697 167.223 96.0946 165.869 99.6549C154.557 92.5067 148.73 84.0187 159.088 83.396C163.42 83.1362 167.382 84.9617 170.845 87.7255Z" fill="#E9F7FF"/>
<path d="M179.295 71.1856C177.088 75.0498 175.11 78.8218 173.344 82.4305C162.446 75.3703 157.024 67.1838 167.189 66.5727C171.667 66.3044 175.751 68.2638 179.295 71.1856Z" fill="#E9F7FF"/>
<path d="M189.99 54.5378C187.433 58.0785 185.074 61.624 182.901 65.1258C173.576 58.4673 169.593 51.3826 179.022 50.816C183.028 50.5753 186.719 52.1179 189.99 54.5378Z" fill="#E9F7FF"/>
<path d="M203.206 38.4479C200.291 41.5609 197.555 44.742 194.99 47.9537C184.842 41.072 180.124 33.4191 189.939 32.8292C194.913 32.5296 199.404 34.9825 203.206 38.4479Z" fill="#E9F7FF"/>
<path d="M221.232 22.144C218.386 24.3004 215.662 26.5428 213.055 28.8526C206.485 22.9849 204.524 17.6626 212.56 18.3708C215.913 18.6662 218.793 20.1177 221.232 22.144Z" fill="#E9F7FF"/>
<path d="M211.233 108.37C221.74 111.171 227.503 116.159 219.287 120.111C213.58 122.856 206.911 121.063 201.043 118.008C203.647 115.731 207.178 112.492 211.233 108.37Z" fill="#E9F7FF"/>
<path d="M223.507 94.7342C231.315 97.6173 234.645 101.803 227.549 105.216C223.393 107.215 218.726 106.807 214.23 105.257C217.166 102.146 220.301 98.6298 223.507 94.7342Z" fill="#E9F7FF"/>
<path d="M235.426 78.6697C241.413 81.4666 243.34 85.1099 237.035 88.1423C234.149 89.5304 231.016 89.7578 227.865 89.248C230.399 85.9413 232.94 82.4113 235.426 78.6697Z" fill="#E9F7FF"/>
<path d="M246.074 60.3549C254.006 63.2393 257.436 67.4619 250.29 70.8992C247.001 72.4812 243.392 72.5557 239.801 71.7504C241.985 68.1176 244.092 64.3158 246.074 60.3549Z" fill="#E9F7FF"/>
<path d="M258.563 50.2401C255.853 51.5851 252.977 51.8947 250.142 51.5611C251.511 48.3431 252.785 45.036 253.945 41.6432C261.692 43.4377 265.346 46.8722 258.563 50.2401Z" fill="#E9F7FF"/>
</g>
<g opacity="0.5">
<path d="M188.489 146.552L187.128 145.132C187.337 144.937 208.332 125.425 232.851 106.27C265.909 80.4435 289.322 67.5362 302.431 67.8875L302.376 69.8403C289.919 69.5014 266.31 82.6245 234.092 107.793C209.639 126.896 188.698 146.358 188.489 146.552Z" fill="#ACD0E9"/>
<path d="M295.809 108.834C291.862 109.182 288.18 107.882 284.863 105.7C274.216 98.6937 267.307 82.5835 267.307 82.5835C278.305 85.1122 289.22 90.9941 295.678 96.5591C302.573 102.499 304.389 108.079 295.809 108.834Z" fill="#ACD0E9"/>
<path d="M248.377 95.2752C248.423 96.0006 248.433 96.4065 248.433 96.4065C248.11 96.1803 247.788 95.9513 247.468 95.7176C240.35 90.5318 234.071 83.6203 229.888 77.312C223.063 67.0213 221.811 58.3344 231.574 61.354C235.72 62.6363 238.85 65.6048 241.211 69.2992C246.911 78.2188 248.134 91.3731 248.377 95.2752Z" fill="#ACD0E9"/>
<path d="M230.281 107.841C223.68 103.228 217.741 97.0742 213.431 91.1788C205.172 79.8827 202.897 69.5333 213.42 72.7879C218.056 74.222 221.42 77.7608 223.86 82.0677C229.855 92.642 230.281 107.841 230.281 107.841Z" fill="#ACD0E9"/>
<path d="M215.485 121.776C209.125 117.331 203.378 111.454 199.112 105.758C190.468 94.2146 187.9 83.406 198.625 86.7225C203.109 88.1098 206.403 91.467 208.823 95.5827C215.048 106.169 215.485 121.776 215.485 121.776Z" fill="#ACD0E9"/>
<path d="M266.535 82.3682C259.5 77.4519 253.215 70.7841 248.855 64.5446C241.286 53.7147 239.513 44.1732 249.674 47.3157C254.824 48.9081 258.406 53.1008 260.894 58.056C266.146 68.5136 266.535 82.3682 266.535 82.3682Z" fill="#ACD0E9"/>
<path d="M275.635 121.231C272.17 121.535 268.911 120.572 265.923 118.856C255.98 113.146 249.034 99.1065 247.468 95.7225C247.248 95.2453 247.134 94.98 247.134 94.98C247.548 95.0751 247.963 95.1753 248.377 95.2805C260.329 98.3003 271.988 105.127 277.72 111.033C282.682 116.143 283.204 120.564 275.635 121.231Z" fill="#ACD0E9"/>
<path d="M259.341 134.889C254.352 135.328 249.789 133.138 245.847 129.857C236.659 122.21 230.839 108.639 230.839 108.639C241.922 111.187 252.921 117.14 259.359 122.744C266.13 128.636 267.858 134.14 259.341 134.889Z" fill="#ACD0E9"/>
<path d="M245.139 146.812C238.289 147.415 232.244 143.061 227.503 137.734C220.743 130.137 216.638 120.562 216.638 120.562C225.88 122.686 235.063 127.18 241.593 131.863C251.126 138.702 255.002 145.944 245.139 146.812Z" fill="#ACD0E9"/>
<path d="M312.283 91.085C309.013 91.4136 305.981 90.631 303.244 89.2138C293.658 84.2514 287.673 71.5151 287.673 71.5151C296.541 73.083 305.285 76.8234 310.981 80.6274C318.116 85.3947 320.467 90.262 312.283 91.085Z" fill="#ACD0E9"/>
<path d="M330.252 73.2751C326.872 73.8862 322.126 73.8376 316.913 73.0738C311.898 72.3411 306.451 70.9469 301.373 68.8435C301.373 68.8435 313.394 60.9348 324.247 62.2562C327.08 62.601 329.835 63.5748 332.275 65.4828C332.35 65.542 332.424 65.6008 332.496 65.659C337.515 69.7007 335.586 72.3102 330.252 73.2751Z" fill="#ACD0E9"/>
<path d="M289.445 70.8581C283.048 65.2581 277.714 58.0981 274.626 52.102C270.279 43.6614 270.381 37.5288 278.234 41.3069C281.511 42.8836 283.856 45.4495 285.528 48.4288C290.714 57.661 289.445 70.8581 289.445 70.8581Z" fill="#ACD0E9"/>
<path d="M208.824 95.5821C205.122 99.2253 201.878 102.67 199.112 105.757C190.468 94.214 187.9 83.4056 198.625 86.722C203.109 88.1092 206.404 91.4664 208.824 95.5821Z" fill="#E9F7FF"/>
<path d="M223.861 82.0665C220.113 85.1361 216.633 88.1988 213.432 91.1777C205.172 79.8815 202.897 69.5324 213.421 72.7869C218.056 74.2209 221.421 77.7597 223.861 82.0665Z" fill="#E9F7FF"/>
<path d="M241.212 69.2984C237.237 71.9068 233.459 74.5957 229.888 77.3115C223.063 67.0211 221.811 58.3345 231.574 61.354C235.721 62.6362 238.851 65.6037 241.212 69.2984Z" fill="#E9F7FF"/>
<path d="M260.895 58.0547C256.725 60.094 252.709 62.2705 248.855 64.5431C241.285 53.7133 239.512 44.1721 249.675 47.3148C254.825 48.9071 258.407 53.0994 260.895 58.0547Z" fill="#E9F7FF"/>
<path d="M285.529 48.429C281.804 49.5265 278.169 50.7578 274.626 52.102C270.279 43.6618 270.381 37.5292 278.235 41.3075C281.511 42.8837 283.857 45.4499 285.529 48.429Z" fill="#E9F7FF"/>
<path d="M241.593 131.865C251.126 138.703 255.001 145.945 245.139 146.814C238.289 147.417 232.243 143.062 227.503 137.735C231.031 136.424 235.874 134.491 241.593 131.865Z" fill="#E9F7FF"/>
<path d="M259.36 122.746C266.131 128.638 267.859 134.141 259.341 134.891C254.352 135.33 249.789 133.139 245.848 129.858C250.038 127.829 254.589 125.466 259.36 122.746Z" fill="#E9F7FF"/>
<path d="M277.72 111.035C282.682 116.146 283.204 120.566 275.635 121.233C272.171 121.537 268.911 120.574 265.923 118.858C269.783 116.477 273.738 113.874 277.72 111.035Z" fill="#E9F7FF"/>
<path d="M295.678 96.5613C302.573 102.502 304.388 108.081 295.809 108.836C291.861 109.184 288.18 107.884 284.863 105.702C288.497 102.858 292.119 99.8136 295.678 96.5613Z" fill="#E9F7FF"/>
<path d="M312.283 91.0864C309.014 91.4151 305.982 90.6325 303.245 89.2152C305.891 86.4805 308.478 83.6199 310.982 80.6287C318.117 85.396 320.467 90.2634 312.283 91.0864Z" fill="#E9F7FF"/>
</g>
<path d="M333.084 185.946C332.873 179.538 337.22 174.765 343.339 174.569C349.817 174.361 354.108 178.856 354.319 185.264C354.523 191.493 350.542 196.432 344.063 196.64C337.765 196.842 333.288 192.175 333.084 185.946ZM336.747 160.348L331.422 74.9937L348.698 74.4392L348.984 159.955L336.747 160.348Z" fill="#CAD7D6"/>
<path d="M340.359 246.068C340.302 243.898 339.926 241.848 339.308 240.082C339.091 241.935 338.875 243.788 338.657 245.642C337.985 251.403 335.146 255.528 331.858 255.528H313.597C310.295 255.528 307.45 251.371 306.79 245.584C306.724 245.007 306.659 244.431 306.593 243.854C306.506 244.521 306.448 245.205 306.425 245.903C306.39 246.963 306.43 248.053 306.556 249.151C306.851 251.736 307.146 254.323 307.441 256.91C308.101 262.698 310.946 266.854 314.248 266.854H332.51C335.797 266.854 338.636 262.729 339.308 256.969C339.611 254.382 339.914 251.797 340.216 249.21C340.34 248.148 340.385 247.095 340.359 246.068Z" fill="#97C6E4"/>
<path d="M340.218 249.21C340.076 250.422 339.934 251.633 339.793 252.842C339.631 254.217 339.471 255.592 339.31 256.968C339.129 258.516 338.792 259.944 338.333 261.206C337.079 264.645 334.916 266.853 332.511 266.853H314.247C310.947 266.853 308.102 262.697 307.44 256.909C307.146 254.321 306.85 251.739 306.556 249.149C306.431 248.053 306.392 246.962 306.423 245.902C306.531 242.708 307.329 239.792 308.569 237.668C308.789 237.291 309.023 236.94 309.27 236.618C310.409 235.126 311.817 234.235 313.363 234.235H333.415C335.264 234.235 336.91 235.506 338.133 237.549C339.441 239.716 340.27 242.752 340.358 246.069C340.385 247.097 340.342 248.151 340.218 249.21Z" fill="#F9C39F"/>
<path d="M339.793 252.842C339.631 254.217 339.471 255.592 339.31 256.969C339.129 258.516 338.792 259.944 338.333 261.206C338.233 261.226 338.13 261.246 338.025 261.267C329.919 262.784 323.106 251.524 321.906 246.498C320.945 242.478 322.08 236.475 322.572 234.235C322.695 233.675 322.777 233.351 322.777 233.351C322.85 233.653 322.92 233.948 322.989 234.235C324.636 241.094 325.432 243.623 331.517 248.949C334.947 251.948 337.85 252.744 339.793 252.842Z" fill="#F7B793"/>
<path d="M328.544 266.828C323.778 266.836 319.012 266.844 314.247 266.853C310.947 266.853 308.102 262.697 307.44 256.909C307.146 254.321 306.85 251.738 306.556 249.148C306.431 248.052 306.391 246.962 306.423 245.902C306.531 242.708 307.329 239.792 308.569 237.668C308.789 237.291 309.023 236.94 309.27 236.617C309.289 239.027 309.566 248.505 314.997 256.81C320.195 264.759 326.722 266.443 328.544 266.828Z" fill="#F7B793"/>
<path d="M338.134 237.549C337.731 238.824 336.647 240.034 336.388 240.321C333.446 243.595 330.473 242.217 323.458 242.055C315.291 241.871 311.72 243.557 309.505 239.916C309.373 239.699 308.791 238.743 308.568 237.667C309.804 235.555 311.481 234.236 313.363 234.236H333.414C335.264 234.236 336.91 235.506 338.134 237.549Z" fill="#997444"/>
<path d="M322.694 230.585L322.694 230.587C322.534 231.949 322.276 233.201 321.996 234.286C321.35 236.796 320.578 238.408 320.578 238.408C320.206 238.906 319.852 239.233 319.51 239.414C316.703 240.91 314.905 232.544 313.716 229.198C312.382 225.446 312 221.524 310.285 215.384C308.569 209.244 301.707 212.315 301.707 207.71C301.707 206.318 302.176 205.487 302.975 205.049C304.44 204.239 307.016 204.752 309.816 205.537C310.535 205.738 311.268 205.957 312 206.175C313.771 206.704 314.73 207.23 315.435 208.072C315.697 208.383 315.924 208.738 316.143 209.153C317.056 210.867 317.86 213.59 320.578 218.454C321.436 219.989 322.008 221.566 322.366 223.13C322.963 225.743 322.961 228.317 322.694 230.585Z" fill="#76B7B4"/>
<path d="M322.366 223.13C322.008 221.566 321.436 219.989 320.578 218.454C317.86 213.59 317.056 210.867 316.143 209.153C315.924 208.738 315.697 208.383 315.436 208.072C314.731 207.23 313.772 206.704 312.001 206.175C311.269 205.957 310.535 205.738 309.816 205.537C307.016 204.752 304.441 204.239 302.975 205.049C302.619 205.244 302.329 205.518 302.116 205.883C303.466 205.913 305.11 206.294 306.841 206.778C307.559 206.98 308.293 207.198 309.025 207.416C310.796 207.945 311.755 208.472 312.46 209.313C312.721 209.625 312.948 209.98 313.167 210.394C314.081 212.108 314.885 214.832 317.603 219.696C318.46 221.231 319.033 222.808 319.391 224.372C319.988 226.985 319.986 229.558 319.719 231.827L319.719 231.828C319.558 233.191 319.301 234.443 319.021 235.527C318.588 237.21 318.099 238.487 317.823 239.148C318.341 239.599 318.902 239.738 319.511 239.414C319.852 239.233 320.207 238.906 320.578 238.408C320.578 238.408 321.35 236.796 321.997 234.286C322.277 233.201 322.534 231.949 322.694 230.587L322.694 230.585C322.961 228.317 322.963 225.743 322.366 223.13Z" fill="#217166"/>
<path d="M319.892 239.492C319.892 239.492 316.654 220.867 321.395 216.677C326.138 212.486 332.903 217.608 331.342 225.058C329.781 232.508 329.723 244.149 319.892 239.492Z" fill="#76B7B4"/>
<path d="M356.628 183.165C355.272 184.983 353.114 186.322 350.893 187.561C348.538 188.873 346.111 190.072 344.496 191.608C343.779 192.294 343.22 193.046 342.9 193.903C342.068 196.135 340.428 197.285 338.571 198.402C336.96 199.368 335.187 200.309 333.631 201.906C333.274 202.269 332.931 202.668 332.603 203.107C331.815 204.161 331.39 205.943 331.177 208.153C330.468 215.588 332.199 227.888 330.873 233.804C329.798 238.607 327.378 241.004 325.3 238.36C324.609 237.481 323.953 236.043 323.402 233.95L323.402 233.948C323.143 232.973 322.905 231.854 322.698 230.584L322.698 230.582C322.55 229.685 322.415 228.714 322.299 227.66C322.299 227.66 322.3 225.89 322.374 223.127C322.41 221.749 322.465 220.122 322.547 218.345L322.547 218.342C322.696 215.111 322.934 211.381 323.313 207.73C323.686 204.164 324.195 200.674 324.892 197.8C325.56 195.035 326.402 192.838 327.462 191.695C327.981 191.136 328.551 190.827 329.178 190.827C329.475 190.827 329.771 190.81 330.06 190.774C333.017 190.438 335.625 188.444 337.74 186.102C338.72 185.018 339.594 183.859 340.347 182.756C341.499 181.068 342.371 179.513 342.907 178.555C344.624 175.486 360.061 178.562 356.628 183.165Z" fill="#76B7B4"/>
<path d="M323.628 228.345C323.627 230.589 323.545 232.438 323.397 233.951L323.397 233.952C323.175 236.219 322.806 237.724 322.345 238.657C321.576 240.208 320.549 240.174 319.506 239.411C317.308 237.8 315.049 232.945 315.049 232.945C315.05 231.948 314.33 219.273 310.529 207.571C310.307 206.887 310.074 206.206 309.829 205.53C309.029 203.313 308.11 201.161 307.055 199.16C306.015 197.186 304.842 195.361 303.522 193.771C302.838 192.947 302.112 192.184 301.346 191.499C300.113 190.394 299.043 189.289 298.123 188.199C294.69 184.14 293.31 180.268 293.211 177.265C293.077 173.218 295.274 170.751 297.925 171.543C299.428 171.993 302.248 175.062 305.486 179.759C305.59 179.909 305.695 180.062 305.8 180.218C307.377 182.534 309.042 185.221 310.696 188.167L310.698 188.167C311.915 190.332 313.128 192.638 314.294 195.038C314.465 195.391 314.636 195.745 314.806 196.102C316.588 199.86 318.248 203.833 319.634 207.851C320.842 211.348 321.845 214.882 322.543 218.344L322.543 218.347C323.237 221.786 323.63 225.154 323.628 228.345Z" fill="#76B7B4"/>
<path d="M333.629 201.907C333.273 202.269 332.929 202.668 332.601 203.108C331.813 204.162 331.388 205.943 331.175 208.153C330.109 207.943 328.857 207.801 327.361 207.741C326.848 207.72 326.309 207.709 325.737 207.709C324.868 207.709 324.061 207.717 323.31 207.73C321.906 207.755 320.697 207.801 319.635 207.85C318.165 207.919 316.982 207.999 315.956 208.044C315.783 208.053 315.613 208.061 315.447 208.066C313.591 208.133 312.239 208.061 310.53 207.569C309.5 207.274 308.342 206.827 306.867 206.166C305.611 205.602 304.295 205.245 302.988 205.039C304.454 204.23 307.029 204.744 309.829 205.529C309.03 203.313 308.11 201.16 307.055 199.159C309.956 198.705 312.555 198.014 313.733 196.961C313.954 196.763 314.174 196.579 314.395 196.409C314.532 196.301 314.669 196.199 314.807 196.102C317.881 193.928 320.955 194.216 324.027 196.966C324.339 197.245 324.623 197.525 324.89 197.802C325.848 198.805 326.553 199.761 327.435 200.504C328.704 201.573 330.341 202.205 333.629 201.907Z" fill="#217166"/>
<path d="M336.046 169.342C335.258 171.1 334.383 172.456 333.496 173.666C332.046 175.656 330.575 177.255 329.447 179.611C329.434 179.639 329.421 179.666 329.407 179.693L329.405 179.693C328.514 181.587 327.842 183.971 327.581 187.43C327.503 188.461 327.46 189.589 327.46 190.827L327.459 191.695C327.458 194.128 327.455 197.157 327.434 200.503C327.42 202.795 327.396 205.24 327.36 207.741C327.183 220.015 326.691 233.731 325.297 238.361C324.933 239.575 324.506 240.165 324.006 239.941C323.197 239.577 322.673 239.129 322.347 238.656C321.292 237.126 322.293 235.336 322.293 235.336C322.293 235.336 322.187 234.964 321.997 234.283C321.064 230.947 318.152 220.174 316.156 209.148C316.089 208.781 316.022 208.413 315.958 208.045C315.258 204.056 314.692 200.063 314.397 196.408C314.359 195.946 314.325 195.488 314.297 195.037C314.126 192.349 314.12 189.876 314.334 187.768C314.524 185.914 314.885 184.34 315.457 183.147C316.087 181.832 316.588 180.61 316.987 179.471C317.102 179.14 317.208 178.817 317.308 178.502C318.972 173.172 318.347 169.774 318.359 167.327C318.364 166.324 318.476 165.48 318.896 164.73C320.612 161.661 339.48 161.67 336.046 169.342Z" fill="#76B7B4"/>
<path d="M310.695 188.166C308.4 188.808 306.358 190.204 305.156 192.352C304.868 192.869 304.286 193.341 303.52 193.77C302.835 192.946 302.11 192.184 301.344 191.498C300.111 190.394 299.041 189.288 298.12 188.198C300.489 185.358 303.211 182.385 305.798 180.217C307.375 182.534 309.04 185.22 310.695 188.166Z" fill="#217166"/>
<path d="M329.405 179.693C328.514 181.587 327.842 183.971 327.581 187.429C326.857 187.273 325.776 187.365 324.03 187.755C317.588 189.193 317.194 187.929 314.331 187.767C314.521 185.914 314.882 184.34 315.454 183.147C316.084 181.832 316.586 180.61 316.985 179.471C317.099 179.14 317.206 178.817 317.305 178.502C317.795 178.82 318.254 179.145 318.765 179.436C320.166 180.233 321.944 180.76 325.749 180.082C327.249 179.815 328.435 179.687 329.405 179.693Z" fill="#217166"/>
<path d="M344.495 191.608C343.778 192.293 343.219 193.044 342.898 193.902C342.066 196.134 340.426 197.284 338.569 198.401C336.165 196.745 334.004 195.15 332.605 193.898C331.317 192.744 330.567 191.687 330.058 190.774C333.015 190.438 335.623 188.443 337.738 186.101C338.249 186.627 338.821 187.179 339.47 187.762C340.859 189.005 342.601 190.313 344.495 191.608Z" fill="#217166"/>
<g opacity="0.5">
<path d="M305.483 179.758C302.538 179.668 300.024 179.21 295.519 177.852C294.76 177.623 293.988 177.428 293.207 177.264C293.074 173.218 295.27 170.751 297.921 171.543C299.425 171.993 302.245 175.062 305.483 179.758Z" fill="#ACEAE0"/>
</g>
<g opacity="0.5">
<path d="M333.495 173.666C332.046 175.655 330.574 177.254 329.446 179.611C327.771 179.473 325.834 179.399 323.57 179.398C321.802 179.397 320.209 179.412 318.764 179.435C318.145 179.445 317.55 179.457 316.984 179.47C317.098 179.139 317.205 178.817 317.304 178.502C318.969 173.171 318.344 169.774 318.356 167.327C319.246 167.675 320.134 168.117 321.024 168.653C325.278 171.215 325.982 173.777 333.495 173.666Z" fill="#ACEAE0"/>
</g>
<g opacity="0.5">
<path d="M356.628 183.164C355.272 184.981 353.114 186.32 350.892 187.559C350.294 187.427 349.685 187.269 349.068 187.082C344.683 185.761 342.653 184.155 340.346 182.754C341.498 181.066 342.369 179.511 342.905 178.553C344.622 175.484 360.061 178.561 356.628 183.164Z" fill="#ACEAE0"/>
</g>
<path d="M322.128 213.97C321.988 212.972 318.721 189.461 320.44 184.679C322.132 179.975 323.849 172.508 323.866 172.433L324.397 172.551C324.38 172.626 322.656 180.125 320.953 184.859C319.278 189.518 322.633 213.653 322.667 213.897L322.128 213.97Z" fill="#D1C64A"/>
<path d="M311.844 201.708C311.827 201.634 310.066 194.207 303.353 188.028L303.725 187.635C310.566 193.932 312.358 201.515 312.375 201.59L311.844 201.708Z" fill="#D1C64A"/>
<path d="M327.183 201.575C327.091 196.928 333.688 194.002 337.231 192.43L337.736 192.206C341.008 190.744 342.623 184.688 342.639 184.627L343.167 184.761C343.099 185.02 341.471 191.127 337.961 192.696L337.455 192.92C334.026 194.441 327.643 197.272 327.728 201.565L327.183 201.575Z" fill="#D1C64A"/>
<path d="M323.63 233.7L323.63 233.702C323.789 234.825 324.047 235.857 324.326 236.751C324.972 238.821 325.744 240.149 325.744 240.149C326.115 240.56 326.469 240.83 326.811 240.979C329.618 242.213 331.418 235.318 332.608 232.56C333.943 229.468 334.325 226.234 336.043 221.174C337.759 216.114 344.621 218.646 344.622 214.85C344.622 213.704 344.154 213.019 343.355 212.657C341.89 211.989 339.314 212.411 336.514 213.057C335.795 213.223 335.061 213.403 334.329 213.582C332.558 214.017 331.599 214.452 330.894 215.144C330.633 215.402 330.406 215.694 330.187 216.036C329.273 217.448 328.468 219.693 325.749 223.701C324.89 224.966 324.318 226.267 323.959 227.556C323.362 229.709 323.363 231.831 323.63 233.7Z" fill="#76B7B4"/>
<path d="M323.63 233.7L323.63 233.702C323.789 234.825 324.047 235.857 324.326 236.751C324.972 238.821 325.744 240.149 325.744 240.149C326.115 240.56 326.469 240.83 326.811 240.979C329.618 242.213 331.418 235.318 332.608 232.56C333.943 229.468 334.325 226.234 336.043 221.174C337.759 216.114 344.621 218.646 344.622 214.85C344.622 213.704 344.154 213.019 343.355 212.657C341.89 211.989 339.314 212.411 336.514 213.057C335.795 213.223 335.061 213.403 334.329 213.582C332.558 214.017 331.599 214.452 330.894 215.144C330.633 215.402 330.406 215.694 330.187 216.036C329.273 217.448 328.468 219.693 325.749 223.701C324.89 224.966 324.318 226.267 323.959 227.556C323.362 229.709 323.363 231.831 323.63 233.7Z" fill="#217166"/>
<g opacity="0.22">
<path d="M306.816 238.703C338.221 236.155 379.837 201.318 378.995 154.718C378.192 110.323 339.265 77.9652 308.198 74.0634C287.531 71.468 278.833 82.5315 264.818 75.3721C240.507 62.9523 254.175 23.266 229.904 6.57915C209.377 -7.53344 176.443 4.93005 161.274 13.5777C125.478 33.9847 115.065 75.0707 110.511 93.0404C103.194 121.909 111.094 124.132 103.294 141.887C84.7545 184.09 35.817 181.342 31.115 209.542C27.4482 231.53 53.3683 256.186 74.8958 265.531C110.524 280.998 153.187 262.807 174.908 253.545C179.038 251.783 182.419 250.17 184.776 249.003C189.769 245.999 192.678 242.883 198.133 239.377C198.133 239.377 203.7 236.024 209.01 233.702C223.889 227.195 246.323 231.252 248.835 231.704C272.58 235.975 293.677 239.769 306.816 238.703Z" fill="#BCDFF4"/>
</g>
<path d="M289.067 143.054L285.595 220.917L284.334 249.201C250.019 264.722 215.704 280.245 181.39 295.765C181.367 295.775 181.346 295.784 181.324 295.795L162.644 290.338L53.5312 258.468L52.3477 207.144C92.8077 215.768 133.266 224.392 173.726 233.015C177.047 233.724 180.369 234.432 183.69 235.139L227.471 203.645L240.487 183.816C256.681 170.229 272.873 156.641 289.067 143.054Z" fill="#87879E"/>
<path d="M285.595 220.916L284.334 249.201C250.019 264.721 215.705 280.244 181.39 295.765C181.368 295.775 181.347 295.784 181.324 295.795L162.644 290.338L164.824 274.863L285.595 220.916Z" fill="white"/>
<path d="M181.39 235.074V295.765C181.367 295.775 181.346 295.784 181.324 295.795L53.5312 258.468L52.3477 207.144C92.8077 215.768 133.266 224.392 173.726 233.015L181.39 235.074Z" fill="#7B7B92"/>
<path d="M181.39 267.865C138.543 254.899 95.6972 241.933 52.8511 228.968L53.5311 258.468L181.324 295.795C181.346 295.784 181.367 295.775 181.39 295.765V267.865Z" fill="white"/>
<path d="M52.3479 207.144C108.154 195.071 125.505 178.006 130.443 163.985C131.999 159.569 134.17 150.211 141.093 138.323C148.43 125.723 157.208 116.975 163.575 111.495C206.194 122.015 248.814 132.534 291.433 143.054C284.829 147.015 275.359 153.625 266.519 163.985C255.513 176.884 251.251 188.816 248.77 194.313C242.142 209.001 225.669 227.692 181.39 243.369C138.376 231.294 95.3618 219.219 52.3479 207.144Z" fill="#676680"/>
<path d="M125.789 193.112C125.788 191.947 125.787 190.782 125.786 189.617C124.584 189.318 123.382 189.02 122.18 188.722C121.045 188.211 119.713 187.917 118.289 187.917C116.042 187.917 114.026 188.649 112.648 189.81C112.395 189.695 112.078 189.59 111.709 189.553C111.346 189.516 111.028 189.556 110.771 189.617V193.5C110.771 193.931 110.837 194.35 110.962 194.753C111.532 196.601 113.337 198.1 115.698 198.744C116.506 198.964 117.378 199.085 118.289 199.085C122.42 199.085 125.772 196.61 125.807 193.549C125.807 193.525 125.807 193.5 125.807 193.5C125.807 193.37 125.801 193.24 125.789 193.112Z" fill="#F4B18E"/>
<path d="M125.796 190.042C125.796 193.126 122.431 195.626 118.279 195.626C114.127 195.626 110.761 193.126 110.761 190.042C110.761 186.958 114.127 184.458 118.279 184.458C122.431 184.458 125.796 186.958 125.796 190.042Z" fill="#F9C6A6"/>
<path d="M146.811 199.207C146.81 198.042 146.81 196.877 146.809 195.712C145.606 195.414 144.404 195.115 143.202 194.817C142.067 194.306 140.736 194.012 139.311 194.012C137.065 194.012 135.048 194.744 133.671 195.905C133.418 195.791 133.101 195.685 132.732 195.648C132.369 195.611 132.05 195.651 131.794 195.712V199.596C131.794 200.027 131.859 200.445 131.984 200.848C132.554 202.696 134.359 204.195 136.72 204.839C137.528 205.059 138.4 205.18 139.311 205.18C143.442 205.18 146.794 202.706 146.829 199.644C146.829 199.62 146.829 199.596 146.829 199.596C146.829 199.465 146.824 199.336 146.811 199.207Z" fill="#F4B18E"/>
<path d="M146.819 196.137C146.819 199.221 143.453 201.721 139.301 201.721C135.149 201.721 131.783 199.221 131.783 196.137C131.783 193.053 135.149 190.554 139.301 190.554C143.453 190.554 146.819 193.053 146.819 196.137Z" fill="#F9C6A6"/>
<path d="M167.697 205.303C167.696 204.138 167.695 202.972 167.694 201.807C166.491 201.509 165.29 201.211 164.087 200.912C162.952 200.401 161.621 200.107 160.197 200.107C157.95 200.107 155.933 200.839 154.556 202C154.303 201.886 153.986 201.78 153.618 201.743C153.254 201.707 152.936 201.746 152.679 201.807V205.691C152.679 206.122 152.745 206.541 152.869 206.943C153.439 208.792 155.245 210.291 157.605 210.935C158.413 211.155 159.286 211.275 160.197 211.275C164.327 211.275 167.679 208.801 167.714 205.739C167.715 205.716 167.714 205.691 167.714 205.691C167.714 205.56 167.709 205.431 167.697 205.303Z" fill="#F4B18E"/>
<path d="M167.704 202.233C167.704 205.317 164.338 207.817 160.187 207.817C156.035 207.817 152.669 205.317 152.669 202.233C152.669 199.149 156.035 196.649 160.187 196.649C164.338 196.649 167.704 199.149 167.704 202.233Z" fill="#F9C6A6"/>
<path d="M190.094 212.617C190.093 211.452 190.092 210.287 190.091 209.121C188.889 208.823 187.687 208.525 186.485 208.227C185.35 207.715 184.018 207.421 182.594 207.421C180.347 207.421 178.33 208.154 176.953 209.315C176.7 209.2 176.383 209.094 176.014 209.057C175.651 209.021 175.333 209.06 175.076 209.121V213.005C175.076 213.436 175.142 213.855 175.266 214.257C175.836 216.106 177.642 217.605 180.003 218.249C180.811 218.469 181.683 218.589 182.594 218.589C186.724 218.589 190.077 216.115 190.111 213.054C190.112 213.03 190.111 213.005 190.111 213.005C190.111 212.874 190.106 212.745 190.094 212.617Z" fill="#F4B18E"/>
<path d="M190.101 209.548C190.101 212.632 186.735 215.132 182.583 215.132C178.432 215.132 175.066 212.632 175.066 209.548C175.066 206.464 178.432 203.964 182.583 203.964C186.735 203.964 190.101 206.464 190.101 209.548Z" fill="#F9C6A6"/>
<path d="M212.49 218.713C212.489 217.548 212.488 216.383 212.488 215.217L208.881 214.323C207.746 213.811 206.414 213.517 204.99 213.517C202.744 213.517 200.727 214.249 199.349 215.411C199.096 215.296 198.779 215.19 198.411 215.153C198.047 215.116 197.729 215.156 197.473 215.217V219.101C197.473 219.532 197.538 219.951 197.663 220.353C198.233 222.202 200.038 223.7 202.399 224.345C203.207 224.565 204.08 224.685 204.99 224.685C209.12 224.685 212.473 222.211 212.508 219.149C212.508 219.126 212.508 219.101 212.508 219.101C212.508 218.97 212.502 218.841 212.49 218.713Z" fill="#F4B18E"/>
<path d="M212.498 215.643C212.498 218.726 209.132 221.226 204.98 221.226C200.828 221.226 197.463 218.726 197.463 215.643C197.463 212.559 200.828 210.059 204.98 210.059C209.132 210.059 212.498 212.559 212.498 215.643Z" fill="#F9C6A6"/>
<path d="M145.575 179.703L145.572 176.207C144.37 175.909 143.168 175.611 141.966 175.312C140.831 174.801 139.499 174.507 138.075 174.507C135.828 174.507 133.811 175.239 132.434 176.4C132.181 176.286 131.864 176.18 131.495 176.143C131.132 176.106 130.814 176.146 130.557 176.207V180.091C130.557 180.522 130.623 180.941 130.747 181.343C131.317 183.192 133.123 184.69 135.484 185.334C136.292 185.555 137.164 185.675 138.075 185.675C142.205 185.675 145.558 183.201 145.592 180.139C145.593 180.116 145.592 180.091 145.592 180.091C145.592 179.96 145.587 179.831 145.575 179.703Z" fill="#F4B18E"/>
<path d="M145.583 176.633C145.583 179.717 142.217 182.217 138.065 182.217C133.913 182.217 130.547 179.717 130.547 176.633C130.547 173.549 133.913 171.049 138.065 171.049C142.217 171.049 145.583 173.549 145.583 176.633Z" fill="#F9C6A6"/>
<path d="M166.598 185.798C166.597 184.633 166.595 183.468 166.595 182.302L162.988 181.408C161.853 180.897 160.522 180.602 159.098 180.602C156.851 180.602 154.834 181.334 153.457 182.496C153.204 182.381 152.887 182.276 152.518 182.239C152.154 182.202 151.837 182.241 151.58 182.302V186.186C151.58 186.617 151.646 187.036 151.77 187.439C152.34 189.287 154.145 190.786 156.506 191.43C157.314 191.65 158.187 191.771 159.098 191.771C163.228 191.771 166.58 189.296 166.615 186.235C166.615 186.211 166.615 186.186 166.615 186.186C166.615 186.056 166.609 185.926 166.598 185.798Z" fill="#F4B18E"/>
<path d="M166.606 182.728C166.606 185.812 163.239 188.312 159.087 188.312C154.936 188.312 151.57 185.812 151.57 182.728C151.57 179.644 154.936 177.145 159.087 177.145C163.239 177.145 166.606 179.644 166.606 182.728Z" fill="#F9C6A6"/>
<path d="M187.483 191.893C187.482 190.728 187.481 189.563 187.48 188.398C186.278 188.1 185.076 187.801 183.874 187.503C182.739 186.992 181.407 186.698 179.983 186.698C177.737 186.698 175.72 187.43 174.342 188.591C174.089 188.476 173.772 188.371 173.403 188.334C173.04 188.297 172.722 188.336 172.466 188.398V192.281C172.466 192.712 172.531 193.131 172.655 193.534C173.225 195.382 175.031 196.881 177.392 197.525C178.2 197.745 179.072 197.866 179.983 197.866C184.113 197.866 187.466 195.391 187.501 192.33C187.501 192.306 187.501 192.281 187.501 192.281C187.501 192.151 187.495 192.022 187.483 191.893Z" fill="#F4B18E"/>
<path d="M187.491 188.823C187.491 191.908 184.125 194.407 179.973 194.407C175.821 194.407 172.455 191.908 172.455 188.823C172.455 185.74 175.821 183.24 179.973 183.24C184.125 183.24 187.491 185.74 187.491 188.823Z" fill="#F9C6A6"/>
<path d="M209.88 199.207C209.879 198.042 209.878 196.877 209.877 195.712L206.27 194.817C205.135 194.306 203.804 194.012 202.38 194.012C200.133 194.012 198.116 194.744 196.739 195.905C196.486 195.791 196.169 195.685 195.801 195.648C195.437 195.611 195.119 195.651 194.862 195.712V199.596C194.862 200.027 194.928 200.445 195.052 200.848C195.622 202.696 197.428 204.195 199.788 204.839C200.596 205.059 201.469 205.18 202.38 205.18C206.51 205.18 209.862 202.706 209.897 199.644C209.897 199.62 209.898 199.596 209.898 199.596C209.898 199.465 209.891 199.336 209.88 199.207Z" fill="#F4B18E"/>
<path d="M209.887 196.137C209.887 199.221 206.521 201.721 202.369 201.721C198.218 201.721 194.852 199.221 194.852 196.137C194.852 193.053 198.218 190.554 202.369 190.554C206.521 190.554 209.887 193.053 209.887 196.137Z" fill="#F9C6A6"/>
<path d="M232.276 205.303L232.273 201.807C231.071 201.509 229.87 201.211 228.667 200.912C227.532 200.401 226.2 200.107 224.776 200.107C222.529 200.107 220.513 200.839 219.135 202C218.882 201.886 218.566 201.78 218.198 201.743C217.834 201.707 217.516 201.746 217.259 201.807V205.691C217.259 206.122 217.324 206.541 217.449 206.943C218.019 208.792 219.824 210.291 222.185 210.935C222.993 211.155 223.866 211.275 224.776 211.275C228.907 211.275 232.259 208.801 232.294 205.739C232.294 205.716 232.294 205.691 232.294 205.691C232.294 205.56 232.288 205.431 232.276 205.303Z" fill="#F4B18E"/>
<path d="M232.284 202.233C232.284 205.317 228.918 207.817 224.766 207.817C220.614 207.817 217.249 205.317 217.249 202.233C217.249 199.149 220.614 196.649 224.766 196.649C228.918 196.649 232.284 199.149 232.284 202.233Z" fill="#F9C6A6"/>
<path d="M99.957 203.677C99.9561 202.512 99.9551 201.347 99.9541 200.182C98.7518 199.884 97.5495 199.585 96.3474 199.287C95.2125 198.776 93.8808 198.482 92.4567 198.482C90.2102 198.482 88.1933 199.214 86.8159 200.375C86.5629 200.26 86.246 200.155 85.8774 200.118C85.5142 200.081 85.1957 200.121 84.9392 200.182V204.066C84.9392 204.496 85.0053 204.916 85.1296 205.318C85.6995 207.166 87.5046 208.665 89.8655 209.309C90.6733 209.529 91.546 209.65 92.4567 209.65C96.5873 209.65 99.9395 207.176 99.9743 204.114C99.9746 204.091 99.9749 204.066 99.9749 204.066C99.9749 203.935 99.9692 203.806 99.957 203.677Z" fill="#F4B18E"/>
<path d="M99.9647 200.608C99.9647 203.692 96.5985 206.191 92.4465 206.191C88.2948 206.191 84.929 203.692 84.929 200.608C84.929 197.524 88.2948 195.024 92.4465 195.024C96.5985 195.024 99.9647 197.524 99.9647 200.608Z" fill="#F9C6A6"/>
<path d="M120.98 209.773C120.979 208.607 120.978 207.443 120.977 206.277C119.774 205.979 118.572 205.681 117.37 205.383C116.235 204.871 114.904 204.577 113.48 204.577C111.233 204.577 109.216 205.309 107.839 206.471C107.586 206.356 107.269 206.25 106.901 206.213C106.537 206.176 106.219 206.216 105.962 206.277V210.161C105.962 210.592 106.028 211.011 106.152 211.413C106.722 213.262 108.528 214.76 110.888 215.404C111.696 215.625 112.569 215.745 113.48 215.745C117.61 215.745 120.962 213.271 120.997 210.209C120.998 210.186 120.998 210.161 120.998 210.161C120.998 210.03 120.992 209.901 120.98 209.773Z" fill="#F4B18E"/>
<path d="M120.987 206.703C120.987 209.787 117.621 212.287 113.469 212.287C109.318 212.287 105.952 209.787 105.952 206.703C105.952 203.619 109.318 201.119 113.469 201.119C117.621 201.119 120.987 203.619 120.987 206.703Z" fill="#F9C6A6"/>
<path d="M141.865 215.868C141.864 214.703 141.863 213.537 141.862 212.372C140.66 212.074 139.458 211.776 138.256 211.477C137.121 210.966 135.789 210.672 134.365 210.672C132.118 210.672 130.102 211.404 128.724 212.565C128.472 212.451 128.154 212.345 127.786 212.308C127.423 212.271 127.104 212.311 126.848 212.372V216.256C126.848 216.686 126.913 217.105 127.038 217.508C127.608 219.356 129.413 220.856 131.774 221.499C132.582 221.72 133.454 221.84 134.365 221.84C138.495 221.84 141.848 219.366 141.883 216.304C141.883 216.28 141.883 216.256 141.883 216.256C141.883 216.125 141.877 215.996 141.865 215.868Z" fill="#F4B18E"/>
<path d="M141.873 212.798C141.873 215.882 138.507 218.382 134.355 218.382C130.203 218.382 126.837 215.882 126.837 212.798C126.837 209.714 130.203 207.214 134.355 207.214C138.507 207.214 141.873 209.714 141.873 212.798Z" fill="#F9C6A6"/>
<path d="M164.262 223.182C164.261 222.017 164.26 220.852 164.259 219.686L160.653 218.792C159.518 218.281 158.186 217.986 156.762 217.986C154.515 217.986 152.498 218.718 151.121 219.88C150.868 219.765 150.551 219.66 150.182 219.623C149.819 219.586 149.501 219.625 149.244 219.686V223.57C149.244 224.001 149.31 224.42 149.434 224.823C150.004 226.671 151.81 228.17 154.171 228.814C154.979 229.034 155.851 229.154 156.762 229.154C160.892 229.154 164.245 226.68 164.279 223.619C164.28 223.595 164.279 223.57 164.279 223.57C164.279 223.44 164.274 223.311 164.262 223.182Z" fill="#F4B18E"/>
<path d="M164.27 220.113C164.27 223.197 160.903 225.696 156.751 225.696C152.6 225.696 149.234 223.197 149.234 220.113C149.234 217.028 152.6 214.529 156.751 214.529C160.903 214.529 164.27 217.028 164.27 220.113Z" fill="#F9C6A6"/>
<path d="M186.659 229.277C186.658 228.112 186.657 226.947 186.656 225.782C185.453 225.483 184.251 225.185 183.049 224.887C181.914 224.376 180.583 224.082 179.159 224.082C176.912 224.082 174.895 224.813 173.518 225.975C173.265 225.86 172.948 225.755 172.58 225.717C172.216 225.681 171.898 225.72 171.641 225.782V229.665C171.641 230.096 171.707 230.515 171.831 230.918C172.401 232.766 174.206 234.265 176.567 234.909C177.375 235.129 178.248 235.25 179.159 235.25C183.289 235.25 186.641 232.775 186.676 229.714C186.676 229.69 186.676 229.665 186.676 229.665C186.676 229.535 186.671 229.405 186.659 229.277Z" fill="#F4B18E"/>
<path d="M186.666 226.208C186.666 229.292 183.3 231.792 179.148 231.792C174.996 231.792 171.631 229.292 171.631 226.208C171.631 223.124 174.996 220.625 179.148 220.625C183.3 220.625 186.666 223.124 186.666 226.208Z" fill="#F9C6A6"/>
<path d="M260.632 140.677L256.64 142.896L248.642 147.344L176.15 128.97L171.04 127.675L178.723 121.94L180.083 120.925L258.076 140.05L260.632 140.677Z" fill="#76768B"/>
<path d="M170.049 145.116C169.909 145.404 169.096 147.071 169.529 148.941C170.251 152.057 173.946 153.645 176.908 154.806C188.013 159.157 195.036 160.247 195.036 160.247C205.936 161.939 211.521 162.733 212.454 159.337C213.029 157.245 211.572 154.534 211.291 154.011C208.677 149.146 203.68 148.835 197.049 147.746C179.756 144.905 172.428 140.237 170.049 145.116Z" fill="#DCF3FF"/>
<path d="M220.954 159.381C220.901 159.536 220.591 160.432 220.829 161.471C221.224 163.202 222.874 164.169 224.193 164.883C229.138 167.558 232.221 168.336 232.221 168.336C237.008 169.545 239.459 170.124 239.775 168.281C239.971 167.146 239.266 165.618 239.13 165.324C237.865 162.582 235.683 162.284 232.769 161.516C225.171 159.513 221.861 156.76 220.954 159.381Z" fill="#DCF3FF"/>
<path d="M118.842 42.3801C118.842 42.3836 118.841 42.3864 118.84 42.3899C118.703 43.1019 118.566 43.8135 118.428 44.5252C118.422 44.552 118.417 44.5778 118.412 44.6049C117.966 44.5976 117.445 44.534 116.892 44.3508C114.585 43.5846 113.713 41.3766 113.563 40.9764C113.687 40.8589 113.812 40.7414 113.937 40.6237C114.026 40.5399 114.114 40.4561 114.204 40.3721C114.241 40.4083 114.281 40.4458 114.324 40.4848C114.819 40.943 115.679 41.6036 116.926 42.0174C117.656 42.2595 118.32 42.3505 118.842 42.3801Z" fill="#EC846F"/>
<path d="M298.948 89.502C298.948 89.502 259.9 127.995 255.167 138.493C255.092 138.659 255.017 138.825 254.941 138.988C254.479 139.981 253.998 140.929 253.505 141.834L245.506 146.282L173.016 127.908L174.705 123.329C174.705 123.329 174.981 122.431 175.588 120.878C178.957 112.273 192.504 83.5879 225.585 76.6711L298.948 89.502Z" fill="white"/>
<path d="M230.319 89.243C230.161 89.243 230.004 89.2036 229.861 89.123C229.527 88.9344 229.348 88.5606 229.411 88.1868L230.199 83.5267L226.161 86.7112C225.764 87.0245 225.184 86.9609 224.867 86.5695C224.549 86.1784 224.614 85.6075 225.011 85.2945L230.927 80.6288C231.225 80.3935 231.639 80.3643 231.968 80.5545C232.297 80.745 232.472 81.1153 232.41 81.4862L231.634 86.0742L236.829 81.8065C237.22 81.4856 237.8 81.5379 238.125 81.9227C238.45 82.3078 238.398 82.8797 238.007 83.2005L230.908 89.033C230.738 89.1718 230.529 89.243 230.319 89.243Z" fill="#B0B0DF"/>
<path d="M240.904 91.5112C240.844 91.5112 240.783 91.5052 240.722 91.4933L234.806 90.3269C234.458 90.2582 234.181 89.9991 234.094 89.6606C234.007 89.3217 234.125 88.964 234.397 88.7404L241.496 82.908C241.722 82.7225 242.024 82.6548 242.309 82.7248L247.042 83.8915C247.535 84.013 247.835 84.5055 247.712 84.9914C247.589 85.4776 247.087 85.7726 246.595 85.6517L242.316 84.5968L237.054 88.9196L241.083 89.7141C241.581 89.8124 241.904 90.2904 241.805 90.7816C241.717 91.213 241.333 91.5112 240.904 91.5112Z" fill="#B0B0DF"/>
<path d="M243.27 88.0114C243.196 88.0114 243.121 88.0029 243.046 87.9843L238.312 86.8179C237.82 86.6964 237.52 86.2039 237.643 85.7177C237.766 85.2315 238.266 84.9365 238.759 85.0574L243.492 86.2241C243.985 86.3456 244.285 86.8378 244.162 87.324C244.057 87.7359 243.682 88.0114 243.27 88.0114Z" fill="#B0B0DF"/>
<path d="M249.185 93.8435C249.066 93.8435 248.947 93.8211 248.833 93.7745C248.489 93.6341 248.265 93.3034 248.265 92.9366L248.265 91.1323L246.146 92.525C245.819 92.7401 245.389 92.7262 245.076 92.491C244.764 92.2558 244.638 91.8505 244.762 91.483L247.129 84.4842C247.29 84.0094 247.81 83.753 248.293 83.9108C248.775 84.0689 249.036 84.5828 248.875 85.0583L247.356 89.5483L248.675 88.6821C248.957 88.4966 249.32 88.4793 249.619 88.637C249.919 88.7951 250.106 89.1025 250.106 89.4372L250.106 90.7462L254.451 86.4627C254.81 86.1082 255.393 86.1082 255.752 86.4627C256.112 86.817 256.112 87.3914 255.752 87.7456L249.836 93.5777C249.66 93.7512 249.424 93.8435 249.185 93.8435Z" fill="#B0B0DF"/>
<path d="M256.852 96.2318C256.602 96.2318 256.351 96.2079 256.104 96.1587C253.987 95.7399 252.601 93.6934 253.015 91.5965C253.112 91.105 253.594 90.7841 254.094 90.8792C254.593 90.975 254.919 91.4511 254.822 91.9432C254.601 93.0636 255.338 94.1566 256.466 94.3799C257.278 94.5408 257.909 94.1718 258.213 93.9372C258.659 93.593 258.904 93.1531 258.915 92.8968C258.932 92.5246 258.328 92.0519 257.795 91.6347C257.021 91.0285 256.059 90.274 256.299 89.1347C256.431 88.5153 256.913 87.9498 257.625 87.5832C258.457 87.1541 259.393 87.1005 260.194 87.4353C261.437 87.9555 262.164 89.3514 261.925 90.7539C261.841 91.248 261.366 91.5805 260.865 91.4983C260.364 91.4152 260.026 90.9473 260.11 90.4532C260.209 89.8776 259.935 89.2985 259.475 89.1058C259.104 88.9502 258.716 89.0843 258.565 89.1495C258.316 89.2575 258.173 89.4002 258.12 89.4758C258.234 89.6606 258.671 90.0029 258.94 90.2142C259.774 90.867 260.812 91.6797 260.754 92.9764C260.716 93.8216 260.19 94.715 259.347 95.3658C258.615 95.9314 257.735 96.2318 256.852 96.2318Z" fill="#B0B0DF"/>
<path d="M261.083 112.118C258.108 112.118 257.667 111.636 257.023 110.635C256.674 110.091 256.24 109.415 254.912 108.543C252.394 106.887 249.175 107.088 245.768 107.302C244.588 107.376 243.368 107.452 242.151 107.452C238.623 107.452 237.485 105.576 236.385 103.763C235.91 102.979 235.419 102.169 234.726 101.487C233.323 100.103 230.886 100.584 228.306 101.093C226.991 101.352 225.631 101.62 224.402 101.62C221.973 101.62 219.686 99.2566 217.668 97.1717C216.572 96.0397 215.537 94.9706 214.731 94.5732C212.545 93.4956 207.994 94.5962 207.948 94.6075C207.701 94.6677 207.451 94.5203 207.39 94.2772C207.328 94.0341 207.479 93.7882 207.725 93.7274C207.925 93.678 212.652 92.5346 215.142 93.7617C216.092 94.23 217.131 95.3032 218.333 96.5454C220.224 98.4987 222.368 100.712 224.402 100.712C225.54 100.712 226.854 100.454 228.125 100.203C230.829 99.6698 233.625 99.1185 235.377 100.845C236.15 101.607 236.671 102.466 237.175 103.297C238.232 105.04 239.144 106.545 242.151 106.545C243.339 106.545 244.544 106.469 245.71 106.397C249.276 106.173 252.645 105.962 255.422 107.788C256.913 108.767 257.426 109.566 257.801 110.149C258.283 110.9 258.483 111.211 261.083 111.211C261.338 111.211 261.544 111.414 261.544 111.664C261.544 111.915 261.338 112.118 261.083 112.118Z" fill="#B0B0DF"/>
<path d="M250.434 121.45C247.459 121.45 247.018 120.968 246.374 119.966C246.025 119.423 245.591 118.747 244.263 117.875C241.744 116.219 238.526 116.421 235.119 116.634C233.939 116.708 232.719 116.784 231.502 116.784C227.973 116.784 226.836 114.908 225.736 113.094C225.26 112.311 224.769 111.502 224.077 110.819C222.674 109.436 220.236 109.916 217.656 110.424C216.341 110.684 214.982 110.952 213.753 110.952C211.324 110.952 209.036 108.588 207.018 106.504C205.923 105.372 204.888 104.303 204.081 103.905C201.892 102.827 197.345 103.928 197.299 103.939C197.053 104.001 196.803 103.852 196.741 103.61C196.679 103.367 196.829 103.12 197.076 103.06C197.276 103.01 202.003 101.866 204.493 103.094C205.443 103.562 206.481 104.635 207.684 105.877C209.575 107.831 211.718 110.045 213.753 110.045C214.891 110.045 216.205 109.786 217.475 109.535C220.18 109.002 222.976 108.451 224.728 110.178C225.501 110.94 226.022 111.799 226.525 112.629C227.582 114.372 228.495 115.877 231.502 115.877C232.69 115.877 233.895 115.802 235.061 115.729C238.627 115.505 241.996 115.294 244.773 117.12C246.263 118.099 246.777 118.898 247.151 119.481C247.633 120.232 247.833 120.543 250.434 120.543C250.688 120.543 250.894 120.746 250.894 120.997C250.894 121.247 250.688 121.45 250.434 121.45Z" fill="#B0B0DF"/>
<path d="M242.869 133.979C239.894 133.979 239.452 133.497 238.809 132.495C238.459 131.952 238.026 131.276 236.698 130.404C234.179 128.748 230.961 128.95 227.554 129.163C226.374 129.237 225.153 129.313 223.936 129.313C220.408 129.313 219.271 127.437 218.171 125.623C217.695 124.84 217.204 124.03 216.512 123.348C215.109 121.964 212.671 122.445 210.091 122.953C208.777 123.212 207.417 123.481 206.188 123.481C203.759 123.481 201.471 121.117 199.453 119.032C198.358 117.901 197.323 116.832 196.516 116.434C194.327 115.355 189.78 116.457 189.734 116.468C189.488 116.53 189.237 116.381 189.176 116.138C189.114 115.895 189.264 115.649 189.51 115.588C189.71 115.539 194.438 114.395 196.928 115.623C197.878 116.091 198.916 117.164 200.119 118.406C202.01 120.36 204.153 122.573 206.188 122.573C207.326 122.573 208.64 122.314 209.911 122.064C212.615 121.531 215.411 120.979 217.163 122.706C217.936 123.468 218.457 124.327 218.96 125.158C220.017 126.901 220.93 128.406 223.936 128.406C225.124 128.406 226.33 128.331 227.495 128.258C231.062 128.034 234.431 127.823 237.208 129.649C238.698 130.628 239.212 131.427 239.586 132.01C240.068 132.761 240.268 133.072 242.869 133.072C243.123 133.072 243.329 133.275 243.329 133.526C243.329 133.776 243.123 133.979 242.869 133.979Z" fill="#B0B0DF"/>
<path d="M304.74 126.82C304.353 126.767 303.967 126.764 303.583 126.806C292.921 124.351 282.259 121.896 271.597 119.441H271.596L268.968 120.838L260.604 125.286L184.813 106.912L179.47 105.617L187.298 100.029C173.015 96.7403 158.731 93.4503 144.447 90.1613C143.86 89.8347 143.227 89.6146 142.554 89.5223C138.377 88.9492 134.3 93.4488 133.448 99.5719C132.596 105.695 135.291 111.123 139.469 111.697C140.182 111.794 140.892 111.744 141.585 111.563V111.665L301.332 152.49L301.353 152.261C305.502 152.667 309.607 147.489 310.577 140.568C311.561 133.548 308.948 127.393 304.74 126.82Z" fill="#BCBCC1"/>
<path d="M309.684 144.095L309.661 144.325L133.467 104.12C134.095 108.182 136.374 111.272 139.468 111.697C140.182 111.795 140.892 111.744 141.585 111.564V111.665L301.332 152.491L301.353 152.261C304.757 152.594 308.132 149.166 309.77 144.102C309.741 144.099 309.713 144.098 309.684 144.095Z" fill="#B0B0B1"/>
<path d="M173.178 97.452L179.162 98.7469L186.783 100.397L187.298 100.029C182.851 99.0048 178.403 97.9804 173.956 96.9561L173.178 97.452Z" fill="#B0B0B1"/>
<path d="M141.36 91.8553C142.033 91.9476 142.666 92.1677 143.253 92.4945C157.014 95.663 170.775 98.8321 184.536 102.001L187.298 100.029C173.015 96.7402 158.731 93.4502 144.447 90.1615C143.86 89.8349 143.227 89.6151 142.554 89.5229C139.281 89.0735 136.069 91.74 134.422 95.8617C136.191 93.1123 138.756 91.4979 141.36 91.8553Z" fill="#D2D2DB"/>
<path d="M304.74 126.82C304.353 126.767 303.967 126.764 303.583 126.806C292.921 124.351 282.259 121.896 271.597 119.441H271.596L268.968 120.838L260.604 125.287L184.813 106.912L181.018 105.993L178.276 107.95L183.619 109.245L259.41 127.62L267.773 123.171L270.402 121.774H270.403C281.065 124.229 291.727 126.684 302.389 129.139C302.773 129.097 303.159 129.1 303.546 129.153C307.754 129.726 310.367 135.881 309.383 142.901C309.128 144.716 308.658 146.41 308.029 147.916C309.261 145.933 310.181 143.396 310.577 140.568C311.561 133.548 308.948 127.393 304.74 126.82Z" fill="#D2D2DB"/>
</g>
<mask id="mask1_327_6" style="mask-type:luminance" maskUnits="userSpaceOnUse" x="44" y="14" width="117" height="200">
<path d="M44.5503 14.9844H160.824V213.367H44.5503V14.9844Z" fill="white"/>
</mask>
<g mask="url(#mask1_327_6)">
<g opacity="0.5">
<path d="M84.1906 205.365C84.1906 207.941 78.8929 210.03 72.3579 210.03C65.8229 210.03 60.5251 207.941 60.5251 205.365C60.5251 202.788 65.8229 200.699 72.3579 200.699C78.8929 200.699 84.1906 202.788 84.1906 205.365Z" fill="#49495F"/>
</g>
<g opacity="0.5">
<path d="M144.949 202.098C144.949 204.675 139.652 206.764 133.117 206.764C126.582 206.764 121.284 204.675 121.284 202.098C121.284 199.521 126.582 197.433 133.117 197.433C139.652 197.433 144.949 199.521 144.949 202.098Z" fill="#49495F"/>
</g>
<path d="M137.66 196.538L121.634 195.615L121.546 193.948L121.061 184.69L120.267 169.555L129.634 172.619L128.432 184.906L128.061 188.695L131.199 191.258L137.66 196.538Z" fill="#FFA491"/>
<path d="M131.199 191.258C130.088 192.932 128.968 194.265 128.968 194.265L121.733 194.606L121.546 193.949L121.062 184.69C122.697 184.964 125.18 185.183 128.432 184.906L128.061 188.695L131.199 191.258Z" fill="white"/>
<path d="M140.09 200.077C137.685 199.915 134.343 199.755 130.326 199.773C129.944 199.774 129.555 199.777 129.161 199.782C123.604 199.853 121.258 200.13 120.136 198.661C118.567 196.606 120.575 192.627 121.693 190.702C123.185 191.899 125.186 193.19 126.492 192.539C128.36 191.607 127.767 187.223 128.621 187.132C129.223 187.069 129.251 189.274 130.985 191.148C131.776 192.003 133.326 192.71 136.212 193.893C136.636 194.067 137.09 194.251 137.574 194.447C140.17 195.502 141.128 195.787 141.421 196.698C141.791 197.848 140.892 199.162 140.09 200.077Z" fill="#D75F4B"/>
<path d="M137.614 198.352C132.045 198.575 130.623 196.968 124.895 196.594C122.035 196.407 120.493 196.683 119.573 196.354C119.513 197.227 119.657 198.034 120.136 198.661C121.258 200.131 123.604 199.854 129.162 199.782C133.699 199.724 137.456 199.9 140.09 200.077C140.68 199.404 141.323 198.514 141.474 197.633C140.878 197.974 139.759 198.266 137.614 198.352Z" fill="#353442"/>
<path d="M80.7034 126.68C89.9436 130.697 99.1842 134.713 108.424 138.729C111.806 153.241 115.188 167.752 118.57 182.264C122.834 181.791 127.098 181.317 131.362 180.844C131.217 176.159 130.885 169.269 130.038 160.97C127.989 140.883 126.965 130.84 121.636 123.544C116.435 116.422 109.216 112.692 99.1612 107.498C93.8975 104.779 89.283 102.981 85.9283 101.82C84.1865 110.107 82.4449 118.393 80.7034 126.68Z" fill="#F1D5B6"/>
<path d="M97.348 109.347C107.403 114.542 114.622 118.271 119.823 125.393C125.151 132.689 126.176 142.732 128.225 162.819C128.978 170.196 129.323 176.46 129.493 181.051C130.116 180.982 130.738 180.913 131.362 180.844C131.216 176.159 130.885 169.269 130.038 160.97C127.989 140.883 126.965 130.84 121.636 123.544C116.435 116.422 109.216 112.693 99.1614 107.498C93.8978 104.779 89.283 102.981 85.9283 101.82C85.766 102.593 85.6034 103.365 85.4412 104.138C88.6422 105.298 92.7472 106.97 97.348 109.347Z" fill="#F7E3CA"/>
<path d="M78.8545 206.613L64.6938 201.035L65.1216 199.504L67.5003 191.004L71.3876 177.106L78.8967 182.645L74.0767 193.38L72.5901 196.69L74.638 199.934L78.8545 206.613Z" fill="#FFA491"/>
<path d="M74.6335 199.932C73.1222 201.114 71.706 201.985 71.706 201.985L65.0762 200.152L65.108 199.503L67.4889 191.006C68.881 191.737 71.0536 192.669 74.0714 193.381L72.583 196.691L74.6335 199.932Z" fill="white"/>
<path d="M79.968 210.527C77.8465 209.669 74.8795 208.536 71.249 207.364C70.904 207.252 70.552 207.14 70.1955 207.028C65.1589 205.448 62.9574 205.004 62.3931 203.347C61.6029 201.029 64.6262 198.035 66.2216 196.629C67.2032 198.15 68.6161 199.906 69.9926 199.706C71.9622 199.419 72.7622 195.288 73.5605 195.459C74.1229 195.58 73.4765 197.577 74.47 199.78C74.9237 200.785 76.1072 201.881 78.3509 203.802C78.681 204.084 79.0345 204.385 79.4118 204.705C81.4337 206.424 82.2108 206.965 82.198 207.873C82.1817 209.02 80.9699 209.938 79.968 210.527Z" fill="#D75F4B"/>
<path d="M78.2582 208.24C73.1633 206.795 72.3689 204.927 67.3124 202.896C64.788 201.882 63.3119 201.675 62.5819 201.107C62.2615 201.876 62.1461 202.645 62.3874 203.352C62.9522 205.008 65.1537 205.452 70.1921 207.031C74.3053 208.32 77.6436 209.589 79.9676 210.527C80.7051 210.095 81.5561 209.483 81.9607 208.733C81.3187 208.864 80.2205 208.797 78.2582 208.24Z" fill="#353442"/>
<path d="M94.6936 113.897C92.7257 125.319 90.7603 136.738 88.7952 148.16C86.3405 162.423 83.8851 176.685 81.4303 190.947L64.1011 188.661L65.7054 163.772L69.4869 105.075L78.3431 82.9872C79.5483 83.1323 88.853 84.4017 94.1042 92.8247C100.322 102.802 94.9693 113.377 94.6936 113.897Z" fill="#F7E3CA"/>
<path d="M94.1031 92.825C90.8349 87.5817 85.9956 85.1104 82.517 83.9565C85.6463 85.3461 89.2774 87.7683 91.8982 91.9728C98.1173 101.95 92.763 112.524 92.487 113.046C88.0661 138.729 83.6449 164.411 79.2239 190.094L64.1344 188.104L64.0985 188.661L81.4291 190.946L94.6919 113.898C94.9679 113.376 100.322 102.802 94.1031 92.825Z" fill="#FFF4E6"/>
<path d="M88.7646 148.172C86.3059 162.43 83.8473 176.689 81.3886 190.947L64.0323 188.662L65.639 163.78C67.4023 166.152 69.7049 167.63 72.7044 167.607C80.7657 167.544 85.826 157.41 88.7646 148.172Z" fill="#F1D5B6"/>
<path d="M99.8404 28.6962C100.487 32.13 101.29 34.8077 101.93 36.6604C102.453 38.1759 102.993 39.5063 104.097 40.892C104.368 41.2314 104.617 41.5053 104.847 41.7355C105.587 42.4751 106.185 42.9436 106.264 43.0075C107.583 44.0732 107.901 54.405 103.029 56.3049C98.6986 57.9935 91.7894 52.4283 90.2359 46.3052C88.6647 40.1127 92.4257 32.7757 99.8404 28.6962Z" fill="#D75F4B"/>
<mask id="mask2_327_6" style="mask-type:luminance" maskUnits="userSpaceOnUse" x="44" y="14" width="456" height="450">
<path d="M44.5503 14.9844H499.742V463.708H44.5503V14.9844ZM60.5408 36.6173C60.5408 36.6173 61.9885 49.4866 63.3802 54.7164C64.772 59.9461 67.0403 65.2751 67.0403 65.2751L69.4827 63.3637L64.2114 36.7816L60.5408 36.6173Z" fill="white"/>
</mask>
<g mask="url(#mask2_327_6)">
<path d="M108.348 100.574C111.726 103.932 112.554 106.196 112.808 107.28C112.922 107.77 113.325 109.493 112.965 109.638C112.917 109.658 112.824 109.677 112.617 109.489C111.893 108.83 111.715 107.873 110.867 107.631C110.02 107.389 111.525 110.083 112.428 111.698C113.331 113.314 114.056 113.974 113.81 114.809C113.565 115.644 110.009 110.555 110.009 110.555C110.009 110.555 111.87 115.161 112.049 116.117C112.227 117.073 110.599 114.798 108.492 111.028C108.492 111.028 110.231 116.051 109.807 115.93C109.383 115.809 107.399 111.622 107.399 111.622C107.399 111.622 108.659 115.149 108.112 115.446C107.566 115.743 105.226 109.642 105.226 109.642C104.769 108.086 104.344 106.304 104.033 104.322C103.769 102.641 103.627 101.078 103.565 99.6621C105.159 99.9661 106.754 100.27 108.348 100.574Z" fill="#FFA491"/>
<path d="M99.3335 53.6355C105.655 61.8618 104.852 70.4096 106.732 81.1907C107.682 86.6354 109.651 94.5431 114.256 103.944L103.872 105.377C96.7857 96.336 95.6048 89.7467 96.043 85.2151C96.109 84.5339 96.1799 84.2212 96.2469 83.4879C96.9275 76.0485 93.0913 69.9777 89.4744 65.8331C90.7902 59.8551 92.1062 53.8771 93.422 47.899C94.9205 48.9913 97.195 50.853 99.3335 53.6355Z" fill="#EAA364"/>
<path d="M108.244 104.938C103.871 95.0249 101.632 74.2177 101.61 74.0089L102 73.9692C102.022 74.1776 104.254 94.9256 108.603 104.784L108.244 104.938Z" fill="white"/>
<path d="M101.082 99.7596L100.768 99.5282C102.12 97.7503 112.783 95.6293 113.237 95.5402L113.314 95.919C109.525 96.6666 102.093 98.4307 101.082 99.7596Z" fill="white"/>
<path d="M99.739 85.8661L99.4617 85.5928C102.131 82.9611 110.696 82.5099 111.059 82.4919L111.079 82.8777C110.991 82.8821 102.301 83.3396 99.739 85.8661Z" fill="white"/>
<path d="M100.62 74.9957L100.343 74.7224C101.249 73.8293 108.073 71.7194 108.363 71.6299L108.479 71.999C106.529 72.5997 101.316 74.3098 100.62 74.9957Z" fill="white"/>
</g>
<path d="M102.245 64.8569C101.886 79.0277 101.528 93.1988 101.17 107.37C99.0494 108.532 96.185 109.914 92.6548 111.111C92.5318 111.153 92.4082 111.194 92.284 111.235C89.7711 112.068 86.9306 112.801 83.79 113.296C82.5874 113.485 81.4161 113.628 80.2805 113.73L79.8896 113.764C74.1901 114.238 69.4105 113.716 66.0798 113.127C66.407 111.046 66.7062 109.064 66.9794 107.177C66.9989 107.047 67.0174 106.918 67.0353 106.789C67.5438 103.262 67.9609 100.066 68.3018 97.1648C68.3171 97.0348 68.3321 96.9057 68.3474 96.7772C68.7735 93.1062 69.0754 89.916 69.2821 87.1345C69.292 87.0041 69.3013 86.875 69.3105 86.7466C69.5982 82.7515 69.6861 79.6174 69.6625 77.1247C69.6609 76.9937 69.6593 76.8649 69.6574 76.7377C69.6474 76.0651 69.6295 75.4416 69.6048 74.8613C69.551 73.5856 69.3862 70.6244 69.7995 66.6819C69.8132 66.5535 69.827 66.424 69.8423 66.2937C70.1365 63.6823 70.6873 60.6633 71.6836 57.4321C71.7238 57.3011 71.765 57.1701 71.8065 57.0388C71.8071 57.0366 71.8081 57.0347 71.8084 57.0328C72.6019 54.5404 73.4549 52.5792 74.0135 51.3797C74.9681 50.2564 76.3936 48.8371 78.3918 47.5697C79.6247 46.7881 80.7988 46.2397 81.8076 45.8511L84.7864 45.1165C87.6909 44.4004 90.7638 45.239 92.8815 47.3259C94.4612 48.3744 96.7344 50.1785 98.6678 53.029C101.947 57.8648 102.245 62.7598 102.245 64.8569Z" fill="#FAC47E"/>
<path d="M93.6008 103.344C93.2488 106.024 92.8967 108.704 92.5446 111.385L98.2782 109.21C98.6107 105.849 100.527 86.0751 100.039 70.51C99.9161 66.5767 99.5982 61.5889 97.3915 55.7261C95.9452 51.8827 94.177 48.9651 92.9311 47.1262L86.364 47.4655C88.3442 49.3228 90.9787 52.3206 92.54 56.5961C93.9189 60.3724 93.8681 63.5229 93.8637 65.2926C93.852 70.3051 94.1816 77.5825 95.6301 87.9039C95.4226 89.4841 95.2148 91.0652 95.007 92.6453C94.9865 92.8025 94.9658 92.9596 94.9447 93.1164C94.5173 96.3725 94.0892 99.6285 93.6615 102.885L93.6008 103.344Z" fill="white"/>
<path d="M93.6624 102.884C93.6422 103.037 93.6218 103.191 93.6014 103.344C92.9555 103.645 92.2202 103.929 91.3971 104.198C91.2715 104.24 91.1434 104.28 91.0141 104.32C90.013 104.631 88.8896 104.919 87.6476 105.183C85.351 105.673 82.6425 106.082 79.576 106.406C79.4473 106.42 79.3173 106.434 79.187 106.447C78.6331 106.503 78.0677 106.557 77.4914 106.608C73.2571 106.983 69.3172 107.124 66.9786 107.176C66.9978 107.046 67.0163 106.918 67.0345 106.789C69.3743 106.735 73.2717 106.594 77.4588 106.223C78.0376 106.172 78.6046 106.118 79.1601 106.061C79.2904 106.047 79.4201 106.034 79.5492 106.02C84.2844 105.519 88.128 104.812 90.961 103.927C91.0904 103.887 91.2175 103.846 91.343 103.805C92.2218 103.516 92.9964 103.209 93.6624 102.884Z" fill="white"/>
<path d="M96.163 92.384C94.885 93.3017 92.9023 94.1051 90.2562 94.7798C90.1285 94.8129 89.9991 94.845 89.8678 94.8772C89.4385 94.9821 88.9919 95.0838 88.5294 95.1824C85.8798 95.7472 82.682 96.206 79.0185 96.5483C78.8891 96.5603 78.7594 96.5726 78.6281 96.5846C78.5435 96.5921 78.4585 96.5994 78.3729 96.6073C74.3941 96.9594 70.6759 97.1046 68.3012 97.1649C68.3166 97.0349 68.3316 96.9058 68.3466 96.7773C70.7174 96.7163 74.4007 96.5711 78.3403 96.2222C78.4303 96.214 78.5204 96.2064 78.6102 96.1979C78.7408 96.1865 78.8712 96.1743 79.0005 96.162C83.3151 95.7579 86.9492 95.1923 89.8243 94.4848C89.9556 94.4527 90.0853 94.42 90.2134 94.3872C92.7793 93.7286 94.7064 92.9519 95.9326 92.072L96.163 92.384Z" fill="white"/>
<path d="M96.1129 82.3822C94.6842 83.4079 92.3754 84.2913 89.2428 85.0115C89.1144 85.0411 88.985 85.0707 88.8534 85.0993C88.7301 85.1268 88.6052 85.1535 88.4794 85.1806C85.7429 85.7637 82.4224 86.2345 78.6081 86.5803C78.5132 86.5888 78.4184 86.5976 78.3228 86.6058C78.288 86.6087 78.2526 86.6121 78.2181 86.615C74.8139 86.9135 71.6084 87.0609 69.2817 87.1339C69.2916 87.0035 69.3008 86.8747 69.3101 86.7463C71.6323 86.6733 74.8203 86.525 78.2037 86.228C78.2324 86.2258 78.2615 86.223 78.2906 86.2204C78.3921 86.2113 78.4931 86.2028 78.5943 86.1933C82.5939 85.8299 86.0217 85.3301 88.8147 84.708C88.9457 84.679 89.0757 84.6491 89.2041 84.6194C92.2524 83.9132 94.5078 83.0565 95.8826 82.0705L96.1129 82.3822Z" fill="white"/>
<path d="M96.21 72.3811C94.6676 73.4886 92.0988 74.4301 88.5758 75.1795C88.4893 75.1981 88.4021 75.2164 88.3142 75.2349C88.1852 75.2614 88.0555 75.2879 87.9242 75.314C85.2477 75.8493 82.0541 76.2829 78.4193 76.6044C78.373 76.6088 78.3263 76.6126 78.2797 76.617C78.1487 76.628 78.0184 76.6394 77.8887 76.6504C74.78 76.913 71.8617 77.0509 69.6618 77.1242C69.6602 76.9932 69.6586 76.8641 69.6567 76.7372C71.855 76.6646 74.7717 76.5267 77.8775 76.2635C78.0075 76.2527 78.1379 76.2411 78.2685 76.2294C78.3081 76.2269 78.3474 76.2228 78.387 76.2193C82.0378 75.8962 85.2212 75.4607 87.8884 74.9233C88.0197 74.8971 88.1497 74.8703 88.2781 74.8432C91.8486 74.0973 94.4551 73.1631 95.9794 72.0691L96.21 72.3811Z" fill="white"/>
<path d="M96.1605 61.9451C94.6184 63.0526 92.0496 63.9937 88.527 64.7435C88.1616 64.8213 87.7859 64.8972 87.3997 64.9706C87.271 64.9958 87.141 65.0201 87.01 65.0437C84.5192 65.5034 81.6213 65.8806 78.3705 66.1684C78.2459 66.1794 78.1213 66.1901 77.9974 66.2009C77.8667 66.2119 77.7361 66.2229 77.6064 66.2337C74.6721 66.477 71.9202 66.6093 69.7995 66.6813C69.8132 66.5528 69.8273 66.4234 69.8423 66.293C71.956 66.2207 74.6864 66.0879 77.5968 65.8467C77.7265 65.836 77.8568 65.8249 77.9878 65.8139L78.3378 65.7833C81.6027 65.4945 84.4942 65.1155 86.9768 64.6539C87.1074 64.6297 87.2371 64.6051 87.3655 64.5805C91.381 63.8074 94.2856 62.8127 95.9302 61.633L96.1605 61.9451Z" fill="white"/>
<path d="M95.2287 52.8141C93.6863 53.9217 91.1175 54.8628 87.5949 55.6125C87.2786 55.6796 86.9541 55.7461 86.6222 55.8103C86.4938 55.8349 86.3644 55.8595 86.2341 55.8837C83.7978 56.3399 80.9655 56.7162 77.7891 57.0059C77.6725 57.0166 77.5562 57.0273 77.4386 57.0374C77.4249 57.0383 77.4112 57.0399 77.3974 57.0412C75.3774 57.219 73.4256 57.3438 71.6838 57.4315C71.724 57.3006 71.7655 57.1699 71.8071 57.0383C73.5157 56.9512 75.4205 56.8279 77.3897 56.6536C77.3948 56.6532 77.4003 56.6529 77.406 56.6523C77.5312 56.6409 77.6568 56.6299 77.7814 56.6183C80.9616 56.3276 83.7796 55.9501 86.2021 55.4933C86.3324 55.469 86.4618 55.4442 86.5902 55.419C90.5246 54.6503 93.3748 53.6666 94.998 52.5021L95.2287 52.8141Z" fill="white"/>
<path d="M80.2796 113.73C80.0263 112.026 79.7916 109.489 79.5758 106.407C79.5672 106.279 79.5576 106.15 79.5489 106.02C79.3571 103.22 79.1805 99.9935 79.0183 96.5482C79.0126 96.4195 79.0062 96.291 79.0001 96.1612C78.8577 93.0851 78.7268 89.8423 78.6077 86.58C78.6036 86.4512 78.5984 86.3221 78.594 86.193C78.4778 82.9682 78.373 79.7289 78.2802 76.6175C78.2763 76.4877 78.2725 76.3589 78.2683 76.2298C78.1623 72.6337 78.0719 69.2175 77.9969 66.2014C77.9941 66.0711 77.9905 65.942 77.9876 65.8138C77.8966 62.1012 77.8303 59.0234 77.7889 57.0056C77.7863 56.8718 77.7841 56.7427 77.7812 56.618C77.7539 55.2661 77.7398 54.4799 77.7388 54.4194L77.3467 54.426C77.3476 54.4871 77.3624 55.2848 77.3897 56.6539C77.3926 56.778 77.3948 56.9071 77.3974 57.0409C77.4387 59.0635 77.5051 62.14 77.5968 65.8472C77.5997 65.9751 77.6025 66.1042 77.6061 66.2342C77.6804 69.2515 77.7711 72.6675 77.8778 76.2635C77.8813 76.392 77.8851 76.5208 77.889 76.6505C77.9818 79.7623 78.0872 83.0022 78.2034 86.2283C78.2082 86.3574 78.213 86.4865 78.2178 86.6153C78.3362 89.8779 78.4675 93.1204 78.6102 96.1975C78.6159 96.3266 78.6223 96.456 78.6281 96.5845C78.7903 100.03 78.9675 103.259 79.16 106.061C79.1686 106.191 79.1776 106.319 79.1868 106.447C79.4017 109.52 79.636 112.054 79.8884 113.764L80.2796 113.73Z" fill="white"/>
<path d="M92.6535 111.111C92.5306 111.153 92.4069 111.194 92.2824 111.236C91.9255 110.163 91.5022 107.852 91.0132 104.32C90.9956 104.191 90.9778 104.06 90.9595 103.927C90.6246 101.471 90.2603 98.4522 89.8665 94.877C89.8525 94.7469 89.8374 94.6162 89.8234 94.4846C89.5175 91.6881 89.1937 88.5594 88.8527 85.0997C88.8402 84.9696 88.8268 84.8393 88.814 84.7083C88.619 82.7169 88.4176 80.6172 88.2111 78.4102C88.1139 77.3742 88.018 76.3407 87.9241 75.3145C87.9122 75.1841 87.8998 75.0541 87.8883 74.9237C87.5728 71.4788 87.2761 68.1243 87.0092 65.0444C86.998 64.914 86.9868 64.7839 86.9759 64.6545C86.6869 61.3135 86.4344 58.3104 86.2339 55.8839C86.2231 55.752 86.2122 55.6216 86.2013 55.4937C85.9072 51.9305 85.732 49.7095 85.7275 49.6544L86.1185 49.6245C86.1274 49.7337 86.3001 51.9222 86.5894 55.4191C86.5999 55.5475 86.6108 55.6782 86.622 55.8105C86.8228 58.2317 87.075 61.2338 87.3649 64.5811C87.3761 64.7105 87.3873 64.8406 87.3991 64.9716C87.6654 68.0433 87.9621 71.3937 88.2782 74.844C88.2904 74.9743 88.3019 75.1047 88.314 75.2354C88.5982 78.3317 88.8971 81.5026 89.2033 84.62C89.2161 84.7507 89.2292 84.8817 89.242 85.0121C89.5613 88.2491 89.8873 91.422 90.2121 94.387C90.2261 94.5186 90.2405 94.6493 90.2552 94.7799C90.6244 98.1376 90.9913 101.217 91.3418 103.805C91.3594 103.937 91.3776 104.069 91.3959 104.199C91.8538 107.535 92.2836 110.001 92.6535 111.111Z" fill="white"/>
<path d="M76.1229 78.9917C75.1713 78.9918 74.5551 78.9713 74.4497 78.9673L74.4644 78.5812C74.5826 78.5856 86.369 78.9777 91.1136 76.0008L91.3238 76.327C87.5193 78.7141 79.5935 78.9913 76.1229 78.9917Z" fill="white"/>
<path d="M119.261 97.9389L118.009 109.553L113.341 110.549L117.658 73.5518L123.104 72.3905L142.595 104.311L137.771 105.339L131.659 95.2956L119.261 97.9389ZM129.962 92.0174L124.363 82.8274C123.091 80.7433 122.123 78.8087 121.167 76.9251L121.064 76.9475C120.993 79.1029 120.883 81.3213 120.668 83.5618L119.433 94.2625L129.962 92.0174Z" fill="#4A5FB8"/>
<path d="M115.48 87.9023C115.716 87.1651 116.075 86.7976 116.363 86.5976C116.9 86.2234 117.514 86.2079 117.686 85.728C117.706 85.6697 117.781 85.461 117.685 85.2928C117.433 84.8486 116.19 85.049 115.48 85.2931C115.038 85.4456 114.098 85.8573 113.275 87.0329L111.511 88.3377C111.511 88.3377 111.952 89.2073 112.393 89.2073C112.834 89.2072 115.48 87.9023 115.48 87.9023Z" fill="#FFA491"/>
<path d="M108.423 88.9261C110.34 88.2477 111.999 87.7843 113.275 87.468C114.963 87.049 116.296 86.7252 118.126 86.5977C119.275 86.5176 120.235 86.5421 120.907 86.5807C121.329 86.865 121.563 87.3172 121.502 87.7527C121.462 88.0377 121.306 88.2376 121.214 88.3365C121.852 88.7663 122.201 89.4495 122.097 90.0969C122.03 90.5123 121.795 90.8014 121.656 90.9453C122.145 91.3256 122.316 91.9497 122.097 92.441C121.861 92.9687 121.282 93.1048 121.215 93.1196C121.453 93.4672 121.651 93.8822 121.502 94.1993C121.149 94.9539 119.041 94.7053 116.804 94.4247C114.543 94.1406 113.412 93.9987 112.585 93.6143C110.127 92.4722 108.932 90.1661 108.423 88.9261Z" fill="#FFA491"/>
<path d="M111.069 87.4668L110.628 93.1197C106.282 94.3942 99.0141 95.7757 90.7788 93.7011C87.3819 92.8456 83.2909 91.8321 79.751 88.3397C76.3423 84.9773 75.0598 80.8943 73.5746 76.1651C72.7081 73.4074 71.8454 70.5845 71.8092 66.7438C71.7705 62.6865 71.7295 58.3111 74.8958 55.728C77.076 53.9493 80.5625 53.1957 83.2765 54.4226C85.6072 55.476 86.5474 57.6199 88.1293 61.3792C89.6836 65.0743 90.2927 68.1605 90.7766 70.9453C91.1458 73.0705 91.5028 75.7864 91.635 78.9765C91.6443 79.196 91.6527 79.4176 91.6597 79.6419C92.4267 79.8581 93.2125 80.0901 94.0152 80.3381C96.4653 81.0965 99.0761 82.0113 101.805 83.1194C105.253 84.5194 108.343 86.0066 111.069 87.4668Z" fill="#F1B36F"/>
<path d="M76.0221 67.0931C74.7565 67.0933 73.4839 66.9926 72.2186 66.79L72.2815 66.4083C75.994 67.0031 79.7741 66.7048 83.2143 65.5454C85.0612 64.923 86.8263 64.0525 88.4604 62.9587L88.6805 63.2786C87.0177 64.3919 85.2209 65.2775 83.3411 65.9112C81.0135 66.6955 78.5325 67.0929 76.0221 67.0931Z" fill="white"/>
<path d="M81.4135 88.654C80.3581 88.6542 79.7336 88.5339 79.7106 88.5292L79.7911 88.1504C79.8748 88.1674 88.1581 89.7513 95.922 80.8201L96.2194 81.0716C90.4163 87.7475 84.3025 88.6537 81.4135 88.654Z" fill="white"/>
<path d="M94.229 94.2807C93.901 94.2808 93.7553 94.1551 93.7278 94.1281L93.9961 93.8468C94.0144 93.8597 95.8956 95.0744 104.297 84.3064L104.607 84.5416C98.1221 92.8548 95.3761 94.2101 94.3169 94.2782C94.2862 94.2801 94.2568 94.2807 94.229 94.2807Z" fill="white"/>
<path d="M106.415 90.8466C100.814 90.8472 90.4846 89.994 85.7718 84.1104C79.1899 75.8934 78.6739 54.2102 78.6694 53.9922L79.0617 53.9843C79.0662 54.201 79.5793 75.7555 86.0798 83.8708C92.554 91.9536 109.992 90.3358 110.167 90.3185L110.206 90.703C110.155 90.708 108.666 90.8464 106.415 90.8466Z" fill="white"/>
<path d="M95.6278 51.8128L98.2735 46.5951C98.2735 46.5951 97.3909 42.6814 94.7445 42.6817C92.098 42.6821 91.6575 45.7262 91.6575 45.7262C91.6575 45.7262 95.1864 49.204 95.6278 51.8128Z" fill="#FAC47E"/>
<path d="M95.2038 38.5924C94.9608 39.5116 94.7178 40.4317 94.4744 41.3509C94.4738 41.3534 94.4731 41.3553 94.4725 41.3579C94.3349 41.8777 94.1982 42.3973 94.0596 42.9175C94.0541 42.9371 94.0493 42.9563 94.0442 42.9758C93.677 44.3664 93.3084 45.7576 92.9408 47.1482C92.8766 47.213 91.6098 48.4444 89.5207 48.3263C87.9724 48.2393 86.6269 47.4479 86.1508 46.3346L88.98 40.2226L89.5684 40.0685L89.9553 39.967L95.2038 38.5924Z" fill="#FFA491"/>
<path d="M90.3348 53.5522L89.4516 45.7256L85.9228 44.4213L85.0409 48.7697L90.3348 53.5522Z" fill="#FAC47E"/>
<path d="M100.888 35.1283C100.656 37.9772 99.0974 42.3814 95.9112 43.3065C90.3096 44.9335 83.3422 34.7399 84.2971 33.4948C84.5185 33.206 85.0018 33.6125 85.9563 33.4946C89.7948 33.0203 90.0137 24.6751 93.5424 24.7714C96.6297 24.8558 98.752 27.9037 99.228 28.587C101.151 31.3487 100.96 34.2366 100.888 35.1283Z" fill="#FFA491"/>
<path d="M98.4957 34.1204C98.4957 34.52 98.8241 34.8434 99.2291 34.8434C99.6342 34.8433 99.9625 34.5199 99.9625 34.1203C99.9625 33.721 99.634 33.3974 99.229 33.3974C98.824 33.3974 98.4956 33.7212 98.4957 34.1204Z" fill="black"/>
<path d="M92.0779 34.3016C92.078 34.7009 92.4064 35.0246 92.8114 35.0245C93.2165 35.0245 93.5448 34.7007 93.5448 34.3015C93.5447 33.9022 93.2163 33.5785 92.8113 33.5785C92.4063 33.5786 92.0779 33.9023 92.0779 34.3016Z" fill="black"/>
<path d="M101.155 32.4028C100.908 32.1516 100.617 32.0026 100.321 31.8921C100.023 31.7845 99.712 31.7237 99.399 31.7077C99.0863 31.6901 98.7703 31.7166 98.4615 31.7947C98.1532 31.8712 97.8498 32.0001 97.5789 32.2199C97.5946 32.4907 97.6898 32.6131 97.762 32.6742C98.0329 32.9025 98.4095 32.6304 99.3508 32.5865C99.7584 32.5676 99.807 32.612 100.221 32.5751C100.519 32.5487 100.82 32.5058 101.155 32.4028Z" fill="#353442"/>
<path d="M91.1614 32.2234C91.4077 31.9721 91.6984 31.8232 91.9948 31.7123C92.2928 31.6049 92.6033 31.5441 92.9163 31.528C93.2291 31.5104 93.5456 31.5368 93.8545 31.6148C94.1628 31.6913 94.4656 31.8201 94.7365 32.0399C94.7209 32.3107 94.6257 32.4332 94.5535 32.4942C94.2827 32.7226 93.906 32.4505 92.9646 32.4069C92.5571 32.388 92.5085 32.4321 92.0942 32.3953C91.7965 32.3689 91.4965 32.3264 91.1614 32.2234Z" fill="#353442"/>
<path d="M96.509 37.9422C97.3135 37.3105 97.3259 37.0183 97.0301 36.1378C96.7652 35.3487 96.582 33.7497 96.5804 33.7334L96.2163 33.7787C96.224 33.8461 96.4059 35.436 96.6845 36.2654C96.9382 37.0202 96.9436 37.1206 96.2889 37.6349L96.509 37.9422Z" fill="#EC846F"/>
<path d="M96.1519 40.035C96.5036 40.035 96.8853 39.9575 97.2948 39.8025L97.1631 39.4646C96.4639 39.7298 95.8685 39.7422 95.3941 39.5004C94.691 39.1424 94.4747 38.3325 94.4728 38.3247L94.117 38.4129C94.1272 38.4522 94.3719 39.384 95.222 39.8194C95.5028 39.9629 95.8133 40.035 96.1519 40.035Z" fill="#EC846F"/>
<path d="M99.9128 18.7733C101.362 20.0365 100.268 21.6778 102.139 24.011C103.429 25.6193 104.442 25.5339 104.767 26.7471C105.295 28.7176 103.306 31.4911 101.532 31.5319C101.19 31.5395 101.06 31.4412 99.2283 30.2222C99.2283 30.2222 95.4157 27.6745 93.8972 27.9083C93.7822 27.9262 93.6934 27.9489 93.6273 27.9653C93.2724 28.0538 92.9322 28.2516 92.5921 28.5873C90.9328 30.223 89.2742 31.8584 89.2742 31.8584L89.2743 33.4936C89.2743 33.4936 85.9559 31.8587 85.9563 35.1298C85.9563 36.0433 86.2151 36.5742 86.5882 36.8648C87.4517 37.5373 89.1037 36.4539 89.2746 36.765C89.3717 36.9417 88.8144 37.2009 88.5902 37.9119C88.3679 38.6189 88.5283 39.2524 88.5903 39.5068C89.1141 41.6483 87.6858 46.8316 87.5893 47.1751C87.1305 48.8148 86.3852 51.4757 84.5024 53.6981C81.0711 57.7479 73.8054 60.4079 70.8287 57.6126C68.5762 55.4971 68.8485 50.3222 71.2689 48.0469C73.3734 46.0682 76.0749 47.2465 77.003 45.4368C77.9353 43.6191 75.5132 41.8387 75.7562 37.3225C75.8212 36.1111 76.0269 35.2143 76.2271 34.5473C76.5604 33.4379 77.8737 31.2084 80.5006 26.7496C82.6944 23.0255 83.3571 22.3245 84.2036 21.5371C85.9155 19.9452 87.764 19.5136 90.9317 18.7742C94.7763 17.877 98.0168 17.121 99.9128 18.7733Z" fill="#D75F4B"/>
</g>
</svg>
