<svg width="384" height="384" viewBox="0 0 384 384" fill="none" xmlns="http://www.w3.org/2000/svg">
<g clip-path="url(#clip0_186_338)">
<mask id="mask0_186_338" style="mask-type:luminance" maskUnits="userSpaceOnUse" x="0" y="0" width="384" height="384">
<path d="M384 0H0V384H384V0Z" fill="white"/>
</mask>
<g mask="url(#mask0_186_338)">
<path d="M151.491 328.405C151.491 328.405 151.026 320.77 150.97 308.414C150.961 306.559 135.015 304.521 135.028 302.463C135.037 300.962 151 299.486 151.023 297.886C151.124 291 151.366 283.233 151.84 274.89C151.937 273.185 140.072 272.659 140.189 270.908C140.297 269.299 152.385 266.469 152.51 264.826C152.664 262.816 152.833 260.782 153.016 258.727C153.198 256.693 144.547 256.599 144.76 254.528C144.919 252.976 153.935 249.456 154.113 247.887C156.796 224.212 161.635 198.783 170.185 176.802C170.185 176.802 162.797 183.597 152.982 196.43C152.238 197.403 153.375 202.604 152.605 203.646C151.883 204.625 149.254 201.44 148.512 202.478C141.735 211.967 134.239 223.963 127.388 238.257C126.689 239.715 131.141 245.12 130.457 246.626C129.948 247.747 124.298 244.96 123.798 246.108C119.712 255.492 115.968 265.749 112.893 276.828C112.356 278.766 125.73 288.923 125.235 290.91C124.757 292.828 110.41 286.574 109.975 288.537C108.804 293.829 107.795 299.287 106.978 304.908C106.788 306.21 120.98 311.358 120.811 312.677C120.662 313.848 106.15 311.19 106.018 312.375C105.473 317.262 105.076 322.264 104.845 327.378L151.491 328.405Z" fill="#24A3BF"/>
<path d="M128.86 327.516C129.301 315.669 130.436 303.81 131.967 292.102C133.523 280.388 135.585 268.806 138.125 257.436C140.596 246.027 143.851 234.982 147.522 224.247L150.427 216.293C151.439 213.676 152.586 211.167 153.659 208.597L155.295 204.763C155.87 203.513 156.506 202.319 157.109 201.094L160.773 193.787L157.056 201.042C156.444 202.259 155.798 203.445 155.214 204.687L153.549 208.5C152.457 211.056 151.29 213.553 150.258 216.16L147.291 224.083C143.536 234.782 140.192 245.809 137.632 257.211C135.003 268.575 132.851 280.163 131.204 291.897C129.581 303.639 128.357 315.48 127.825 327.466L128.86 327.516Z" fill="white"/>
<path d="M132.019 327.363C132.019 327.363 131.343 318.019 129.342 303.371C128.822 299.565 109.07 287.613 109.07 287.613C108.464 283.818 126.218 283.148 125.459 278.979C124.948 276.174 124.401 273.294 123.816 270.352C123.418 268.353 123.002 266.326 122.567 264.275C120.772 255.793 118.661 246.901 116.187 237.893C115.48 235.322 101.934 239.679 101.167 237.096C101.167 237.096 112.256 224.477 111.338 221.642C106.498 206.693 100.586 191.915 93.3878 178.653C92.592 177.187 79.8247 181.365 79.8247 181.365C79.0948 180.106 89.4809 171.81 88.7258 170.584C78.4432 153.888 65.8118 140.356 50.3279 133.133C50.3279 133.133 52.4174 140.222 55.3422 152.804C57.9646 164.086 61.2587 179.783 64.32 198.746C64.6644 200.88 79.1888 201.918 79.5261 204.133C79.5261 204.133 65.9278 209.16 66.2144 211.148C66.7587 214.927 67.2882 218.81 67.7975 222.79C67.982 224.233 76.706 222.871 76.8849 224.339C77.0922 226.04 68.7534 230.575 68.9523 232.308C70.6595 247.191 72.0404 263.265 72.8216 280.182C72.8834 281.522 89.5119 284.079 89.5663 285.429C89.5663 285.429 73.0955 286.793 73.1401 288.087C73.2321 290.771 73.3086 293.475 73.3684 296.197C73.4174 298.433 94.1451 300.777 94.1711 303.037C94.1922 304.864 73.5152 306.602 73.5203 308.443C73.5378 314.75 73.4603 321.139 73.276 327.596L132.019 327.363Z" fill="#38D0D0"/>
<path d="M101.524 327.472C101.078 311.742 99.8666 296.125 98.1984 280.595C96.5164 265.073 94.2546 249.671 91.3432 234.514C89.8601 226.947 88.2371 219.433 86.3874 212.028C84.51 204.638 82.4714 197.328 80.1566 190.189C77.8085 183.074 75.2582 176.09 72.3787 169.376C69.464 162.695 66.2628 156.267 62.7263 150.22C66.2299 156.307 69.3936 162.765 72.2681 169.47C75.1076 176.209 77.6156 183.212 79.9208 190.34C82.1926 197.493 84.1875 204.813 86.0204 212.209C87.8257 219.62 89.4043 227.137 90.8426 234.704C93.6648 249.86 95.8366 265.252 97.4293 280.756C99.0077 296.254 100.131 311.884 100.488 327.5L101.524 327.472Z" fill="white"/>
<path d="M128.357 327.261C128.357 327.261 130.977 307.802 134.451 298.683C135.354 296.313 150.139 294.107 150.139 294.107C151.096 291.769 139.486 286.198 140.6 283.657C141.349 281.947 142.134 280.199 142.953 278.421C143.509 277.213 144.081 275.991 144.67 274.758C147.101 269.662 149.802 264.385 152.758 259.136C153.602 257.638 161.896 264.435 162.781 262.946C162.781 262.946 157.324 251.39 158.347 249.778C162.653 242.99 167.394 236.471 172.542 230.708C173.007 230.186 179.114 237.567 179.587 237.058C179.951 236.666 174.679 228.382 175.047 227.998C175.53 227.493 176.018 226.995 176.508 226.504C177.249 225.763 185.055 232.216 185.055 232.216C185.721 231.594 180.092 223.103 180.77 222.509C190.008 214.426 200.328 209.116 211.603 208.806C211.603 208.806 209.182 212.896 205.402 220.38C204.882 221.409 200.29 220.636 199.722 221.792C199.371 222.505 203.059 225.108 202.691 225.869C199.77 231.91 196.339 239.426 192.723 248.201C192.182 249.514 182.451 246.006 181.902 247.375C181.902 247.375 190.131 254.631 189.65 255.864C188.735 258.208 187.815 260.626 186.893 263.114C186.559 264.016 185.118 267.991 184.732 269.081C181.416 278.441 178.141 288.683 175.138 299.656C174.9 300.526 163.557 297.415 163.323 298.294C163.323 298.294 173.985 303.954 173.765 304.798C173.31 306.548 172.861 308.316 172.421 310.1C172.06 311.566 158.045 307.132 157.696 308.62C157.413 309.823 170.794 316.946 170.52 318.163C169.581 322.333 168.692 326.585 167.864 330.913L128.357 327.261Z" fill="#30C1AB"/>
<path d="M144.713 329C147.847 318.304 151.42 307.815 155.238 297.538C159.085 287.277 163.198 277.203 167.721 267.5C172.233 257.792 177.124 248.413 182.576 239.71C188.014 231.008 194.064 222.992 200.912 216.537C194.016 222.889 187.897 230.829 182.384 239.467C176.857 248.106 171.884 257.434 167.29 267.098C162.684 276.757 158.486 286.794 154.553 297.026C150.646 307.283 146.994 317.718 143.754 328.457L144.713 329Z" fill="white"/>
<path d="M341.386 332.379H32.4078C30.5422 332.379 29.03 330.867 29.03 329.001C29.03 327.136 30.5422 325.624 32.4078 325.624H341.386C343.251 325.624 344.763 327.136 344.763 329.001C344.763 330.867 343.251 332.379 341.386 332.379Z" fill="#D5D5EF"/>
<path d="M189.235 133.707C187.048 142.622 179.746 146.641 174.793 148.39C171.548 149.522 168.957 149.678 168.853 149.689C168.849 149.69 168.849 149.69 168.849 149.69C168.849 149.69 163.435 140.342 160.189 126.075C159.026 120.981 157.696 113.842 157.141 107.56L168.959 103.109C170.141 103.804 170.812 104.147 170.812 104.147C171.923 117.884 184.539 130.469 188.182 133.009C188.842 133.468 189.235 133.707 189.235 133.707Z" fill="#F8A378"/>
<path d="M189.235 133.707C189.235 133.707 187.975 140.041 182.54 144.259C177.086 148.508 168.849 149.69 168.849 149.69C168.849 149.69 163.435 140.342 160.189 126.075C160.189 126.075 172.381 152.009 188.182 133.009C188.842 133.468 189.235 133.707 189.235 133.707Z" fill="#E77756"/>
<path d="M245.962 88.7791C245.803 88.8101 245.628 88.8685 245.443 88.9499L245.416 88.9594C245.416 88.9594 286.234 101.516 260.797 143.234C260.797 143.234 243.683 161.876 223.058 169.803C219.014 171.357 206.744 171.785 204.706 171.96C204.706 171.96 204.461 171.961 204.343 171.959C204.094 171.956 203.839 171.952 203.589 171.944C203.339 171.941 203.094 171.933 202.848 171.925C202.603 171.917 202.358 171.904 202.117 171.896C201.876 171.888 201.631 171.876 201.394 171.858C200.676 171.82 199.976 171.768 199.288 171.702C198.624 171.635 197.973 171.564 197.336 171.483C197.035 171.444 196.739 171.401 196.443 171.358C195.924 171.279 195.418 171.195 194.921 171.106C194.246 170.986 193.585 170.851 192.941 170.702C192.745 170.657 192.553 170.611 192.361 170.565C192.17 170.52 191.978 170.474 191.791 170.424C191.599 170.374 191.412 170.328 191.229 170.278C191.046 170.228 190.859 170.177 190.676 170.122C190.502 170.072 190.328 170.021 190.159 169.971C187.993 169.321 186.05 168.539 184.304 167.661C184.158 167.587 184.015 167.513 183.873 167.439C183.762 167.383 183.647 167.322 183.537 167.261C183.399 167.191 183.261 167.117 183.128 167.039C182.19 166.52 181.31 165.967 180.489 165.4C180.374 165.317 180.258 165.237 180.143 165.154C179.28 164.538 178.754 164.059 177.99 163.442C177.889 163.358 177.783 163.275 177.682 163.192C177.384 162.941 177.09 162.689 176.809 162.432C176.722 162.353 176.635 162.277 176.552 162.197C176.174 161.847 175.819 161.496 175.477 161.144C175.369 161.033 175.267 160.927 175.164 160.816C175.081 160.727 175.002 160.638 174.919 160.548C174.781 160.399 174.653 160.25 174.525 160.104C174.387 159.946 174.254 159.793 174.125 159.634C173.957 159.433 173.798 159.236 173.639 159.038C173.53 158.896 173.42 158.754 173.315 158.617C173.275 158.565 173.24 158.514 173.205 158.466C173.095 158.324 172.994 158.182 172.894 158.039C172.773 157.871 172.653 157.702 172.541 157.533C172.47 157.43 172.4 157.326 172.334 157.226C172.243 157.092 172.156 156.958 172.075 156.827C172.014 156.732 171.953 156.637 171.896 156.541C171.794 156.376 171.697 156.215 171.604 156.059C171.507 155.898 171.418 155.736 171.33 155.579C171.242 155.427 171.155 155.269 171.076 155.117C170.169 153.431 169.628 151.987 169.325 151.029C169.297 150.945 169.273 150.86 169.249 150.781C169.055 150.146 168.984 149.784 168.984 149.784C168.984 149.784 168.984 149.784 168.989 149.784C169.093 149.777 171.526 149.595 174.713 148.562C179.898 146.894 187.083 142.973 189.473 133.887C189.473 133.887 195.601 136.906 200.145 129.48C205.142 121.285 230.923 88.1131 245.962 88.7791Z" fill="#D8D8D8"/>
<path d="M241.454 207.602C238.617 206.331 235.617 205.038 232.454 203.721C232.454 203.721 232.454 203.721 232.449 203.721C232.449 203.721 232.449 203.721 232.444 203.721C221.818 198.451 211.365 191.2 201.454 180.304C201.454 180.304 161.934 148.635 139.574 174.817C128.467 187.821 144.56 237.878 158.314 272.961C158.314 272.961 166.362 273.955 174.105 273.361C180.551 272.866 188.866 270.615 188.866 270.615C188.34 259.276 188.565 249.299 190.48 248.341C191.429 247.869 192.695 248.385 194.252 249.306C197.206 250.959 201.788 253.581 213.695 254.535C213.695 254.535 272.615 266.616 306.686 210.512C292.76 214.684 267.945 217.375 241.454 207.602Z" fill="#313250"/>
<path d="M306.687 210.512C272.617 266.616 213.697 254.535 213.697 254.535C201.944 253.619 197.245 250.988 194.254 249.306C194.254 249.306 217.013 250.847 234.139 204.43C236.69 205.501 239.127 206.559 241.456 207.603C267.946 217.375 292.761 214.684 306.687 210.512Z" fill="#191B2E"/>
<path d="M191.274 305.312C191.274 305.312 190.548 305.766 189.372 306.351C187.756 307.15 185.301 308.198 182.754 308.63C178.955 309.274 173.159 308.652 172.955 308.63C172.955 308.63 172.955 308.63 172.95 308.63C172.95 308.63 166.298 293.333 158.313 272.961C158.313 272.961 161.123 273.311 165.018 273.47C167.714 273.583 170.937 273.606 174.105 273.361C180.551 272.866 188.866 270.615 188.866 270.615C189.611 286.606 191.274 305.312 191.274 305.312Z" fill="#F8A378"/>
<path d="M197.454 325.393C192.905 326.128 145.567 325.584 145.567 325.584C145.567 325.584 142.426 321.299 151.722 318.58C161.018 315.865 170.845 312.247 172.443 309.202C172.548 309.002 172.72 308.812 172.951 308.63C172.951 308.625 172.956 308.63 172.956 308.63C173.16 308.653 178.957 309.275 182.756 308.63C187.145 307.886 191.276 305.312 191.276 305.312C191.276 305.312 201.657 324.717 197.454 325.393Z" fill="#2B293B"/>
<path d="M191.274 305.312C191.274 305.312 190.548 305.766 189.373 306.351C189.373 306.351 187.275 281.69 180.715 280.481C174.053 279.254 164.737 273.552 164.737 273.552L165.018 273.47C167.714 273.583 170.937 273.606 174.105 273.361C180.551 272.866 188.867 270.615 188.867 270.615C189.611 286.606 191.274 305.312 191.274 305.312Z" fill="#E77756"/>
<path d="M300.676 293.407C300.226 295.521 299.617 296.873 299.617 296.873C299.617 296.873 289.741 308.049 275.216 316.46L273.328 303.673L270.042 281.386C279.401 282.144 297.688 277.785 297.688 277.785C297.688 277.785 299.98 280.145 300.936 285.975C301.399 288.796 301.105 291.432 300.676 293.407Z" fill="#F8A378"/>
<path d="M266.315 279.014C273.161 274.139 314.239 253.438 317.575 204.77C314.452 206.2 278.965 221.764 240.991 207.757C238.154 206.486 235.154 205.192 231.99 203.876C231.99 203.876 231.99 203.876 231.986 203.876C226.253 215.959 190.784 298.686 223.806 318.448C242.141 329.428 261.018 324.68 275.216 316.46C275.216 316.46 275.221 316.46 275.221 316.455C275.384 316.278 278.657 312.483 276.81 297.028C276.528 294.681 275.974 292.534 275.298 290.641C273.237 284.863 270.042 281.386 270.042 281.386C268.162 281.232 266.383 280.864 265.371 280.206C265.08 280.015 265.494 279.6 266.315 279.014Z" fill="#494967"/>
<path d="M313.791 325.039C313.791 325.039 309.302 327.88 307.218 318.425C305.135 308.966 302.48 298.772 299.618 296.873C299.618 296.873 301.894 291.809 300.938 285.975C299.981 280.145 297.689 277.785 297.689 277.785C297.689 277.785 313.265 270.141 315.122 274.565C322.945 293.202 313.791 325.039 313.791 325.039Z" fill="#2B293B"/>
<path d="M317.576 204.77C314.24 253.438 273.36 274.014 266.515 278.889C286.993 256.519 308.075 237.083 240.993 207.757C278.967 221.765 314.454 206.2 317.576 204.77Z" fill="#34334D"/>
<path d="M300.676 293.407C300.226 295.521 299.617 296.873 299.617 296.873C299.617 296.873 289.741 308.044 275.221 316.455C275.384 316.278 278.657 312.483 276.81 297.028C276.528 294.681 275.974 292.534 275.298 290.641V290.632C275.298 290.632 280.241 303.936 284.376 302.679C288.457 301.435 300.389 293.596 300.676 293.407Z" fill="#E77756"/>
<path d="M316.859 124.82L316.859 124.816C314.628 118.418 311.894 112.005 308.103 105.818C290.422 76.9452 258.755 81.0445 258.755 81.0445L257.232 81.8527C253.85 83.5604 247.753 86.2898 245.154 88.0467C243.963 88.8517 238.741 92.8869 238.741 92.8869C207.501 119.303 202.144 157.178 200.923 172.445C200.528 177.304 200.627 179.803 200.627 179.803C208.914 189.557 217.852 196.1 226.745 201.417C226.749 201.417 226.749 201.417 226.753 201.417C228.356 202.378 229.987 203.24 231.592 204.074C231.596 204.074 231.596 204.074 231.596 204.074C231.601 204.074 231.601 204.074 231.601 204.074C232.164 204.321 232.72 204.539 233.269 204.785C235.8 205.905 238.289 206.937 240.643 207.982C266.943 218.255 292.608 212.903 306.611 208.996C312.686 207.304 316.572 205.498 317.524 205.084C317.671 205.019 317.749 204.984 317.749 204.984C317.749 204.984 329.521 165.094 316.859 124.82Z" fill="#E6EFEF"/>
<path d="M317.749 204.984C317.749 204.984 317.671 205.019 317.524 205.084C316.572 205.498 312.686 207.304 306.611 208.996C292.608 212.903 266.943 218.255 240.643 207.982C238.336 206.987 235.799 205.904 233.269 204.785C232.72 204.539 232.164 204.321 231.601 204.074C231.601 204.074 231.601 204.074 231.596 204.074C231.596 204.074 231.596 204.074 231.592 204.074C229.987 203.24 228.356 202.378 226.753 201.417C338.138 237.228 316.847 125.705 316.859 124.82C329.431 164.907 317.749 204.984 317.749 204.984Z" fill="#E2E8E8"/>
<path d="M257.724 82.0881C257.566 80.1866 257.206 78.7612 257.206 78.7612C257.206 78.7612 259.15 61.0317 245.245 61.9368C231.344 62.8481 229.512 68.9584 229.512 68.9584C229.512 68.9584 229.115 83.0081 236.154 88.838C240.133 92.1315 243.539 89.0849 245.516 88.4056L245.546 88.3958C245.929 88.2648 246.258 88.2308 246.527 88.3518C247.706 88.8917 248.081 91.2893 250.078 91.5832C257.46 92.6649 258.072 86.2374 257.724 82.0881Z" fill="#F8A378"/>
<path d="M229.601 71.9523C229.601 71.9523 216.923 67.5228 225.228 56.5102C233.532 45.4976 253.194 54.4026 252.227 60.8834C252.227 60.8834 260.617 58.7259 259.799 76.8179C259.799 76.8179 259.84 81.4422 258.336 83.6861C256.832 85.93 258.228 76.6013 255.599 74.4038C255.599 74.4038 252.662 73.2851 252.411 77.6106C252.411 77.6106 249.295 75.0135 251.039 69.3294C251.039 69.3294 244.754 68.4631 243.43 64.216C243.43 64.216 232.943 71.2703 229.532 68.6694L229.601 71.9523Z" fill="#220F04"/>
<path d="M169.284 105.1L155.84 107.811C159.73 106.357 163.238 104.02 165.476 100.366C166.481 102.146 167.767 103.744 169.279 105.095L169.284 105.1Z" fill="#38D0D0"/>
<path d="M162.141 91.4035C162.177 101.007 154.877 108.926 145.507 109.853C144.804 109.897 144.119 109.924 143.446 109.938L143.263 109.938C133.286 109.722 125.24 101.584 125.202 91.5435C125.163 81.343 133.401 73.0369 143.601 72.9983C153.802 72.9596 162.102 81.2031 162.141 91.4035Z" fill="#2AB1B8"/>
<path d="M157.114 91.4204C157.143 98.8458 151.146 104.888 143.72 104.917C136.295 104.945 130.252 98.9476 130.224 91.5223C130.196 84.0969 136.193 78.0542 143.619 78.0261C151.044 77.998 157.086 83.995 157.114 91.4204Z" fill="#230D04"/>
<path d="M181.522 72.8528C177.582 72.8677 173.928 74.1164 170.936 76.2383C169.016 77.5939 167.375 79.3064 166.094 81.2768C164.198 84.1889 163.109 87.6654 163.123 91.4012C163.131 93.4801 163.483 95.4806 164.126 97.3437C164.126 97.353 164.13 97.3661 164.14 97.3753C164.222 97.6292 164.318 97.8788 164.414 98.1281C164.506 98.3638 164.607 98.5992 164.708 98.8349C164.717 98.853 164.726 98.8757 164.735 98.8938C164.836 99.116 164.941 99.3378 165.051 99.56C165.183 99.8318 165.33 100.104 165.476 100.366C166.482 102.146 167.768 103.744 169.28 105.095L169.284 105.1C172.568 108.038 176.905 109.819 181.662 109.801C181.821 109.8 181.976 109.8 182.139 109.79C192.115 109.498 200.1 101.302 200.062 91.2612C200.023 81.0572 191.722 72.8141 181.522 72.8528Z" fill="#2AB1B8"/>
<path d="M195.034 91.2767C195.062 98.7021 189.065 104.745 181.639 104.773C174.214 104.801 168.172 98.804 168.143 91.3786C168.115 83.9532 174.112 77.9105 181.537 77.8824C188.963 77.8543 195.005 83.8513 195.034 91.2767Z" fill="#230D04"/>
<path d="M207.079 90.4005C207.109 98.3624 203.111 103.25 197.83 106.129L197.765 106.165C192.92 108.788 186.999 109.72 182.139 109.791C192.113 109.499 200.097 101.301 200.059 91.2598C200.021 81.0593 191.72 72.8158 181.52 72.8545C184.715 72.8424 189.387 72.8243 193.863 73.9121L193.904 73.918C200.703 75.5697 207.039 79.7747 207.079 90.4005Z" fill="#2095B5"/>
<path d="M163.123 91.4012C163.109 87.6654 164.198 84.1889 166.094 81.2768C164.305 77.6206 161.361 75.571 157.952 74.4219L157.943 74.422C153.448 72.9094 148.141 72.9611 143.603 72.9965C153.802 72.9578 162.103 81.2009 162.142 91.4049C162.178 101.005 154.878 108.927 145.508 109.852C148.848 109.653 152.473 109.058 155.818 107.82C155.827 107.815 155.831 107.815 155.84 107.811C159.73 106.357 163.238 104.02 165.476 100.366C164.941 99.4104 164.488 98.4002 164.126 97.3438C163.483 95.4806 163.131 93.4801 163.123 91.4012Z" fill="#2095B5"/>
<path d="M233.12 88.8619L227.031 91.8446C222.096 94.023 218.57 96.1096 213.987 98.2216L197.83 106.131C203.112 103.251 207.111 98.361 207.08 90.3995C207.04 79.7734 200.701 75.572 193.904 73.9181L230.122 78.5788C230.122 78.5788 234.218 79.0351 235.168 83.076C236.119 87.1303 233.12 88.8619 233.12 88.8619Z" fill="#38D0D0"/>
<path d="M170.937 76.2377C169.017 77.5918 167.375 79.3047 166.095 81.2765C164.303 77.6214 161.36 75.5714 157.954 74.4205L170.937 76.2377Z" fill="#38D0D0"/>
<path d="M239.97 169.734C239.97 169.734 250.38 189.357 273.698 186.707C300.555 183.654 318.48 149.028 302.71 107.6C297.599 94.1742 283.204 87.0269 277.267 88.5143C277.267 88.5143 261.145 89.1692 263.288 113.468C264.527 127.523 265.008 133.819 260.062 139.324" fill="#D8D8D8"/>
<path d="M258.113 136.918C251.939 131.585 230.412 111.202 228.472 99.5924C227.963 96.5531 227.315 93.972 226.608 91.8011C224.153 84.2464 221.044 81.5834 221.044 81.5834C221.044 81.5834 219.192 79.0317 215.429 80.5038C211.666 81.976 217.652 91.0012 215.869 93.6525C214.891 95.1063 213.314 88.0731 210.911 88.4055C208.724 88.7099 210.626 94.3717 214.129 99.2096C214.465 99.6729 214.835 100.114 215.178 100.573C218.085 104.467 213.689 115.538 227.103 145.674C230.22 152.673 234.471 160.63 239.995 169.771C259.022 155.109 259.962 138.478 259.962 138.478C259.962 138.478 259.167 137.824 258.113 136.918Z" fill="#F8A378"/>
<path d="M259.962 138.478C259.962 138.478 259.022 155.109 239.995 169.771C234.471 160.63 230.286 152.645 227.103 145.674C245.213 163.093 258.113 136.918 258.113 136.918C259.167 137.824 259.962 138.478 259.962 138.478Z" fill="#E77756"/>
</g>
</g>
<defs>
<clipPath id="clip0_186_338">
<rect width="384" height="384" fill="white"/>
</clipPath>
</defs>
</svg>
