<?xml version="1.0" encoding="UTF-8"?>
<svg id="Calque_1" data-name="Calque 1" xmlns="http://www.w3.org/2000/svg" xmlns:xlink="http://www.w3.org/1999/xlink" viewBox="0 0 459 423.97">
  <defs>
    <style>
      .cls-1 {
        fill: #44807a;
      }

      .cls-1, .cls-2, .cls-3, .cls-4, .cls-5, .cls-6, .cls-7, .cls-8, .cls-9, .cls-10, .cls-11, .cls-12, .cls-13, .cls-14, .cls-15, .cls-16, .cls-17, .cls-18, .cls-19, .cls-20, .cls-21, .cls-22, .cls-23, .cls-24, .cls-25, .cls-26, .cls-27, .cls-28, .cls-29, .cls-30, .cls-31, .cls-32, .cls-33, .cls-34, .cls-35, .cls-36, .cls-37, .cls-38, .cls-39 {
        stroke-width: 0px;
      }

      .cls-2 {
        fill: #4490be;
      }

      .cls-3 {
        fill: #d5ecf3;
      }

      .cls-4 {
        fill: #0a2418;
      }

      .cls-5 {
        fill: #6dc3c2;
      }

      .cls-6 {
        fill: #337278;
      }

      .cls-7 {
        fill: #0e9666;
      }

      .cls-8 {
        fill: #135542;
      }

      .cls-9 {
        fill: #31160e;
      }

      .cls-10 {
        fill: #081411;
      }

      .cls-11 {
        fill: #bbcbd5;
      }

      .cls-12 {
        fill: #137068;
      }

      .cls-13 {
        fill: #9ad1c7;
      }

      .cls-14 {
        fill: #9dd5e0;
      }

      .cls-15 {
        fill: #284f8d;
      }

      .cls-16 {
        fill: #bee1de;
      }

      .cls-17 {
        fill: #46b19c;
      }

      .cls-18 {
        fill: #6b5d4d;
      }

      .cls-19 {
        fill: #d3ebf6;
      }

      .cls-20 {
        fill: #28af85;
      }

      .cls-21 {
        fill: #0b2c2f;
      }

      .cls-22 {
        fill: #c3e1cd;
      }

      .cls-23 {
        fill: #7a9178;
      }

      .cls-24 {
        fill: #1e1913;
      }

      .cls-25 {
        fill: #1e9c97;
      }

      .cls-26 {
        fill: #63bda5;
      }

      .cls-27 {
        fill: #c8cec1;
      }

      .cls-28 {
        fill: #916326;
      }

      .cls-29 {
        fill: #060808;
      }

      .cls-30 {
        fill: #161f22;
      }

      .cls-31 {
        fill: #053530;
      }

      .cls-32 {
        fill: #0c8462;
      }

      .cls-33 {
        fill: #f4f1eb;
      }

      .cls-34 {
        fill: #3e66a7;
      }

      .cls-35 {
        fill: #fcfcfd;
      }

      .cls-36 {
        fill: #62625b;
      }

      .cls-37 {
        fill: #cecece;
      }

      .cls-38 {
        fill: #6db0a5;
      }

      .cls-39 {
        fill: url(#Dégradé_sans_nom_6);
      }
    </style>
    <linearGradient id="Dégradé_sans_nom_6" data-name="Dégradé sans nom 6" x1="198.45" y1="99.33" x2="206.65" y2="125.58" gradientUnits="userSpaceOnUse">
      <stop offset="0" stop-color="#27ae81"/>
      <stop offset="1" stop-color="#0e8f63"/>
    </linearGradient>
  </defs>
  <g>
    <circle class="cls-33" cx="291.64" cy="253.1" r="167.36"/>
    <g>
      <path class="cls-2" d="m447.83,409.38c-30.24,5.18-60.38,10.49-91,13-3.66.14-7.36.39-11,.5-3.32-1.02-6.96.4-5.5-4.5,1.94-.33,13.91-3.33,14.75-4,2.39-1.9-3.7-.95-2.75-3.5,31.73-1.8,63.74.05,95.5-1.5Z"/>
      <path class="cls-34" d="m239.83,410.88c5.16.27,10.32,1.23,15.5,1.5-2.85,3.58,3.01,6-1.25,7.5,11.08.14,52.44,1.69,59-.5.22-.07,3.28-2.93,3.5-3,.79-.24,15.63-.22,16.5-1,.93-.83-1.27-1.56,2.25-3,2.31-.95,5.97-.71,8.5-1,2.87-.33,5.63-.34,8.5-.5-.95,2.55,5.14,1.6,2.75,3.5-.84.67-12.81,3.67-14.75,4-12.08,2.07-26.48.93-27.75,1.5-.37.16-3.62,4.18,3.25,4-23.27.25-46.25,0-69.5-1.5,1.95-1.13,5.18.45,2.75-3l-37-3.5c3.88-.74,1.75-2.54,1.75-5.5,8.59.11,17.44.05,26,.5Z"/>
      <path class="cls-11" d="m240.33,409.38c-.04.07.07.75-.5,1.5-8.56-.45-17.41-.39-26-.5-23.54-.29-46.99,1.62-70.5,0-5.68-.8-11.34-1.63-17-2.5-2.23-2.28-1.37-2.29-2-3.5,38.65-.65,77.74-.97,116,5Z"/>
      <path class="cls-11" d="m455.33,405.88l-.5,2c-2.28.21-4.71,1.11-7,1.5-31.76,1.55-63.77-.3-95.5,1.5-2.87.16-5.63.17-8.5.5l.5-1.5c11.97-4.16,24.66-4.54,37.25-5,24.59-.91,49.2,1.06,73.75,1Z"/>
      <path class="cls-2" d="m213.83,410.38c0,2.96,2.13,4.76-1.75,5.5l37,3.5c2.43,3.45-.8,1.87-2.75,3-2.67-.17-5.33-.3-8-.5-31.74-2.35-63.48-7.07-95-11.5,23.51,1.62,46.96-.29,70.5,0Z"/>
      <path class="cls-22" d="m143.33,410.38c31.52,4.43,63.26,9.15,95,11.5.16.54-.33,1.38-.75,1.5-10.08,2.94-103.46-8.91-111.75-14.75-.04-.03.71-.54.5-.75,5.66.87,11.32,1.7,17,2.5Z"/>
      <path class="cls-22" d="m356.83,422.38c30.62-2.51,60.76-7.82,91-13,2.29-.39,4.72-1.29,7-1.5,9.28-.87.45,2.54-2.75,3.5-13.39,4.02-52.14,10.08-66.5,11-9.57.61-19.28-.37-28.75,0Z"/>
      <path class="cls-2" d="m340.33,418.38c-1.46,4.9,2.18,3.48,5.5,4.5-10.02.3-19.96.89-30,1-6.87.18-3.62-3.84-3.25-4,1.27-.57,15.67.57,27.75-1.5Z"/>
      <path class="cls-3" d="m242.83,405.38c1.45.37,3.01,1.19,4.5,1.5,12.83,2.7,30.85,4.04,44,4-1.76,2.74.91.17-.25,3,17.75-.3,35.67-1.02,53.25-4l-.5,1.5c-2.53.29-6.19.05-8.5,1-20.74,1.58-41.45,3.11-62.25,2-5.88-.32-11.88-1.7-17.75-2-5.18-.27-10.34-1.23-15.5-1.5.57-.75.46-1.43.5-1.5.48-.75,2.99-2.15.5-4,.56.15,1.43-.14,2,0Z"/>
      <path class="cls-15" d="m335.33,412.38c-3.52,1.44-1.32,2.17-2.25,3-.87.78-15.71.76-16.5,1-.22.07-3.28,2.93-3.5,3-6.56,2.19-47.92.64-59,.5,4.26-1.5-1.6-3.92,1.25-7.5,5.87.3,11.87,1.68,17.75,2,20.8,1.11,41.51-.42,62.25-2Z"/>
    </g>
  </g>
  <g>
    <path class="cls-1" d="m198.05,228.32c.21-.02.41.05.6.21.19.16.28.39.28.67v7.94c0,.42-.08.77-.24,1.04-.16.27-.47.42-.91.45-9.91.75-14.82,1.18-24.51,2.13-.32.03-.55-.04-.71-.21-.16-.17-.24-.37-.24-.59s.08-.44.24-.64c.16-.2.39-.32.71-.36.48-.05.78-.5.92-1.35.14-.85.21-1.75.21-2.71v-30.74c0-.5,0-1.01.03-1.54.02-.53,0-1-.06-1.42-.06-.42-.17-.75-.33-.99-.16-.24-.42-.3-.77-.18-.32.11-.55.09-.71-.04-.16-.13-.24-.3-.24-.51s.06-.43.18-.68c.12-.25.38-.44.77-.58,3.23-1.12,4.85-1.66,8.11-2.69.28-.09.51-.06.69.08.18.14.27.33.27.57s-.08.48-.24.73c-.16.25-.4.42-.72.51-.36.11-.62.31-.78.6-.16.29-.27.63-.33,1.04-.06.41-.09.84-.09,1.32v38.7c1.51-.15,2.26-.22,3.77-.36,1.32-.12,2.74-.35,4.27-.69,1.53-.34,2.96-.85,4.28-1.54,1.33-.69,2.44-1.61,3.33-2.76.89-1.15,1.33-2.59,1.33-4.31,0-.65.29-1.01.88-1.08Z"/>
    <path class="cls-1" d="m220.67,171.97c.52-.12,1.21.33,2.05,1.38-.95,5.94-1.78,10.02-2.5,12.3-.68.75-1.16,1.15-1.44,1.21-1.04.21-1.7-.57-1.96-2.34v-.22c0-1.16.88-4.73,2.65-10.8.48-.61.72-.92,1.2-1.53Z"/>
    <path class="cls-1" d="m246.71,207.56c0,2.08-.29,3.84-.87,5.26-.58,1.43-1.33,2.58-2.25,3.47-.91.89-1.94,1.57-3.09,2.05-1.14.48-2.27.84-3.39,1.08-1.12.24-2.18.39-3.17.44-.99.05-1.8.11-2.42.16,0,1.5.07,3.11.22,4.84.14,1.72.43,3.32.87,4.8.44,1.48,1.02,2.69,1.77,3.64.75.95,1.72,1.4,2.92,1.35,1.62-.07,2.96-.43,4.02-1.09,1.06-.65,1.9-1.46,2.53-2.41.62-.95,1.07-1.98,1.34-3.08.27-1.1.41-2.16.41-3.16,0-.37.17-.57.5-.59.29-.02.44.16.44.54,0,1.86-.25,3.54-.75,5.02-.5,1.48-1.17,2.74-2,3.77-.83,1.03-1.81,1.82-2.93,2.38-1.12.55-2.34.84-3.61.91-2.13.11-3.98-.28-5.47-1.24-1.49-.96-2.7-2.28-3.63-3.97-.93-1.69-1.62-3.65-2.07-5.91-.45-2.26-.7-4.68-.74-7.27-.04-2.49.23-4.84.8-7.08.58-2.23,1.4-4.21,2.48-5.93,1.07-1.72,2.35-3.13,3.81-4.22,1.47-1.09,3.05-1.74,4.76-1.93,3.11-.36,5.48.25,7.1,1.82,1.62,1.57,2.44,3.7,2.44,6.37Zm-15.19,11.1c.5-.04,1.24-.19,2.24-.42.99-.24,2.01-.74,3.05-1.5,1.04-.76,1.94-1.82,2.71-3.17.77-1.35,1.15-3.19,1.15-5.5s-.28-4.24-.84-5.76c-.56-1.52-1.44-2.21-2.65-2.07-1,.11-1.83.61-2.52,1.47-.68.86-1.23,1.91-1.65,3.15-.41,1.24-.72,2.58-.93,4.03-.21,1.45-.35,2.83-.43,4.15-.08,1.33-.12,2.51-.12,3.54v2.09Z"/>
    <path class="cls-1" d="m270.97,222.45c.34,0,.5.21.5.64,0,1.26-.22,2.65-.66,4.16-.44,1.51-1.08,2.92-1.92,4.22-.84,1.3-1.89,2.39-3.14,3.26s-2.7,1.32-4.33,1.36c-2.09.05-3.9-.38-5.42-1.28-1.52-.9-2.78-2.19-3.76-3.87s-1.7-3.75-2.16-6.21c-.46-2.46-.69-5.21-.69-8.26,0-2.62.32-5.05.97-7.32.65-2.26,1.51-4.24,2.6-5.93,1.09-1.69,2.35-3.05,3.79-4.07,1.44-1.02,2.98-1.59,4.61-1.69,1.71-.11,3.2.1,4.46.64,1.26.53,2.3,1.27,3.14,2.22.84.94,1.47,2.04,1.89,3.28.42,1.24.63,2.52.63,3.83,0,1.48-.25,2.73-.75,3.76-.5,1.03-1.43,1.56-2.77,1.61-.42.02-.87-.09-1.35-.32s-.88-.62-1.19-1.18c-.31-.56-.48-1.3-.5-2.22-.02-.92.22-2.1.72-3.54.25-.72.42-1.52.5-2.39.08-.88-.01-1.66-.28-2.35-.27-.69-.76-1.27-1.48-1.72-.71-.45-1.72-.64-3.01-.56-1.51.09-2.64.77-3.42,2.01-.77,1.24-1.32,2.76-1.63,4.56-.31,1.8-.48,3.75-.5,5.85-.02,2.1-.03,4.04-.03,5.82,0,1.62.04,3.42.12,5.41.08,1.99.31,3.87.69,5.63.38,1.77.94,3.25,1.69,4.44.75,1.19,1.8,1.78,3.14,1.74,1.59-.04,2.95-.42,4.08-1.16,1.13-.73,2.06-1.64,2.79-2.72.73-1.08,1.28-2.25,1.63-3.52.36-1.26.53-2.42.53-3.46,0-.44.17-.66.5-.67Z"/>
    <path class="cls-1" d="m297.65,232.78c.38,0,.64.13.79.38.15.25.22.52.22.83s-.09.58-.28.82c-.19.25-.43.37-.72.37-3.2-.01-4.8-.02-8-.01-.34,0-.59-.12-.76-.37-.17-.25-.25-.52-.25-.83s.07-.58.22-.83c.15-.25.41-.37.79-.37.5,0,.83-.61.98-1.82.15-1.21.22-2.48.22-3.8v-22.56c0-.66-.02-1.29-.06-1.9-.04-.61-.15-1.14-.31-1.61-.17-.47-.45-.85-.85-1.16-.4-.3-.94-.45-1.61-.44-.75,0-1.44.18-2.05.51-.61.34-1.14.74-1.61,1.22-.46.47-.86.99-1.2,1.54-.34.56-.59,1.06-.75,1.5v23.76c.04,1.15.14,2.24.28,3.26.15,1.02.47,1.52.98,1.52.34,0,.59.12.76.37.17.25.25.52.25.82s-.09.58-.28.83c-.19.25-.43.37-.72.38-3.42.02-5.14.04-8.56.08-.34,0-.59-.13-.76-.4-.17-.27-.25-.54-.25-.82,0-.33.08-.62.25-.87.17-.25.42-.38.76-.38.5,0,.83-.59.98-1.74.15-1.15.22-2.39.22-3.71v-42.96c0-.33-.06-.63-.19-.9-.13-.27-.27-.51-.44-.72-.17-.21-.38-.4-.63-.55-.33-.2-.61-.45-.75-.71-.13-.24-.17-.54-.13-.82.04-.27.34-.59.88-.94,1.22-.82,2.38-1.53,3.49-2.12,1.11-.59,1.83-.94,2.11-1.06.37-.16.68-.32.91-.44.23-.12.41-.15.53-.1.13.05.21.23.25.53.04.3.06.78.06,1.44v24.09c.25-.5.61-1.1,1.07-1.79.46-.69,1.04-1.36,1.73-2.01.69-.64,1.51-1.19,2.46-1.64.94-.45,2-.68,3.18-.68,1.26,0,2.26.26,2.99.79.73.53,1.3,1.21,1.7,2.03.4.83.65,1.75.75,2.77.1,1.02.16,2.03.16,3.02v22.55c0,1.32.07,2.59.22,3.8.15,1.21.47,1.82.97,1.82Z"/>
    <path class="cls-1" d="m311.37,196.82c.84.03,1.88.31,3.11.84,1.24.52,2.42,1.52,3.55,3,1.13,1.47,2.1,3.51,2.92,6.1.82,2.59,1.22,6,1.22,10.23v.16c0,4.17-.41,7.49-1.22,9.96-.82,2.47-1.79,4.36-2.92,5.67-1.13,1.31-2.32,2.16-3.55,2.54-1.23.39-2.27.58-3.11.57-.84-.01-1.88-.23-3.11-.66-1.24-.43-2.42-1.32-3.55-2.68-1.13-1.36-2.11-3.31-2.93-5.84-.82-2.54-1.23-5.92-1.23-10.16v-.17c0-4.29.41-7.72,1.23-10.29.82-2.57,1.79-4.55,2.93-5.95,1.13-1.4,2.32-2.31,3.55-2.73,1.24-.42,2.27-.62,3.11-.58Zm4.71,20.09c0-2.29-.03-4.55-.1-6.79-.06-2.24-.25-4.25-.56-6.04-.31-1.79-.79-3.25-1.42-4.4-.63-1.15-1.51-1.75-2.64-1.79-1.13-.05-2.01.48-2.64,1.59-.63,1.1-1.1,2.54-1.41,4.31-.31,1.77-.5,3.77-.57,5.99s-.09,4.46-.09,6.71v.17c0,2.25.03,4.46.09,6.63.06,2.17.25,4.11.57,5.81.31,1.71.79,3.08,1.41,4.13.63,1.05,1.51,1.58,2.64,1.6,1.13.02,2.01-.49,2.64-1.51.63-1.03,1.1-2.38,1.42-4.06.31-1.68.5-3.6.56-5.75.06-2.15.1-4.35.1-6.58Z"/>
    <path class="cls-1" d="m363.33,234.99c.37.02.63.15.77.39.14.23.21.49.21.76s-.09.52-.28.73c-.19.21-.42.31-.71.3-2.42-.14-3.63-.2-6.06-.33-.61-.03-.96-.43-1.04-1.2-.02-1.01-.03-1.52-.05-2.53-.25.4-.57.82-.96,1.29-.39.47-.88.9-1.45,1.31-.58.41-1.26.74-2.04.98-.78.25-1.67.35-2.66.31-.66-.03-1.47-.27-2.42-.73s-1.86-1.37-2.73-2.75c-.87-1.38-1.61-3.29-2.24-5.74-.62-2.45-.93-5.71-.93-9.77s.31-7.22.93-9.64,1.37-4.26,2.24-5.53c.87-1.27,1.78-2.08,2.74-2.44.95-.36,1.76-.5,2.43-.41,1.03.13,1.95.4,2.73.81.78.41,1.47.88,2.05,1.42.58.54,1.06,1.09,1.46,1.65.39.56.71,1.06.96,1.5v-15.86c0-.31-.06-.6-.19-.87-.12-.28-.27-.53-.43-.76-.17-.23-.37-.45-.62-.64-.33-.26-.6-.54-.74-.82-.13-.26-.16-.54-.12-.79.04-.25.33-.48.87-.7,1.19-.51,2.33-.92,3.41-1.22,1.08-.3,1.77-.47,2.05-.52.36-.07.66-.15.89-.2.22-.06.4-.05.52.03.12.07.2.26.24.54.04.29.06.73.06,1.33v5.66c0,6.49,0,11.95-.03,16.37-.02,4.42-.03,8.07-.03,10.96v11.72c0,.6.01,1.22.03,1.85.02.63.07,1.21.15,1.74.08.53.2.97.37,1.3.16.34.37.51.62.53Zm-12.44.53c.75.04,1.41-.09,1.99-.37.58-.28,1.08-.65,1.52-1.11.43-.46.79-.98,1.08-1.55.29-.57.53-1.1.74-1.6.03-9.35.04-14.03.06-23.38-.21-.59-.46-1.2-.77-1.82-.31-.63-.68-1.23-1.12-1.79-.43-.57-.94-1.04-1.52-1.43-.58-.38-1.24-.62-1.99-.71-.99-.12-1.76.29-2.3,1.25-.54.95-.94,2.24-1.21,3.85-.27,1.61-.43,3.44-.5,5.47-.06,2.03-.09,4.06-.09,6.1s.03,4.06.09,6.08c.06,2.01.23,3.84.5,5.47.27,1.63.68,2.96,1.21,3.97.54,1.01,1.31,1.54,2.3,1.59Z"/>
    <path class="cls-1" d="m387.07,214.04c0,1.81-.28,3.27-.85,4.39-.57,1.12-1.3,1.98-2.19,2.58-.89.6-1.9,1.01-3.01,1.22-1.12.21-2.23.32-3.33.33-1.1,0-2.14-.06-3.12-.2-.98-.14-1.78-.24-2.39-.31,0,1.42.07,2.96.22,4.61.14,1.65.43,3.21.86,4.66.43,1.45,1.01,2.67,1.75,3.65.74.98,1.69,1.5,2.87,1.59,1.59.12,2.9-.06,3.93-.52,1.03-.46,1.86-1.07,2.46-1.83.61-.76,1.04-1.61,1.31-2.54.26-.93.39-1.83.39-2.71,0-.32.16-.47.49-.43.28.03.42.21.42.54,0,1.62-.24,3.04-.73,4.27-.49,1.23-1.13,2.25-1.94,3.07-.81.82-1.76,1.41-2.86,1.79-1.1.38-2.29.51-3.54.44-2.09-.12-3.91-.67-5.38-1.74-1.47-1.08-2.67-2.49-3.59-4.24-.92-1.75-1.61-3.77-2.06-6.04-.45-2.28-.7-4.69-.74-7.24-.04-2.44.23-4.69.8-6.73.57-2.04,1.39-3.74,2.46-5.11,1.07-1.36,2.32-2.35,3.77-2.95,1.45-.6,3.01-.74,4.68-.42,3.05.57,5.37,1.82,6.94,3.65,1.58,1.83,2.37,3.89,2.37,6.21Zm-14.88,6.73c.49.06,1.23.07,2.21.05.98-.03,1.98-.29,3-.78,1.02-.49,1.9-1.26,2.66-2.32.75-1.06,1.13-2.62,1.13-4.7s-.27-3.88-.82-5.41c-.55-1.52-1.41-2.41-2.59-2.63-.98-.18-1.81.03-2.48.64-.67.61-1.21,1.44-1.62,2.49-.41,1.05-.71,2.24-.92,3.55-.2,1.31-.35,2.59-.43,3.82-.08,1.24-.12,2.34-.12,3.32v1.98Z"/>
    <path class="cls-1" d="m399.2,221.53c1.36.88,2.75,1.8,4.16,2.69s2.68,1.81,3.79,2.76c1.11.95,2.02,1.95,2.73,3.02.71,1.07,1.07,2.23,1.07,3.51,0,1.61-.34,2.87-1.01,3.8-.67.94-1.51,1.65-2.53,2.13-1.01.49-2.13.78-3.37.88-1.24.1-2.39.11-3.47.01-1-.09-2.11-.34-3.33-.75-1.22-.41-2.38-.99-3.46-1.74s-1.99-1.66-2.72-2.73c-.73-1.07-1.09-2.28-1.09-3.61,0-.91.15-1.71.45-2.38.3-.67.69-1.2,1.18-1.59.48-.39,1.02-.59,1.6-.6.58,0,1.18.19,1.78.58.6.4,1.02.85,1.26,1.34.24.5.36,1,.36,1.51s-.12,1.01-.36,1.49c-.24.48-.56.92-.96,1.32-.52.52-.71,1.11-.57,1.75.14.64.5,1.24,1.08,1.79.58.55,1.29,1.03,2.13,1.44.84.41,1.72.66,2.64.74,1.56.15,2.83-.1,3.83-.72,1-.62,1.61-1.42,1.85-2.41.24-.99.03-2.09-.63-3.32-.65-1.23-1.88-2.41-3.67-3.54-.92-.57-2.02-1.24-3.3-2.03-1.28-.79-2.51-1.7-3.67-2.75s-2.17-2.23-3.02-3.52c-.85-1.29-1.27-2.75-1.27-4.34,0-2.78.81-4.87,2.42-6.2,1.61-1.33,4.1-1.58,7.46-.76,1.56.38,2.92.95,4.1,1.69,1.17.74,2.16,1.54,2.95,2.38.79.85,1.39,1.71,1.78,2.6.39.88.59,1.67.59,2.38,0,.99-.13,1.78-.39,2.37-.26.59-.59,1.02-1.01,1.29-.42.27-.87.4-1.37.39-.5-.01-.96-.17-1.4-.46-1.03-.62-1.65-1.49-1.85-2.6-.2-1.11.22-2.12,1.25-3,.48-.4.77-.87.86-1.39.1-.53-.03-1.07-.39-1.65-.36-.57-.95-1.12-1.79-1.65-.84-.53-1.95-.96-3.35-1.29-1.84-.44-3.19-.26-4.05.52-.86.79-1.32,1.85-1.36,3.16-.04,1.31.29,2.69.99,4.11.7,1.42,1.73,2.55,3.03,3.4Z"/>
    <path class="cls-1" d="m216.65,300.32c0,1.94-.29,3.53-.86,4.74-.57,1.21-1.31,2.13-2.21,2.76-.9.63-1.91,1.03-3.04,1.21-1.12.18-2.24.24-3.34.19-1.1-.05-2.14-.18-3.12-.38-.97-.2-1.77-.36-2.38-.48,0,1.38.07,2.87.21,4.49.14,1.62.43,3.16.85,4.64.43,1.47,1.01,2.75,1.74,3.83.73,1.08,1.69,1.75,2.87,2.02,1.59.36,2.91.36,3.95.02,1.04-.34,1.87-.89,2.49-1.63.61-.74,1.05-1.6,1.32-2.56.27-.96.4-1.92.4-2.86,0-.35.16-.49.49-.44.29.05.43.25.43.6,0,1.74-.25,3.25-.74,4.52-.49,1.27-1.15,2.29-1.97,3.05-.82.76-1.78,1.26-2.89,1.49-1.1.23-2.3.18-3.55-.1-2.09-.46-3.91-1.33-5.37-2.64-1.46-1.3-2.65-2.86-3.56-4.67s-1.59-3.8-2.03-5.98c-.45-2.18-.69-4.45-.73-6.81-.04-2.27.22-4.33.79-6.21.57-1.87,1.38-3.46,2.43-4.76,1.05-1.3,2.3-2.28,3.74-2.93,1.44-.65,3-.89,4.67-.7,3.06.35,5.39,1.38,6.99,3.17,1.6,1.78,2.4,3.93,2.4,6.42Zm-14.94,6.79c.49.09,1.22.15,2.19.19.98.03,1.97-.18,2.99-.63,1.02-.45,1.91-1.22,2.66-2.29.75-1.07,1.13-2.69,1.13-4.84s-.28-3.99-.83-5.52c-.55-1.53-1.42-2.35-2.6-2.49-.98-.11-1.8.15-2.48.79-.67.63-1.21,1.47-1.62,2.51-.41,1.04-.71,2.19-.91,3.47-.2,1.27-.35,2.5-.43,3.7-.08,1.19-.12,2.26-.12,3.21v1.92Z"/>
    <path class="cls-1" d="m240.62,318.5c.33.04.5.27.5.69,0,1.21-.22,2.52-.65,3.91-.44,1.39-1.07,2.65-1.9,3.77-.83,1.12-1.87,2-3.11,2.62-1.24.62-2.67.8-4.29.54-2.07-.34-3.85-1.1-5.36-2.25-1.51-1.15-2.74-2.63-3.71-4.41s-1.68-3.88-2.13-6.29c-.45-2.41-.68-5.03-.68-7.89,0-2.45.32-4.68.96-6.68.64-2,1.49-3.71,2.56-5.11,1.07-1.4,2.32-2.48,3.74-3.22,1.42-.74,2.94-1.05,4.56-.92,1.7.14,3.17.53,4.41,1.2,1.24.67,2.28,1.5,3.11,2.51.83,1.01,1.45,2.13,1.87,3.37.42,1.24.62,2.5.62,3.76,0,1.42-.25,2.6-.75,3.53-.5.93-1.41,1.32-2.74,1.19-.42-.04-.86-.2-1.34-.49-.48-.28-.87-.72-1.18-1.29-.31-.58-.48-1.31-.5-2.2-.02-.89.22-1.98.72-3.29.25-.65.41-1.39.5-2.22.08-.83-.01-1.59-.28-2.29-.27-.7-.76-1.31-1.46-1.83-.7-.52-1.7-.83-2.98-.94-1.49-.12-2.61.35-3.38,1.4-.77,1.06-1.3,2.41-1.61,4.06-.31,1.65-.47,3.47-.5,5.45-.02,1.98-.03,3.82-.03,5.5,0,1.53.04,3.24.12,5.14.08,1.9.31,3.71.68,5.46.37,1.74.93,3.25,1.67,4.52.74,1.27,1.78,2.02,3.1,2.23,1.57.25,2.92.11,4.04-.4,1.12-.51,2.04-1.24,2.77-2.16.73-.92,1.27-1.97,1.62-3.14.35-1.16.53-2.25.53-3.25,0-.42.17-.61.5-.57Z"/>
    <path class="cls-1" d="m253.99,294.64c.83.04,1.87.32,3.1.83,1.23.51,2.42,1.5,3.54,2.96,1.13,1.46,2.1,3.48,2.92,6.07.82,2.59,1.22,6.01,1.22,10.26v.16c0,4.19-.41,7.51-1.22,9.96-.82,2.45-1.79,4.29-2.92,5.53-1.13,1.24-2.31,2-3.54,2.29-1.23.29-2.27.39-3.1.31-.84-.08-1.87-.39-3.1-.93-1.23-.53-2.41-1.52-3.53-2.95-1.12-1.43-2.09-3.41-2.9-5.94-.81-2.53-1.22-5.82-1.22-9.89v-.16c0-4.12.4-7.39,1.22-9.82.81-2.43,1.78-4.3,2.9-5.61,1.12-1.31,2.3-2.17,3.53-2.55,1.23-.39,2.26-.57,3.1-.52Zm4.7,19.92c0-2.27-.03-4.52-.09-6.74-.06-2.22-.25-4.22-.56-5.99-.31-1.77-.78-3.23-1.41-4.36-.63-1.13-1.5-1.73-2.63-1.79s-2,.45-2.63,1.51c-.63,1.06-1.1,2.45-1.41,4.17-.31,1.72-.5,3.65-.56,5.81-.06,2.16-.09,4.33-.09,6.52v.16c0,2.19.03,4.34.09,6.46.06,2.12.25,4.02.56,5.7.31,1.69.78,3.08,1.41,4.16.63,1.08,1.5,1.68,2.63,1.8,1.13.11,2-.32,2.63-1.29.63-.97,1.1-2.28,1.41-3.93.31-1.65.5-3.54.56-5.67.06-2.13.09-4.3.09-6.52Z"/>
    <path class="cls-1" d="m276.85,331.65c.34.01.59.14.76.4.17.25.25.53.25.83s-.09.57-.28.81c-.19.24-.43.36-.72.34-3.42-.13-5.13-.22-8.55-.43-.34-.02-.59-.16-.75-.42-.17-.25-.25-.53-.25-.83s.08-.57.25-.8c.17-.24.42-.34.75-.32.33.02.58-.39.72-1.23.15-.84.27-1.81.34-2.89.09-1.24.1-2.67.06-4.26v-39.98c0-.33-.06-.62-.19-.86-.13-.25-.27-.48-.44-.7-.17-.22-.36-.5-.57-.67-.29-.24-.67-.48-.82-.75-.13-.25-.16-.55-.09-.82.06-.27.34-.57.85-.89,1.21-.74,2.38-1.37,3.49-1.88,1.11-.5,1.85-.8,2.17-.92.37-.14.67-.29.88-.4.21-.11.38-.13.5-.08.13.06.21.22.25.5.04.28.06.74.06,1.4v6.17c.02,13.74.04,27.48.06,41.22v2.18c0,.85.03,1.66.09,2.43.06.77.19,1.43.38,1.99.19.56.45.84.79.85Z"/>
    <path class="cls-1" d="m290,295.56c.84,0,1.88.24,3.12.7,1.24.47,2.43,1.41,3.56,2.83,1.13,1.42,2.11,3.42,2.93,6,.82,2.58,1.23,6.01,1.23,10.3v.17c0,4.24-.41,7.63-1.23,10.17-.82,2.55-1.79,4.5-2.93,5.87-1.13,1.36-2.32,2.25-3.56,2.67-1.24.42-2.28.62-3.12.62-.84,0-1.88-.22-3.12-.65-1.24-.43-2.42-1.33-3.56-2.7-1.13-1.37-2.11-3.33-2.93-5.88-.82-2.55-1.23-5.94-1.23-10.17v-.17c0-4.28.41-7.71,1.23-10.28.82-2.57,1.79-4.56,2.93-5.98,1.13-1.42,2.32-2.36,3.56-2.82,1.24-.46,2.28-.69,3.12-.69Zm4.72,20.07c0-2.31-.03-4.6-.1-6.86-.06-2.26-.25-4.28-.57-6.07-.31-1.79-.79-3.25-1.42-4.38-.63-1.13-1.51-1.69-2.64-1.69s-2.01.56-2.64,1.68c-.63,1.13-1.1,2.58-1.42,4.37-.31,1.79-.5,3.79-.57,6.02-.06,2.23-.09,4.47-.09,6.73v.17c0,2.26.03,4.47.09,6.65.06,2.18.25,4.12.57,5.83.31,1.71.79,3.1,1.42,4.15.63,1.05,1.51,1.59,2.64,1.59s2.01-.52,2.64-1.57c.63-1.05,1.1-2.43,1.42-4.14.31-1.71.5-3.65.57-5.83.06-2.17.1-4.39.1-6.65Z"/>
    <path class="cls-1" d="m328.97,291.84c.08.64.03,1.21-.16,1.7-.19.49-.47.87-.85,1.13-.37.26-.79.4-1.26.42s-.97-.14-1.45-.5c-.59-.44-1.04-.52-1.33-.19-.3.34-.49.79-.57,1.36-.08.57-.12,1.18-.1,1.83s.03,1.05.03,1.22c2.32,2.87,3.48,6.66,3.48,11.4,0,2.43-.35,4.74-1.04,6.95-.7,2.21-1.85,4.24-3.45,6.09,1.09.63,2.04,1.73,2.85,3.32.82,1.58,1.34,3.4,1.57,5.45.23,2.05.11,4.22-.34,6.5-.46,2.28-1.44,4.48-2.94,6.57-1.01,1.4-2.2,2.55-3.58,3.47-1.38.91-2.81,1.55-4.28,1.91-1.47.36-2.94.43-4.4.22-1.47-.21-2.77-.74-3.9-1.59-1.13-.85-2.06-2.02-2.77-3.5-.71-1.48-1.07-3.33-1.07-5.53,0-.82.1-1.71.28-2.65.19-.94.5-1.9.94-2.87s1.02-1.9,1.73-2.78c.71-.88,1.64-1.63,2.7-2.29.84-.51,1.67-.83,2.48-.89.82-.07,1.54.05,2.17.34.63.29,1.14.76,1.54,1.39.4.63.6,1.36.6,2.17,0,.65-.11,1.33-.34,2.03-.23.7-.59,1.28-1.07,1.75-.48.47-1.07.74-1.76.8-.69.07-1.5-.2-2.42-.81-.46-.3-1.03-.54-1.7-.7-.67-.16-1.31-.15-1.92.04-.61.19-1.12.62-1.54,1.3s-.63,1.72-.63,3.15c0,2.09.46,3.72,1.38,4.89.92,1.17,2.12,1.81,3.59,1.92,1.47.11,3.1-.37,4.9-1.45,1.8-1.08,3.56-2.81,5.27-5.17.96-1.33,1.73-2.8,2.29-4.42.56-1.62.92-3.21,1.07-4.76s.09-2.96-.19-4.21c-.27-1.25-.76-2.15-1.47-2.7-.88.82-1.84,1.47-2.89,1.94-1.05.47-2.07.74-3.08.8-1.22.07-2.5-.19-3.87-.78-1.36-.59-2.61-1.54-3.74-2.84-1.13-1.3-2.05-2.96-2.77-4.97-.71-2.01-.94-4.45-.94-7.06,0-2.61.24-5.06.98-7.11.73-2.05,1.67-3.75,2.8-5.12,1.13-1.37,2.37-2.4,3.71-3.09,1.34-.69,2.62-1.06,3.84-1.09,1.09-.03,2.22.19,3.4.66,1.17.47,2.28,1.21,3.33,2.19.21-2.07.55-3.72,1.01-4.96.46-1.24,1.18-2.17,2.15-2.8.29-.17.64-.3,1.04-.36.4-.07.78-.03,1.13.12.35.15.68.39.97.73.29.34.48.83.56,1.47Zm-13.61,33.89c1.13-.06,2.02-.65,2.67-1.75.65-1.1,1.13-2.42,1.44-3.96.31-1.54.51-3.17.6-4.89.08-1.72.13-3.23.13-4.53,0-1.03-.03-2.39-.1-4.07-.06-1.68-.24-3.3-.53-4.87-.29-1.56-.78-2.9-1.45-4.02-.67-1.12-1.59-1.66-2.76-1.62-3.23.1-4.84,5.09-4.84,15s1.61,14.89,4.84,14.71Z"/>
    <path class="cls-1" d="m353.59,326.93c.33-.05.58.02.74.23.16.2.25.46.25.77s-.09.59-.28.85c-.19.26-.42.42-.71.47-2.46.41-3.69.6-6.15.97-.29.04-.53-.04-.71-.25-.19-.21-.3-.46-.34-.77v-4.62c-.21.45-.53,1.05-.96,1.82-.44.77-1.02,1.55-1.74,2.36-.73.81-1.58,1.53-2.55,2.16-.98.63-2.09,1.02-3.34,1.18-1.25.15-2.24,0-2.97-.45-.73-.45-1.29-1.07-1.69-1.86-.4-.79-.65-1.68-.75-2.69-.1-1-.16-1.99-.16-2.96v-21.52c0-.32-.06-.61-.19-.87s-.27-.49-.44-.7c-.17-.2-.36-.38-.56-.53-.37-.19-.67-.42-.81-.68-.13-.24-.16-.53-.09-.8.06-.27.35-.6.85-.93.61-.41,1.24-.81,1.84-1.19.6-.38,1.17-.74,1.69-1.06.52-.32.97-.59,1.34-.8.37-.21.62-.34.75-.4.58-.35.92-.4,1.03-.14.1.26.16.73.16,1.42v27.63c0,.64.02,1.26.06,1.86.04.61.15,1.15.31,1.64.17.49.44.85.81,1.1.37.25.91.33,1.62.24.87-.11,1.63-.4,2.28-.88.64-.48,1.2-1.02,1.68-1.64.48-.61.86-1.23,1.15-1.84.29-.61.52-1.14.68-1.58v-20.92c0-.31-.06-.59-.19-.85-.12-.25-.27-.48-.44-.67-.17-.19-.35-.36-.56-.5-.37-.18-.67-.4-.81-.64-.13-.23-.15-.51-.09-.78.06-.27.34-.58.84-.93,1.25-.83,2.42-1.59,3.51-2.27,1.1-.68,1.79-1.09,2.08-1.21.71-.37,1.16-.48,1.37-.34.21.14.31.65.31,1.52v26.54c.04,1.23.1,2.19.19,2.87.08.68.21,1.31.37,1.87.16.57.37.83.62.79Z"/>
    <path class="cls-1" d="m378.52,298.71c0,1.87-.28,3.47-.85,4.81-.57,1.34-1.3,2.47-2.2,3.37-.9.9-1.91,1.63-3.03,2.18-1.13.55-2.24,1-3.35,1.32-1.11.33-2.15.55-3.14.68-.98.13-1.79.24-2.4.33,0,1.46.07,3.02.22,4.68.14,1.66.43,3.18.86,4.56.43,1.38,1.02,2.47,1.76,3.27.74.8,1.7,1.08,2.89.84,1.6-.33,2.92-.89,3.96-1.67,1.04-.78,1.87-1.66,2.48-2.64.61-.98,1.05-1.98,1.32-3.03.27-1.04.4-2.02.4-2.93,0-.34.16-.54.49-.6.28-.06.43.08.43.42,0,1.68-.24,3.22-.73,4.65-.49,1.43-1.14,2.68-1.96,3.77-.82,1.09-1.78,2-2.88,2.71-1.1.71-2.31,1.2-3.56,1.48-2.11.47-3.94.39-5.42-.33-1.48-.72-2.69-1.86-3.61-3.42-.93-1.56-1.62-3.46-2.07-5.68-.45-2.22-.7-4.64-.74-7.23-.04-2.49.23-4.86.8-7.09.58-2.23,1.4-4.18,2.47-5.86,1.07-1.68,2.34-3.03,3.79-4.05,1.46-1.02,3.03-1.61,4.71-1.78,3.07-.32,5.4.22,6.99,1.6,1.59,1.38,2.38,3.24,2.38,5.64Zm-14.97,11.37c.49-.07,1.23-.26,2.22-.55.99-.3,1.99-.85,3.01-1.65,1.02-.8,1.91-1.86,2.67-3.17.76-1.31,1.14-3.04,1.14-5.19s-.28-3.92-.83-5.32c-.55-1.4-1.42-2.05-2.61-1.92-.98.1-1.82.56-2.49,1.38-.68.82-1.22,1.82-1.63,3.02-.41,1.19-.72,2.49-.92,3.9-.21,1.4-.35,2.75-.43,4.04-.08,1.29-.12,2.44-.12,3.44v2.03Z"/>
    <path class="cls-1" d="m390.73,302.17c1.36.4,2.77.82,4.19,1.19,1.43.37,2.7.82,3.82,1.36,1.12.53,2.04,1.21,2.76,2.02.72.82,1.08,1.89,1.08,3.22,0,1.68-.34,3.15-1.02,4.4-.68,1.26-1.53,2.35-2.55,3.26-1.02.91-2.15,1.67-3.4,2.25-1.24.58-2.41,1.03-3.5,1.33-1.01.28-2.13.43-3.36.44s-2.39-.19-3.49-.59c-1.09-.4-2.01-1.04-2.74-1.9-.73-.87-1.1-1.99-1.1-3.37,0-.95.15-1.82.46-2.62.3-.8.7-1.48,1.19-2.05.49-.57,1.02-.96,1.61-1.17.59-.21,1.19-.22,1.79-.02.61.2,1.03.51,1.27.94.24.43.36.91.36,1.44s-.12,1.09-.36,1.67c-.24.59-.57,1.16-.97,1.72-.53.73-.72,1.4-.58,2.02.14.62.51,1.11,1.09,1.47.58.36,1.3.6,2.15.72.85.12,1.73.05,2.66-.2,1.57-.43,2.85-1.18,3.86-2.21,1-1.04,1.62-2.12,1.86-3.24.24-1.12.03-2.19-.63-3.22-.66-1.03-1.89-1.77-3.7-2.25-.93-.24-2.03-.52-3.32-.86-1.29-.34-2.52-.85-3.7-1.52-1.17-.67-2.19-1.54-3.04-2.58-.85-1.05-1.28-2.41-1.28-4.06,0-2.88.81-5.31,2.43-7.27,1.62-1.95,4.13-3.12,7.51-3.59,1.57-.22,2.95-.17,4.13.12,1.18.29,2.18.71,2.97,1.26.8.55,1.4,1.2,1.8,1.96s.6,1.5.6,2.23c0,1.04-.13,1.92-.39,2.64-.26.73-.6,1.32-1.02,1.77-.42.46-.88.78-1.38.97-.5.19-.97.22-1.41.09-1.04-.23-1.66-.89-1.86-1.97-.2-1.08.22-2.3,1.26-3.63.48-.62.77-1.22.87-1.81.1-.59-.03-1.11-.39-1.56-.36-.45-.96-.78-1.8-.99-.84-.21-1.97-.21-3.38-.01-1.85.26-3.22.95-4.08,2.09-.87,1.14-1.32,2.4-1.36,3.78-.04,1.38.29,2.68,1,3.9.71,1.22,1.74,2.01,3.06,2.4Z"/>
  </g>
  <g>
    <path class="cls-29" d="m44,30c.33.32.64.66,1,1,3.13,2.94,6.25,5.27,9.5,8,4.32,3.62,8.49,6.67,13,10,.16.12.85.96,3,2.5,12.23,8.78,20.47,13.43,33,21-2.4,3.96-9.08-1.23-13.75-1-1.29.92-.17,1.01-.25,1.5-.92-.46-2.16-.28-3-.5-23.18-13.78-43.63-32.25-67-45.25,11.17,8.97,22.78,17.46,35,25-.46,1.32-23.71-10.3-25.5-11.25-4.1-2.18-17.52-9.67-20-12C7.94,28,.07,17.51,0,16.75c-.09-.99,1.76-3.49,2.5-4.25,4.44,4.77,10.72,10.53,16.75,13-4.16-5.25-9.5-9.38-13.25-15C1.33,3.49.41,2.76,5.25,0l25,25c-.27-2.57-15.55-19.84-8-18.5,1.58.28,11.75,13.94,21.75,23.5Z"/>
    <path class="cls-29" d="m29,54c5.65,2.51,11.32,4.62,17,7,6.94,2.9,14.08,5.18,21,8,12.94,5.28,17.88,7.22,5,4.5-5.86-1.24-11.7-3-17.5-4.5-7.82-2.02-28.61-7.29-34-10-1.09-.55-6.33-5.24-9.5-6-.2-1.12-1.49-7.43-.75-8,6.3,2.85,12.43,6.19,18.75,9Z"/>
    <path class="cls-10" d="m20.5,60.5c1.27.47,13.57,7.43,14,6.25.1-.28-3.58-2.57-.75-2.25,1.08.12,9.76,3.52,20.75,6.5,6.03,1.64,11.89,3.13,18,4.5.13.03-.23.43,2.5,1-3.33,1.48,9.21,4.72,4.75,4.5-5.07-.25-11.81-2.74-17-3.5-8.72-1.28-20.41-1.58-27.75-3-.64-.12-1.63.07-3.5-.5-.69-.21-11.91-6.52-12.5-7-.14-.11-.82-1.33-1-1.5.73-4.97-3.58-7.23,2.5-5Z"/>
    <path class="cls-29" d="m8.5,30c1.52.53,16.58,12.47,21.5,14,1.72,1.8,16.6,9.79,20,11.5-13.95.88,18.92,7.8,20.5,11.5-1.34-.51-2.66-1-4-1.5-6.46-2.41-13.08-4.52-19.5-7-5.59-2.16-11.53-4.09-17-6.5-13.18-5.8-18.96-9.4-27-22.75,1.47.56,4.2.3,5.5.75Z"/>
    <path class="cls-35" d="m44.5,244.5c-2.92,2.06-12.53,16.97-13.5,17.5-1.94,1.05-4.68.02-6.5-1,6.21-6.5,13.36-11.99,20-18v1.5Z"/>
    <path class="cls-37" d="m6,10.5c3.75,5.62,9.09,9.75,13.25,15-6.03-2.47-12.31-8.23-16.75-13,1.01-1.03,2.15-1.61,3.5-2Z"/>
    <path class="cls-14" d="m47,58.5l-1,2.5c-5.68-2.38-11.35-4.49-17-7l1-2c5.47,2.41,11.41,4.34,17,6.5Z"/>
    <path class="cls-19" d="m29,41c-.99,1.09.14,2.1,1,3-4.92-1.53-19.98-13.47-21.5-14l.5-1c2.48,2.33,15.9,9.82,20,12Z"/>
    <path class="cls-29" d="m74,118.5c-16.13,8-.2,2.34,7.75,4l3.75-3.5c2.37,1.87-4.41,3.45,2.75,4,8.85-4.34.31,1.19,2.5,2,1.57.58,6.42-.05,6.75,0,2.44.35,2.64.79,1.5,2.5-5.42,2.45-13.32,6.41-17.5,10.5-.8.13-1.47,1.27-4.5,0-.05-.61,3.41-3.43,4-4.25l-5.75,1.25c-3.74-6-9.54-1.81,1.25-7.75-24.23-2.27-9.4-6.46-9.5-7.5-2.44-1.05-9.68-2.24-11.25-3.75-5.09-4.89,6.6-2.79-1.75-6,6.19-1.27,5.12,2.29,5.75,2.5l39.5-2.5c-9.43,2.54-16.49,4.16-25.25,8.5Z"/>
    <path class="cls-8" d="m97.5,125c-.33-.05-5.18.58-6.75,0-2.19-.81,6.35-6.34-2.5-2-7.16-.55-.38-2.13-2.75-4-5.41-4.28-6.74,1.15-11.5-.5,8.76-4.34,15.82-5.96,25.25-8.5l-39.5,2.5c-.63-.21.44-3.77-5.75-2.5-1.37-.53-2.62-.88-4-1.5,17.07.32,34.09-1.69,51-4,3.62,5.2,1.82,5.01,2,5.25.47.62,3.03-.41,3,1.5-.01.82-8.87,9.19-8.5,13.75Z"/>
    <path class="cls-29" d="m29.5,75c7.22,2.71,13.23,6.32,21.25,8.5,7.91,2.15,16.64,3.23,24.75,4.5,5.86.92,16.23,1.23,13.25,3-1.69,1-35.07.78-39.25.5-2.88-.19-6.05-1.35-9-1.5l-.5-1-17-15.75c.36-.77,5.71,1.45,6.5,1.75Z"/>
    <path class="cls-10" d="m40,89l.5,1-1,.25c2.41,1.07,4.98,1.83,7.5,2.75,18.52,6.78,28.05,2.47,47,3,.02.03.14.04.5.5-15.99,1.63-27.49,1.61-43,7l-1.5-1c5.7-2.69-2.47-1.26-10.75-7-4.96-3.44-8.02-7.62.75-6.5Z"/>
    <path class="cls-12" d="m35,74.5c-.14.58.26,1.29.75,1.5,4.65,1.98,39.85,8.84,40.75,10.75.09.19-1.38.08-1,1.25-8.11-1.27-16.84-2.35-24.75-4.5-8.02-2.18-14.03-5.79-21.25-8.5l2-1c1.87.57,2.86.38,3.5.5Z"/>
    <path class="cls-4" d="m50,102.5l1.5,1c-1.17.41-2.76.86-3.75,1.5,17.35.41,35.18,2,52.25-1.5.04.06.42.17,1,1-16.91,2.31-33.93,4.32-51,4-8.03-3.63-6.36-3,0-6Z"/>
    <path class="cls-8" d="m95,146c.03-.77-.68-.39-1-.5-2.29-.81-3.62-.08-2.25-1.5.44-.46,9.34-5.77,11-6.5-2.49,7.26,3.06,5.51-2,7.5-.27.11-4.91.71-5.75,1Z"/>
    <path class="cls-21" d="m128,164.5c.59-.14,1.41.14,2,0l4.5,4c-24.24,8.31-34.77,17.33-51.5,35.5,11.76-20.31,20.97-33.76,45-39.5Z"/>
    <path class="cls-31" d="m173,157.5c-12.12,5.18-25.96,6.7-38.5,11l-4.5-4c10.23-2.35,20.83-2.98,30.5-7.5,6.44,1.18,10.65-.37,12.25-.5.4-.03.2,1.01.25,1Z"/>
    <path class="cls-12" d="m44.5,244.5v-1.5c7.22-6.54,19.95-17.9,26-24.25,4.43-4.65,8.14-10.01,12.5-14.75-10.49,16.33-24.32,29.7-38.25,43l-.25-2.5Z"/>
    <g>
      <path class="cls-29" d="m246,99c.37.78.36,3.71.75,4,7.61-4.52,10.44-2.66,18.75-.75-14.09,3.93-15.2,2.37-26.25,11.75-22.5,19.1-27.89,39.92-47.5,56-14.39,11.8-31.79,18.23-48.75,25.25,6.84,4.73,26.72,5.9,22.5,18-1.71,4.9-2.84-2.53-4.25,6.75-3.32-1.28-4.11,6.21-4.5-2.5-11.95,7.96-19.34-5.98-4.25-12.5,1.56-.68,3.59-.54,4.75-2-2.04.27-17.61-8.9-16.75-3.25.07.49,2.84,1.91,3.5,2.25-10.05-5.07-15.05,10.14-12.25-2-3.7-.05-11.19-3.85-14-3.5-1.11.14-19.11,9.32-20,10-2.61,2.01-33.83,42.48-42.25,50.5-2.38,2.27-5.93,4.48-8.25,7l-.75-.75c3.46-5.13,6.24-10.82,10-15.75,4.38-5.73,17.37-18.95,24.5-27.5,3.46-4.14,3.05-3.28-.5,0-10.8,9.98-18.51,20.84-24.5,27-2.14,2.21-18.44,17.74-19.75,18-.66.13-5.23-1.66-5.25-3,.97-.53,10.58-15.44,13.5-17.5l.25,2.5c13.93-13.3,27.76-26.67,38.25-43,16.73-18.17,27.26-27.19,51.5-35.5,12.54-4.3,26.38-5.82,38.5-11,1.99-.24.89.08,2.5-1,.47-.32,2.39.79,2-1.25-8.16-10.37-.65-10.36,0-10.75-.68,2.81,4.45,14.28,7,9.25,2.26-4.45-.2-12.94,4.75-.75.41.02,3.12-6.67,3.25-7.5,2.06-3.2,1.82.18,3-.75,3.25-4.72.28-4.55.5-6,.15-.97,10.84-13.32,12.5-15l-4.5-.25c2.86-1.5,5.81-4.33,9.25-3,3.87-3.28,8.42-5.91,12.75-8.5,3.52-2.1,7.89-3.32,10.75-6.5-9.73.79-19.33,4.03-29,5-15.62,1.56-15.89,1.06-11.25-4.25,7.58-8.68,14.58-8.59,24.75-11.25,8.16,1.96,16.25,4.43,24.75,4Z"/>
      <g>
        <path class="cls-6" d="m56.5,247.5l-.5-.5c5.99-6.16,13.7-17.02,24.5-27h.5c-7.13,8.55-20.12,21.77-24.5,27.5Z"/>
        <path class="cls-6" d="m49.25,250c-.54,2.14-11.45,13.21-12.25,11.75l12.25-11.75Z"/>
        <g>
          <path class="cls-18" d="m152.5,205c-2.79-1.28-5.74-1.56-8.5-3-.66-.34-3.43-1.76-3.5-2.25-.86-5.65,14.71,3.52,16.75,3.25-1.16,1.46-3.19,1.32-4.75,2Z"/>
          <g>
            <path class="cls-28" d="m149,217c-1.21-2.04-.29-3.66.5-5.5l7.75-.5,5-5.5c7.8,7.01-5.46,13.36-13.25,11.5Z"/>
            <path class="cls-35" d="m149.5,211.5c-.79,1.84-1.71,3.46-.5,5.5-3.99-.95-3.47-5.41.5-5.5Z"/>
          </g>
        </g>
        <path class="cls-27" d="m217.75,99.5c.3-.1,3.6-.1,4,0,9.83,2.48-9.45,1.76-4,0Z"/>
        <path class="cls-36" d="m58.25,248c.34.13.34.95.25,1.25-.61,2.01-8.11,8.38-.25-1.25Z"/>
        <path class="cls-30" d="m81,220h-.5c3.55-3.28,3.96-4.14.5,0Z"/>
      </g>
    </g>
    <path class="cls-8" d="m75,76.5c1.76.37,3.66.55,5.25,1.5,1.4-4.14,5.54-.45,8,.5.27.11.69-1.03.75-1,6.09,2.72,6.58,8.36,1,12.25-.23,1.36,3.06,5.02,4,6.25-18.95-.53-28.48,3.78-47-3l2.5-1.5c4.18.28,37.56.5,39.25-.5,2.98-1.77-7.39-2.08-13.25-3-.38-1.17,1.09-1.06,1-1.25-.9-1.91-36.1-8.77-40.75-10.75-.49-.21-.89-.92-.75-1.5,7.34,1.42,19.03,1.72,27.75,3,5.19.76,11.93,3.25,17,3.5,4.46.22-8.08-3.02-4.75-4.5Z"/>
    <path class="cls-8" d="m94.5,96.5c1.84,2.4,3.69,4.5,5.5,7-17.07,3.5-34.9,1.91-52.25,1.5.99-.64,2.58-1.09,3.75-1.5,15.51-5.39,27.01-5.37,43-7Z"/>
    <path class="cls-8" d="m70.5,67c3.44,1.31,8.89,4.17,10,3,1.49.71,4.56,2.12,6,2.5.84.22,2.08.04,3,.5-.23,1.35-.44,3.1-.5,4.5-.06-.03-.48,1.11-.75,1-2.46-.95-6.6-4.64-8-.5-1.59-.95-3.49-1.13-5.25-1.5-2.73-.57-2.37-.97-2.5-1l-.5-2c12.88,2.72,7.94.78-5-4.5,2.37-2.46-1.77-1.5-.5-3.5,1.34.5,2.66.99,4,1.5Z"/>
    <path class="cls-8" d="m81.5,138c4.18-4.09,12.08-8.05,17.5-10.5,1.34-.61,4.55-2.69,5-1.75-2.99,3.19-4.98,5.26-5.25,9.75-5.73,1.04-11.5,1.59-17.25,2.5Z"/>
    <path class="cls-30" d="m134,91c-3.28.29-11.79-7.01-18.25-10.5-3.76-2.04-13.19-3.11-10.75-7.5,11.05,6.66,17.41,8.93,29,18Z"/>
    <path class="cls-16" d="m162.5,113c1.78,2.1,4.09,3.53.5,4.5-2.47-2.53-3.35-2.35-3.5-2.5-2.34-2.31-4.65-4.71-7-7-.4-1.12,1.95-2.35,2-2.5,2.14,2.19,6.27,5.46,8,7.5Z"/>
    <g>
      <path class="cls-29" d="m103.5,72.5c.07.04.48-.12,1.5.5-2.44,4.39,6.99,5.46,10.75,7.5,6.46,3.49,14.97,10.79,18.25,10.5,5.08,3.97,6.12,5.49,9.5,8.5,4.92,5.92,1.88,6.82,2,7.25.31,1.13,14.4,14.46,14,8.25.15.15,1.03-.03,3.5,2.5,11.52,11.82,2.38,7.01-1.25,10-4.15,3.42,3.4,9.35,5,9.5,3.15.3,13.27-8.44,10.25-1.25-.21.49-5.22,4.75-6,5.25-2.21,1.42-10.49,4.77-13.5,6-4.9,2-29.19,8.46-30,12.75-.32,1.68.62,3.11.5,4.75-24.03,5.74-33.24,19.19-45,39.5-4.36,4.74-8.07,10.1-12.5,14.75-6.05,6.35-18.78,17.71-26,24.25-6.64,6.01-13.79,11.5-20,18-3.56-1.99-3.9-4.11-2-7.75,2.24-4.29,24.7-22.05,29-27.75,4.85-2.85,3.12-2.86,2-4-.04-.04-.42-.74-.5-1,8.06-1.95,13.5-10.39,19.5-16,.89-.83,1.65-1.65,2.5-2.5,2.36-2.33,10.05-7.63,13.5-12.25,7.6-19.23,19.32-30.24,33.5-44.5-12.95,2.54-15.4,9.08-31.25,3.25-.55-.96,3.71-2.32,4.25-2.5.84-.29,5.48-.89,5.75-1,5.06-1.99-.49-.24,2-7.5-1.66.73-10.56,6.04-11,6.5-1.37,1.42-.04.69,2.25,1.5-9.13,1.1-13.91.61-6.5-4.25-.32-.52-10.33-1.37-10.5-3.25,3.03,1.27,3.7.13,4.5,0,5.75-.91,11.52-1.46,17.25-2.5.27-4.49,2.26-6.56,5.25-9.75-.45-.94-3.66,1.14-5,1.75,1.14-1.71.94-2.15-1.5-2.5-.37-4.56,8.49-12.93,8.5-13.75.03-1.91-2.53-.88-3-1.5-.18-.24,1.62-.05-2-5.25-.58-.83-.96-.94-1-1-1.81-2.5-3.66-4.6-5.5-7-.36-.46-.48-.47-.5-.5-.94-1.23-4.23-4.89-4-6.25,5.58-3.89,5.09-9.53-1-12.25.06-1.4.27-3.15.5-4.5.08-.49-1.04-.58.25-1.5,4.67-.23,11.35,4.96,13.75,1Z"/>
      <path class="cls-29" d="m152.5,108c2.35,2.29,4.66,4.69,7,7,.4,6.21-13.69-7.12-14-8.25-.12-.43,2.92-1.33-2-7.25,3.06,2.73,6.06,5.63,9,8.5Z"/>
      <path class="cls-23" d="m114.75,141.5c2.88-.14-6.96,5.89-10.25,5.25,1.69-.58,9.67-5.22,10.25-5.25Z"/>
    </g>
    <path class="cls-25" d="m86.5,72.5c-1.44-.38-4.51-1.79-6-2.5-2.77-1.32-6.4-3.92-9.75-5.5-6.76-3.18-14.09-5.64-20.75-9-3.4-1.71-18.28-9.7-20-11.5-.86-.9-1.99-1.91-1-3,1.79.95,25.04,12.57,25.5,11.25-12.22-7.54-23.83-16.03-35-25,23.37,13,43.82,31.47,67,45.25Z"/>
    <path class="cls-5" d="m54.5,69v2c-10.99-2.98-19.67-6.38-20.75-6.5-2.83-.32.85,1.97.75,2.25-.43,1.18-12.73-5.78-14-6.25v-1.5c5.39,2.71,26.18,7.98,34,10Z"/>
    <path class="cls-25" d="m66.5,65.5c-1.27,2,2.87,1.04.5,3.5-6.92-2.82-14.06-5.1-21-8l1-2.5c6.42,2.48,13.04,4.59,19.5,7Z"/>
    <path class="cls-17" d="m72,73.5l.5,2c-6.11-1.37-11.97-2.86-18-4.5v-2c5.8,1.5,11.64,3.26,17.5,4.5Z"/>
    <path class="cls-24" d="m50,55.5c6.66,3.36,13.99,5.82,20.75,9,3.35,1.58,6.98,4.18,9.75,5.5-1.11,1.17-6.56-1.69-10-3-1.58-3.7-34.45-10.62-20.5-11.5Z"/>
    <path class="cls-8" d="m85.5,119l-3.75,3.5c-7.95-1.66-23.88,4-7.75-4,4.76,1.65,6.09-3.78,11.5.5Z"/>
    <path class="cls-38" d="m40.5,90c2.95.15,6.12,1.31,9,1.5l-2.5,1.5c-2.52-.92-5.09-1.68-7.5-2.75l1-.25Z"/>
    <g>
      <path class="cls-29" d="m230,51c0,2.5-.46,5.31-1,7.75l-3-3.5c.97,15.71,5.22,17.79-7,7.25-1.37-1.18-2.98-2.26-4.5-3.25-.17-1.16,5.03,2.26-2-22.25-2.13-7.43-5.84-14.4-7.5-22,1.87-.46,5.22-1.46,5.5-1.5,6.76,13.94,7.6,34.19,9.5,42,1.07,4.41,1.87,4.08,5.25,7,.75-.03.35-4.63.25-7-.6-13.6-9.84-28.85-14-42,1.71-.16,1.99-1.25,4,.25,4.29,3.2,14.49,25.41,14.5,37.25Z"/>
      <path class="cls-29" d="m204,16c1.42,6.05,3.79,11.9,5,18,2.1,10.57,2.66,13.13-1.5,8.25-1.97-2.31-8.96-17.48-10-20.75-.37-1.17.89-2.78.5-4.5,4.04-2.08,5.69-.93,6-1Z"/>
      <path class="cls-20" d="m211.5,13.5c4.16,13.15,13.4,28.4,14,42-2.29.3.18-5.08-1.75-5.5-1.63-.36-3.94,3.83-3.75,5.5-1.9-7.81-2.74-28.06-9.5-42,.32-.04.67.03,1,0Z"/>
      <path class="cls-14" d="m205,15c1.66,7.6,5.37,14.57,7.5,22l-3.5-3c-1.21-6.1-3.58-11.95-5-18,.12-.03-.65-.6,1-1Z"/>
      <path class="cls-39" d="m228,88c4.66.88,15.89,6.56,18,11-8.5.43-16.59-2.04-24.75-4-10.17,2.66-17.17,2.57-24.75,11.25-4.64,5.31-4.37,5.81,11.25,4.25,9.67-.97,19.27-4.21,29-5-2.86,3.18-7.23,4.4-10.75,6.5-3.38-.07-20.38,5.59-22.25,7-2.61,1.98-5.05,7.28.25,4.5l4.5.25c-1.66,1.68-12.35,14.03-12.5,15-.22,1.45,2.75,1.28-.5,6-1.18.93-.94-2.45-3,.75,1.17-7.59-.94-2.57-1.25-2.5-.46.1-1.41-3.84-1.75-4.5-.16-.3.27-1.3-.25-1.5-2.58,2.15-5.39,3.77-8.25,5.5-1.14.69-2.32,1.3-3.5,2-.65.39-8.16.38,0,10.75.39,2.04-1.53.93-2,1.25-2.83-3.07-1.42-8.96-4-10.5-.29-.18-.71-.49-1-.5-1.72-2.43,6.27-5.24.5-4.5.78-.5,5.79-4.76,6-5.25,3.02-7.19-7.1,1.55-10.25,1.25-1.6-.15-9.15-6.08-5-9.5,3.63-2.99,12.77,1.82,1.25-10,3.59-.97,1.28-2.4-.5-4.5,2.08,1.32,11.19-1.56,12-2.75.05-.08-.56-1.6-.5-1.75,6.65-5.58,14.48-11.97,22.5-15.5.22-.09.78.09,1,0,9.51-4.01,20.08-6.97,30.5-5Z"/>
      <path class="cls-26" d="m228,87c-.07.26.04.68,0,1-10.42-1.97-20.99.99-30.5,5-.18-1.12-2.71-1.16-1.75-2.5,1.5-2.1,23.04-9.36,32.25-3.5Z"/>
      <path class="cls-8" d="m192.5,145.5c-.13.83-2.84,7.52-3.25,7.5-4.95-12.19-2.49-3.7-4.75.75-2.55,5.03-7.68-6.44-7-9.25,1.18-.7,2.36-1.31,3.5-2-.01,5.55,3.2,1.09,8.5-4,.34.66,1.29,4.6,1.75,4.5.31-.07,2.42-5.09,1.25,2.5Z"/>
      <path class="cls-29" d="m175.5,156.5c-1.61,1.08-.51.76-2.5,1-.05,0,.15-1.03-.25-1-1.6.13-5.81,1.68-12.25.5l3.75-8c4.49,10.66.2,4.47,7.25-3,2.58,1.54,1.17,7.43,4,10.5Z"/>
      <path class="cls-32" d="m226,112c-4.33,2.59-8.88,5.22-12.75,8.5-3.44-1.33-6.39,1.5-9.25,3-5.3,2.78-2.86-2.52-.25-4.5,1.87-1.41,18.87-7.07,22.25-7Z"/>
      <path class="cls-32" d="m170.5,145.5c.29.01.71.32,1,.5-7.05,7.47-2.76,13.66-7.25,3l-3.75,8c-9.67,4.52-20.27,5.15-30.5,7.5-.59.14-1.41-.14-2,0,.12-1.64-.82-3.07-.5-4.75.81-4.29,25.1-10.75,30-12.75-6.14,5.77,10.29-1.62,13-1.5Z"/>
      <path class="cls-7" d="m170.5,145.5c-2.71-.12-19.14,7.27-13,1.5,3.01-1.23,11.29-4.58,13.5-6,5.77-.74-2.22,2.07-.5,4.5Z"/>
      <path class="cls-26" d="m207.5,64.5c-.79.41-2.75,2.45-4,3,.39-2.32-6.81-7.91-8.5-10.25-4.76-6.58-8.27-16.57-7.5-24.75.06-.04.22-.91,1-1,.49,6.48,15.69,25.71,19,33Z"/>
      <path class="cls-10" d="m154.5,105c-.13-1.12-8.6-9.27-4.5-10.5,1.49-.45,7.02,1.37,12.25.5.73.88-13.93,12.06,10.75,3.25-5.3,4.43-11.99,5.42-18.5,6.75Z"/>
      <path class="cls-29" d="m177.5,45.5c.21.32,1.07,4.09,2.5,7.25,2.44,5.38,4.7,1.42,1,10.5-.25,2.41-7.68-9.09-8-9.75-.36-.73-1.57-2.78-1.5-3.25,3.42-2.24,2.34-10.29,6-4.75Z"/>
      <path class="cls-29" d="m168.5,77.5l-8.5-7.5c-1.19-1.65,1.72-5.84,3-8l10.5,12.75c-4.53,4.09-4.75,2.57-5,2.75Z"/>
      <path class="cls-29" d="m167,79c-6.45,4.37-5.23,2.82-5.5,3l-6-4c1.06-2.32,1.82-4.68,3-7l8.5,8Z"/>
      <path class="cls-10" d="m160,83c-1.28.86-6.99,8.26-9.5,5.5,1.13-3.21,2.66-5.51,4-8.5l5.5,3Z"/>
      <path class="cls-26" d="m160,70l8.5,7.5c-.09.06.58.09-1.5,1.5l-8.5-8c.36-.7.6-1.17,1.5-1Z"/>
      <path class="cls-13" d="m161.5,82c-.49.32-1.01.67-1.5,1l-5.5-3c.32-.72.7-1.34,1-2l6,4Z"/>
      <path class="cls-20" d="m209,34l3.5,3c7.03,24.51,1.83,21.09,2,22.25,1.52.99,3.13,2.07,4.5,3.25-.96,1.53-3.42-1.94-3.75-2-.43-.07-2.2,1.46-3.25,2-9.91-10.29-14.83-26.05-16-40,.65-.05.84-.95,1.5-1,1.04,3.27,8.03,18.44,10,20.75,4.16,4.88,3.6,2.32,1.5-8.25Z"/>
      <path class="cls-26" d="m196.5,93c-8.02,3.53-15.85,9.92-22.5,15.5,2.34-5.94,9.45-11.14,15.25-14.5.18-.1.22,1.42,1,1-.38-2.31,4.08-4.68,6.25-2Z"/>
      <g>
        <path class="cls-20" d="m203.5,67.5c1.25-.55,3.21-2.59,4-3,.24-.12-.69.68,4.5-2,1.05-.54,2.82-2.07,3.25-2,.33.06,2.79,3.53,3.75,2,12.22,10.54,7.97,8.46,7-7.25l3,3.5c.54-2.44,1-5.25,1-7.75.94.72,1.05,1.99,1.5,3-.31,9.14-1.17,24.71-3.5,33-9.21-5.86-30.75,1.4-32.25,3.5-.96,1.34,1.57,1.38,1.75,2.5-.22.09-.78-.09-1,0-2.17-2.68-6.63-.31-6.25,2-.78.42-.82-1.1-1-1-5.8,3.36-12.91,8.56-15.25,14.5-.06.15.55,1.67.5,1.75-.81,1.19-9.92,4.07-12,2.75-1.73-2.04-5.86-5.31-8-7.5.04-.12.02-.37,0-.5,6.51-1.33,13.2-2.32,18.5-6.75-24.68,8.81-10.02-2.37-10.75-3.25-5.23.87-10.76-.95-12.25-.5-.07-.38-.33-.65-.5-1l19.5-3.75-19,.25c.12-.46.34-1.05.5-1.5,2.51,2.76,8.22-4.64,9.5-5.5.49-.33,1.01-.68,1.5-1,.27-.18-.95,1.37,5.5-3,2.08-1.41,1.41-1.44,1.5-1.5.25-.18.47,1.34,5-2.75l-10.5-12.75c.64-1.09,1.3-1.97,2-3l11.25,7c.83-.45-4.65-11.19-5.25-12,.73.07.34-.91.75-1,.07-.02.41.73,1.25.5.32.66,7.75,12.16,8,9.75,3.7-9.08,1.44-5.12-1-10.5-1.43-3.16-2.29-6.93-2.5-7.25l2.5-2c1.58,6.74,15.44,19.57,20.75,25,1.6.36,1.82-.59,2.75-1Z"/>
        <path class="cls-29" d="m171,54c.6.81,6.08,11.55,5.25,12l-11.25-7c.48-.71,1.82-3.94,4.75-6.5.86-.22.75.84,1.25,1.5Z"/>
        <path class="cls-10" d="m149.5,93.5c-1.77-3.63.44-3.29.5-3.5l19-.25-19.5,3.75Z"/>
        <path class="cls-24" d="m179.75,65.5l.75.25-2.25,9.25c-3.34-3.86-1.6-4.99,1.5-9.5Z"/>
      </g>
      <path class="cls-20" d="m225.5,55.5c.1,2.37.5,6.97-.25,7-3.38-2.92-4.18-2.59-5.25-7-.19-1.67,2.12-5.86,3.75-5.5,1.93.42-.54,5.8,1.75,5.5Z"/>
      <g>
        <path class="cls-29" d="m196,22.5c1.17,13.95,6.09,29.71,16,40-5.19,2.68-4.26,1.88-4.5,2-3.31-7.29-18.51-26.52-19-33-.03-.45-.08-1.09,0-1.5.21-1.17,3.77-6.1,4.5-8.5.24.27,2.54,1.03,3,1Z"/>
        <path class="cls-9" d="m198.75,44c1.59-.48,3.26,6.21,4.75,8.75,1.2,2.05,9.43,11.69,4.75,10.75-1.01-.2-11.33-16.22-11.25-17.25.01-.14,1.61-2.21,1.75-2.25Z"/>
      </g>
      <path class="cls-29" d="m189.5,138.5c-5.3,5.09-8.51,9.55-8.5,4,2.86-1.73,5.67-3.35,8.25-5.5.52.2.09,1.2.25,1.5Z"/>
      <g>
        <path class="cls-24" d="m187.5,32.5c-.77,8.18,2.74,18.17,7.5,24.75,1.69,2.34,8.89,7.93,8.5,10.25-.93.41-1.15,1.36-2.75,1-5.31-5.43-19.17-18.26-20.75-25-.37-1.6.08-5.82,1-7.25,1.1-1.72,4.83-2.6,6.5-3.75Z"/>
        <path class="cls-9" d="m189.75,52.5c1.97-.15,2.52,3.36,3.75,4.75,2.02,2.28,6.65,5.69,8,8,4.21,7.18-13.47-9.9-13.5-11-.01-.46,1.63-1.74,1.75-1.75Z"/>
      </g>
    </g>
  </g>
</svg>