<?xml version="1.0" encoding="UTF-8"?>
<svg id="Calque_1" data-name="Calque 1" xmlns="http://www.w3.org/2000/svg" xmlns:xlink="http://www.w3.org/1999/xlink" viewBox="0 0 450 595.28">
  <defs>
    <style>
      .cls-1 {
        fill: #f3f2ca;
      }

      .cls-1, .cls-2, .cls-3, .cls-4, .cls-5, .cls-6, .cls-7, .cls-8, .cls-9, .cls-10, .cls-11, .cls-12, .cls-13, .cls-14, .cls-15, .cls-16, .cls-17, .cls-18, .cls-19, .cls-20, .cls-21, .cls-22, .cls-23, .cls-24, .cls-25, .cls-26, .cls-27, .cls-28, .cls-29, .cls-30, .cls-31, .cls-32, .cls-33, .cls-34, .cls-35, .cls-36, .cls-37, .cls-38, .cls-39, .cls-40, .cls-41, .cls-42, .cls-43, .cls-44, .cls-45, .cls-46, .cls-47, .cls-48, .cls-49, .cls-50, .cls-51, .cls-52, .cls-53, .cls-54, .cls-55, .cls-56, .cls-57, .cls-58, .cls-59, .cls-60, .cls-61, .cls-62, .cls-63 {
        stroke-width: 0px;
      }

      .cls-2 {
        fill: #5f6a67;
      }

      .cls-3 {
        fill: #77554f;
      }

      .cls-4 {
        fill: #765648;
      }

      .cls-5 {
        fill: #837d68;
      }

      .cls-6 {
        fill: #4d9f80;
      }

      .cls-7 {
        fill: #7b7c71;
      }

      .cls-8 {
        fill: #478f75;
      }

      .cls-9 {
        fill: #285955;
      }

      .cls-10 {
        fill: #54a287;
      }

      .cls-11 {
        fill: #548582;
      }

      .cls-12 {
        fill: #6e423f;
      }

      .cls-13 {
        fill: #948b74;
      }

      .cls-14 {
        fill: #39a74a;
      }

      .cls-15 {
        fill: #3b5754;
      }

      .cls-16 {
        fill: #264134;
      }

      .cls-17 {
        fill: #272d2f;
      }

      .cls-18 {
        fill: #38644e;
      }

      .cls-19 {
        fill: #1b362e;
      }

      .cls-20 {
        fill: #3f3130;
      }

      .cls-21 {
        fill: #197146;
      }

      .cls-22 {
        fill: #1b3235;
      }

      .cls-23 {
        fill: #13a07d;
      }

      .cls-24 {
        fill: #40b392;
      }

      .cls-25 {
        fill: #082018;
      }

      .cls-26 {
        fill: #0c0e0d;
      }

      .cls-27 {
        fill: #091715;
      }

      .cls-28 {
        fill: #213738;
      }

      .cls-29 {
        fill: #cc8c2c;
      }

      .cls-30 {
        fill: #de9148;
      }

      .cls-31 {
        fill: #cca047;
      }

      .cls-32 {
        fill: #cbdebe;
      }

      .cls-33 {
        fill: #ac8c6c;
      }

      .cls-34 {
        fill: #e39d5f;
      }

      .cls-35 {
        fill: #bed9c2;
      }

      .cls-36 {
        fill: #d6e7d4;
      }

      .cls-37 {
        fill: #ac653f;
      }

      .cls-38 {
        fill: #c0e0d0;
      }

      .cls-39 {
        fill: #a6ca97;
      }

      .cls-40 {
        fill: #aec1b8;
      }

      .cls-41 {
        fill: #aa6915;
      }

      .cls-42 {
        fill: #c07339;
      }

      .cls-43 {
        fill: #a8b1ac;
      }

      .cls-44 {
        fill: #b7bcba;
      }

      .cls-45 {
        fill: #bba174;
      }

      .cls-46 {
        fill: #9d7f6a;
      }

      .cls-47 {
        fill: #c2b78b;
      }

      .cls-48 {
        fill: #65a29b;
      }

      .cls-49 {
        fill: #303536;
      }

      .cls-50 {
        fill: #8ac9ab;
      }

      .cls-51 {
        fill: #99775f;
      }

      .cls-52 {
        fill: #efbd4b;
      }

      .cls-53 {
        fill: #f1e166;
      }

      .cls-54 {
        fill: #e2eddb;
      }

      .cls-55 {
        fill: #fefefe;
      }

      .cls-56 {
        fill: #03322d;
      }

      .cls-57 {
        fill: #033031;
      }

      .cls-58 {
        fill: #025c3b;
      }

      .cls-59 {
        fill: #005943;
      }

      .cls-60 {
        fill: #006e53;
      }

      .cls-61 {
        fill: #66bc9d;
      }

      .cls-62 {
        fill: #008765;
      }

      .cls-63 {
        fill: url(#Dégradé_sans_nom_94);
      }
    </style>
    <linearGradient id="Dégradé_sans_nom_94" data-name="Dégradé sans nom 94" x1="101.88" y1="306.51" x2="105.65" y2="347.34" gradientUnits="userSpaceOnUse">
      <stop offset="0" stop-color="#e6ae5a"/>
      <stop offset="1" stop-color="#d38c49"/>
    </linearGradient>
  </defs>
  <g>
    <path class="cls-2" d="m408.41,399.5l-.5-.5c1.16-.04,3.57-.66.5.5Z"/>
    <g>
      <path class="cls-5" d="m367.91,434c4.89,2.08,12.86,4.51,14.5,10.25,3.21,11.26-9.41,10.24-16.25,12.25-.43.13-.2.99-.25,1-7.04,2.07-7.14-.52-22.25,9-10.09,1.23-34.03,5.48-41.75,11-17.94-15.1-44.19,1.21-53.75,2.5-6.84.92-18.16-2.21-29,1-28.41-3.42-57.17-6.16-85.75-6-2.56-.47-8.3-1.98-8.75-2-8.44-.43-13.59,4.31-36.25-1.5l-3.25-7.5-12.25-.5c-1.12-1.04-2.07-1.73-3-3l13.5-3.25c-4.97-1.34-10.9-2.09-14.5-6.25-1.42-1.64-1.94-3.45-2.5-5.5,5.29-5.05,17.43-7.54,24.5-11.5,83.19,25.62,189.48,23.53,272.5-3,.25.14-1.25.55,4.5,3Z"/>
      <path class="cls-13" d="m301.91,477.5c-1.72,1.23-2.33.91-2,3.5-2.61,1.04-5.41,2.36-8,3.5-8.93-3.49-18.45-8.36-28.25-6.5-1.6,2.26,2.02.94,2.25,4.5-18.31,7.41-21.44.84-30.25-1-13.85-2.9-14.63,4.18-26.5,6.5-18.55-6.76-38.35-6.19-57.5-9-7.92-1.16-14.03-3.23-18.25-4,28.58-.16,57.34,2.58,85.75,6,10.84-3.21,22.16-.08,29-1,9.56-1.29,35.81-17.6,53.75-2.5Z"/>
      <g>
        <path class="cls-47" d="m396.91,429c4.45,1.17,3.99,2.89,4.25,3,7.67,3.18,24.14,7.87,25.5,16-1.48.89-8.92-3.82-11.25-1.75-.09,16.63,18.58,10.53-2.25,22.25-21-.76-25.15,18.18-47.5,10.5-1.02.34.21,8.61-6.5,10-9.28,1.92-6.52-6.04-15-5-3.36.41-7.66,4.79-11,6-3.84,1.39-44,8.38-50,9-12.38,1.28-25.34-.54-37.5,3-35.51,2.03-71.7.41-106-9.5-6.37,6.3-17.75,7.1-22.5-1.5-8.84,3.78-30.7-6.3-33.5-6.5-5.16,3.26-20.64.73-23.75-4.25-2.23-3.57,2.15-3.27.25-5.75-29.82,2.89-20.75-8.73-22-9.5-4.24-.05-6.68.6-10.5-1.5-.57-.32-8.6-9.11-8.75-9.75-.73-3.17,6.57-8.4,13.25-6.75,1.02-.39-.4-4.49,1-6,.89-.97,12.48-3.08,13-3.5,1.73-1.39-.46-3.52,2.25-5,1.57-.85,21.54-3.56,26-4.5,3.21,1.02,6.32,2.53,9.5,3.5-10.56,5.53-20.84,1.8-17.5,14,.56,2.05,1.08,3.86,2.5,5.5-.37,1.06-.68,8.35-.5,8.75.44.94,1.45.68,1.5.75.93,1.27,1.88,1.96,3,3,8.94,8.3,10.38,6.69,15.5,8,22.66,5.81,27.81,1.07,36.25,1.5.45.02,6.19,1.53,8.75,2,4.22.77,10.33,2.84,18.25,4,19.15,2.81,38.95,2.24,57.5,9,11.87-2.32,12.65-9.4,26.5-6.5,8.81,1.84,11.94,8.41,30.25,1,.33,5.06-6.69,8.34,7.25,9.5,9.16.76,15.25-5.95,18.75-7.5,2.59-1.14,5.39-2.46,8-3.5,2.92-1.16,22.63-7.07,25.25-7.5,18.78-3.06,36.04,2.59,53.25-9.75.43-1.33-10.67-6.47-12.5-6.25.05-.01-.18-.87.25-1,6.84-2.01,19.46-.99,16.25-12.25-1.64-5.74-9.61-8.17-14.5-10.25,3.86-5.83,1.17-5.97-2.5-10.5,10.61,1.1,21.3,2.29,31.5,5.5Z"/>
        <path class="cls-47" d="m54.16,444.5c7.98-1.1,12.66,5.99,12.75,6.75.12,1.04-6.06,16.7-6.75,19.75-22.79,1.83-5.61-6.33-27.75-13.75.47-5.38,19.05-12.38,21.75-12.75Z"/>
      </g>
      <path class="cls-13" d="m365.91,457.5c1.83-.22,12.93,4.92,12.5,6.25-17.21,12.34-34.47,6.69-53.25,9.75-2.62.43-22.33,6.34-25.25,7.5-.33-2.59.28-2.27,2-3.5,7.72-5.52,31.66-9.77,41.75-11,15.11-9.52,15.21-6.93,22.25-9Z"/>
      <path class="cls-47" d="m291.91,484.5c-3.5,1.55-9.59,8.26-18.75,7.5-13.94-1.16-6.92-4.44-7.25-9.5-.23-3.56-3.85-2.24-2.25-4.5,9.8-1.86,19.32,3.01,28.25,6.5Z"/>
      <path class="cls-7" d="m365.41,423.5c3.67,4.53,6.36,4.67,2.5,10.5-5.75-2.45-4.25-2.86-4.5-3-3.98-2.14-23.51.2-29,0,.59-.45,5.7-5.86,11.5-9.5,6.42,1.26,13,1.33,19.5,2Z"/>
      <path class="cls-13" d="m90.91,434c-7.07,3.96-19.21,6.45-24.5,11.5-3.34-12.2,6.94-8.47,17.5-14,2.38.73,4.68,1.61,7,2.5Z"/>
      <path class="cls-13" d="m88.41,471.5c-5.12-1.31-6.56.3-15.5-8l12.25.5,3.25,7.5Z"/>
      <path class="cls-47" d="m69.91,460.5c-.05-.07-1.06.19-1.5-.75-.18-.4.13-7.69.5-8.75,3.6,4.16,9.53,4.91,14.5,6.25l-13.5,3.25Z"/>
    </g>
  </g>
  <g>
    <path class="cls-55" d="m276.91,389.5c-.37,5.06,1.49,9.99-2.75,9-2.84-.67-1.22-4.98-2.25-9,2.59-1.33,4.75.02,5,0Z"/>
    <g>
      <path class="cls-26" d="m178.41,237c-3.98,9.56-11.01,22.81-14,31.25-7.23,20.41-2.54,17.98,17.5,20.75-10.89,3.23-10.25,6.05-12,16.5-.92,5.49-1.45,11.02-1,16.5.52,6.37,2.64,13.83,7.5,18.5,19.2,29.09,57.54,41.49,91.25,40l.75,1c.03,2.74,2.99,5.99,3.5,8,1.03,4.02-.59,8.33,2.25,9,4.24.99,2.38-3.94,2.75-9,.62-.04,10.97-1.33,12-1.5.88,5.29.67,10.68,1,16,.26,4.19-.27,9.8,2,13.25-.01,2.56-20.98,10.45-24.25,11.25-6.62,1.61-13.81,1.25-20.5,2.5-19.53-1.6-69.37,5.93-84.5-5-3.34-2.41-9.12-11.83-9.75-15.5-.44-2.58.32-7.8,0-11,7.29,1.57,16.05,2.46,23.5,3-.64,8.73.96,8.53,1,9,.02.17-1.95,1.57-1,3.25.62,1.09,23.28,7.52,24,6.5.02-3.25,0-6.5,0-9.75,0-2.67,0-5.33,0-8,.63-.03,9.89-1.19,12.5-1.5.07,3.83-.09,7.67,0,11.5.06,2.64-.5,8.57.75,9l12.5-.5,2.25-11c4.46-1.81,3.01-4.93,4-12.5.45-.1.8-1.27,1.75-1.5,3.99-.95,8.34-1.5,12.25-2.5-1.04,5.95-.64,12.03-1,18-.09,1.55-1.14,1.34-1,6,.03.96-.7,1.28-.5,2.25.99,3.07,18.02,1.35,18.5,0,.26-1.04-.53-1.36-.5-1.75.21-3.25-.42-6.34-.5-9.5-.15-6.22.56-12.89-1-19-.24-.95,1.06-1.14-.25-2-16.6-1.91-42.98-2.93-58.25-6.5-6.2-1.45-12.89-3.96-18.5-7-7.35-3.99-18.66-14.53-24-21-4.88-5.92-10.09-13.64-13.5-20.5-5.05-10.17-8.48-21.64-9-33-.45-9.78.32-18.54,4.5-27.5l3-1.75,25.5-43.75c5.42-4.57,11.18-10.38,14-17,1.41.34,2.37-.71,3.25-.5.8.19-3.78,14.51-4.25,15.75-1.52,4.05-6.51,11.87-4.5,11.25Z"/>
      <path class="cls-16" d="m343.41,156c-1.11.01-1.85.41-3,.5-.17.01-.33-.02-.5,0-.21-1.26.97-1.42,1-1.5,1.55.05,2.77-.43,2.5,1Z"/>
      <g>
        <path class="cls-3" d="m132.41,355c6.9,2.04,13.73,4.36,20.75,6l-2.25-6.75,8.5-.25c5.34,6.47,16.65,17.01,24,21-33.89,14.11-26.89,3.24-29.75,2-2.47-1.07-33.5,5.52-40.75,5-6.01-3.96-11.58-8.28-17-13,1.92-4.82,5.26-7.56,5.5-8l15.25,6,5.25-14.5c.85.25,1.19-.52,1.25-.5,3.07.88,6.16,2.09,9.25,3Z"/>
        <path class="cls-20" d="m260.41,390.5c-4.77.81-9.36,2.81-14,4-3.91,1-8.26,1.55-12.25,2.5-.95.23-1.3,1.4-1.75,1.5-6.15,1.38-13.25,2.77-19.5,3.5-2.61.31-11.87,1.47-12.5,1.5-2.93.12-19.74-.69-24-1-7.45-.54-16.21-1.43-23.5-3-8.36-1.8-17.71-5.42-25.5-9-2.33-5.48,12.19,2.24,19.25,3,6.11.65,34.54-2.84,41-4.5,1.77-.45,15.61-5.76,14.25-7,15.27,3.57,41.65,4.59,58.25,6.5,1.31.86,0,1.05.25,2Z"/>
        <path class="cls-12" d="m201.91,382c1.36,1.24-12.48,6.55-14.25,7-6.46,1.66-34.89,5.15-41,4.5-7.06-.76-21.58-8.48-19.25-3-5.25-2.41-9.7-5.34-14.5-8.5,7.25.52,38.28-6.07,40.75-5,2.86,1.24-4.14,12.11,29.75-2,5.61,3.04,12.3,5.55,18.5,7Z"/>
      </g>
      <path class="cls-25" d="m189.91,169c1.3,8.19,2.07,15.62,1.5,24-1.1,16.29-6.92,29.4-13,44-2.01.62,2.98-7.2,4.5-11.25.47-1.24,5.05-15.56,4.25-15.75-.88-.21-1.84.84-3.25.5,5.37-12.59,2.95-23.56,6.5-31.75-1-16.97-2.13-7.49-3.75-8.75-.6-.47-.54-3.73-.75-4.5l2.5-3c.5,2.2,1.14,4.25,1.5,6.5Z"/>
      <path class="cls-58" d="m177.41,133c5.44,8.85,8.72,19.43,11,29.5l-2.5,3c-2.93-10.91-6-21.61-10.5-32,.66-.18,1.32-.42,2-.5Z"/>
      <path class="cls-26" d="m276.91,187c2.57,4.83,6.95,9.15,10.75,13h1.25c9.32,17.86,18.09,36.04,25,55-.82,10.05-1.68,20.14-4,30-.63,2.7-2.18,8.67-3,11-.52,1.47-3.19,7.45-4,9-.82,1.57-2.03,3.5-3,5-3.5,5.41-8.63,10.78-13.5,15-7.61-3.87-15.25-7.43-23-11-1.84-.85-3.6-2.15-5.5-3,1.56-.86,5.08,2.44,6.75,2,3.54-.93,16.75-15.71,19.75-27.5.68-2.68,1.47-5.74,1.5-8.5.08-7.69-1.97-11.95-8-16.5,3.81-.36,14.32.76,16.5-2,2.12-2.69-.53-10.89-1.5-14.75-5.74-22.9-18.6-43.52-21.5-67.25,1.77-3.14,1.33,2.67,5.5,10.5Z"/>
      <path class="cls-59" d="m294.91,130c-.57,1.44-2.1,3.51-3.5,7-3.63,9.05-8.16,17.87-10,27.5-2.34,5.2-1.9,10.68-2,11.25-.1.58-1.47.79-1.5,1-.64,3.88.32,10.82-1,10.25-4.17-7.83-3.73-13.64-5.5-10.5-.67-5.5-.75-10.47-.5-16,2.11,8.67,2.18.39,3-3.5,1.69-4.27,2.96-8.67,4.5-13,5.38-3.64,5.41-8.11,7-10.75,2.35-3.92,5.85-7.77,7-11.25.94,1.9,2.27,3.99,3.5,5.75-.39.77-.68,1.44-1,2.25Z"/>
      <path class="cls-60" d="m286.91,116c-1.98,3.62-7.54,8.83-5,12.5-3.28,7.14-6.31,20.52-8,28.5-.82,3.89-.89,12.17-3,3.5.73-15.99,4.72-30.72,13-44.5,1.2-.45,1.82-.08,3,0Z"/>
      <path class="cls-56" d="m185.91,165.5c.21.77.15,4.03.75,4.5,1.62,1.26,2.75-8.22,3.75,8.75-3.55,8.19-1.13,19.16-6.5,31.75-2.82,6.62-8.58,12.43-14,17-.96-1.91-8.62-2.87-12.5-3.5-1.62-.26-3.64-.87-5-1-2-.19-3.15-1-5.5,0-1.76-.58,1.67-4.72,3.5-12,5.28-1.85,9.6-5.92,12-11,2.24,2.38,3.33,4.71,7.25,4,10.12-1.82-6.03-34.75-11.75-38.5,1.92-2.26,3.26-4.83,4.5-7.5,10.22,7.6,18.96,33.58,21,46.25,4.6-10.54,2.42-15.92,2-21.75-1.16-16.15-4.37-33.67-12.5-48-.07-.13.07-.38,0-.5,1.54.26,2.01-.36,2.5-.5,4.5,10.39,7.57,21.09,10.5,32Z"/>
      <path class="cls-60" d="m173.91,147c5.2,11.42,8.4,23.39,11.5,35.5.42,5.83,2.6,11.21-2,21.75-2.04-12.67-10.78-38.65-21-46.25-.05-.04-.55.11-.5-.5,2.79-4.52-1.48-10.88-5.5-13.5,1.02-1.39,2.14-2.44,3.5-3.5,1.96,2.08,13.33,10.34,14,6.5Z"/>
      <g>
        <path class="cls-49" d="m136.91,112c-.23,1.43,5.89,1.29,9.25,2.5,6.43,2.31,13.08,8.77,18.25,13-.87,3.96-12.01-8.06-21.5-8.5-1.32-.76-11.51-5.02-11.5-5.75,1.51-.78,3.82-1.23,5.5-1.25Z"/>
        <path class="cls-17" d="m164.41,127.5c2.12,1.73,2.16.43,2.25.5,1.96,1.64,3.97,5.92,5.75,5,.42.66.45.92.5,1,.07.12-.07.37,0,.5-1.55.33-3.03.92-4.5,1.5-1.2.47-2.35.92-3.5,1.5-.37-1.28,1.31-.78,1-1.75-.55-1.74-20.01-15.02-23-16.75,9.49.44,20.63,12.46,21.5,8.5Z"/>
      </g>
      <path class="cls-60" d="m173.91,147c-.67,3.84-12.04-4.42-14-6.5,1.83-1.42,3-1.99,5-3,1.15-.58,2.3-1.03,3.5-1.5,1.88,3.68,3.78,7.23,5.5,11Z"/>
      <g>
        <path class="cls-31" d="m362.91,124c-1.35,1.71-5.43,2.22-7.5,2.75l-1.5,15.5c-1.31,5.28-8,8.06-7.5,13.75-1.07-.11-1.99-.71-3,0,.27-1.43-.95-.95-2.5-1,.16-.4-.1-1.38,0-2,1.1-.17,4.54-3.16,4.5-3.75-14.8-11.18-10.43-13.23-8-22.75.02-.06.43.03,1-.75.87-4.32-1.73-7.15-4.25-10.25l24,9c6.76.84,4.45-7.75,2.75-11.5-.06-.14.07-.37,0-.5l1-.5c1.04,2.84,2.58,10,1,12Z"/>
        <path class="cls-52" d="m360.91,113c1.7,3.75,4.01,12.34-2.75,11.5l-24-9c2.52,3.1,5.12,5.93,4.25,10.25-.57.78-.98.69-1,.75,2.05-8.92-8.79-14.99-16.5-14l-3-4.5c3.13-2.29,6.86-5.17,10.5-6.5,12.28.49,20.13,13.85,32.5,11.5Z"/>
        <g>
          <path class="cls-53" d="m350.91,102c.49.19,7.66,4.67,8,5,1.29,1.26,2.37,3.28,3,5l-1,.5c-3.78-7.06-16.76-10.47-24-12.5,3.67-.06,10.67.7,14,2Z"/>
          <path class="cls-1" d="m336.91,100c7.24,2.03,20.22,5.44,24,12.5.07.13-.06.36,0,.5-12.37,2.35-20.22-11.01-32.5-11.5,3.67-1.34,4.62-1.44,8.5-1.5Z"/>
        </g>
      </g>
      <path class="cls-4" d="m290.41,116.5s-.27-.1-1,0c-.1.01-.46-.38-2-.5,2.34-3.79,10.6-10.87,14.25-13,6.67-3.89,18.95-7.08,14.5-3.5-.32.26-6.27,2.73-7.5,3.5-7.85,4.93-17.17,13.16-18.25,13.5Z"/>
      <path class="cls-60" d="m292.41,122c-1.15,3.48-4.65,7.33-7,11.25-1.59,2.64-1.62,7.11-7,10.75,2.47-6.95,7.66-20.65,12.5-25,.36.83,1.05,2.08,1.5,3Z"/>
      <path class="cls-23" d="m290.41,116.5c-.03.72.22,1.87.5,2.5-4.84,4.35-10.03,18.05-12.5,25-1.54,4.33-2.81,8.73-4.5,13,1.69-7.98,4.72-21.36,8-28.5,1.94-4.23,5.22-7.96,7.5-12,.73-.1.95.01,1,0Z"/>
      <path class="cls-55" d="m317.91,108l3,4.5c-5.18.66-9.37,4.11-14,6.25,2.53-4.73,6.91-7.76,11-10.75Z"/>
      <path class="cls-62" d="m289.41,116.5c-2.28,4.04-5.56,7.77-7.5,12-2.54-3.67,3.02-8.88,5-12.5.17.01.33-.01.5,0,1.54.12,1.9.51,2,.5Z"/>
      <g>
        <path class="cls-26" d="m350.91,102c-3.33-1.3-10.33-2.06-14-2-3.88.06-4.83.16-8.5,1.5-3.64,1.33-7.37,4.21-10.5,6.5-4.09,2.99-8.47,6.02-11,10.75,4.63-2.14,8.82-5.59,14-6.25,7.71-.99,18.55,5.08,16.5,14-2.14-2.01-2.43,1.87-6,4-13.07,2.34-12.07-2.96-15.75-6-.18-.15-1.07.13-1.25,0-.11-.08.5-.95-1.75-2-6.73.04-13.05,2.72-17.75,7.5.32-.81.61-1.48,1-2.25-1.23-1.76-2.56-3.85-3.5-5.75-.45-.92-1.14-2.17-1.5-3-.28-.63-.53-1.78-.5-2.5,1.08-.34,10.4-8.57,18.25-13.5,1.23-.77,7.18-3.24,7.5-3.5,4.45-3.58-7.83-.39-14.5,3.5-3.65,2.13-11.91,9.21-14.25,13-.17-.01-.33.01-.5,0-1.18-.08-1.8-.45-3,0,2.35-3.9,2.99-5.57,6.5-9,15.51-15.18,43.11-17.99,60.5-5Z"/>
        <path class="cls-11" d="m331.41,130.5c-6.81,4.07-14.53,1.4-17-6,.18.13,1.07-.15,1.25,0,3.68,3.04,2.68,8.34,15.75,6Z"/>
        <path class="cls-2" d="m321.66,117c4.33-.71,9.72.96,9.25,2.25l-8.25-1.75c-9.62,4.92-4.51.07-1-.5Z"/>
      </g>
      <path class="cls-22" d="m200.41,411.5c0,3.25.02,6.5,0,9.75-.72,1.02-23.38-5.41-24-6.5-.95-1.68,1.02-3.08,1-3.25,5.82-.6,16.97,1.8,21.75,1.5.89-.06,1.38-.62,1.25-1.5Z"/>
      <path class="cls-22" d="m228.41,411l-2.25,11-12.5.5c-1.25-.43-.69-6.36-.75-9,2.97-.25,14.02-1.9,15.5-2.5Z"/>
      <path class="cls-22" d="m261.91,419l-17.5-.5c-.14-4.66.91-4.45,1-6l16-3c.08,3.16.71,6.25.5,9.5Z"/>
      <g>
        <path class="cls-25" d="m352.91,403c.34,1.89-2.46.57-3.75,1-.26.09-.32,1.27-1,1.5-24.75,8.18-47.66,21.09-70.75,33.25,18.41,1.12,36.88-3.91,55.25-5.75.81-1.09.63-1.15,1.75-2,5.49.2,25.02-2.14,29,0-83.02,26.53-189.31,28.62-272.5,3-2.32-.89-4.62-1.77-7-2.5-3.18-.97-6.29-2.48-9.5-3.5-9.19-2.91-18.27-5.33-27.5-8-19.21-5.55-17.48-5.2,1-4,15.33,1,30.69,1.61,46,3,14.53,7.89,37.31,6.82,53.75,9.5,2.12-.7-29.36-22.2-31.25-23.5,12.19,1.69,24.39,3.31,36.5,5.5.63,3.67,6.41,13.09,9.75,15.5,15.13,10.93,64.97,3.4,84.5,5,6.69-1.25,13.88-.89,20.5-2.5,3.27-.8,24.24-8.69,24.25-11.25-2.27-3.45-1.74-9.06-2-13.25,18.98-8.27,37.29-19.37,57.5-23.75-13.77,7.28-28.73,14.17-38,27.5.17,1.36,11.55-1.53,13.25-1.75,10.02-1.29,20.19-2.03,30.25-3Z"/>
        <path class="cls-56" d="m407.91,399l.5.5c-2.63.99-8.77,2.1-12,3-16.89,4.68-35.53,9.6-50.5,19-5.8,3.64-10.91,9.05-11.5,9.5-1.12.85-.94.91-1.75,2-18.37,1.84-36.84,6.87-55.25,5.75,23.09-12.16,46-25.07,70.75-33.25.68-.23.74-1.41,1-1.5,1.29-.43,4.09.89,3.75-1,14.91-1.43,30.07-3.09,45-4,3.31-.2,6.68.13,10,0Z"/>
        <path class="cls-56" d="m48.41,399c26.56,1.16,41.68,2.35,68,6,1.89,1.3,33.37,22.8,31.25,23.5-16.44-2.68-39.22-1.61-53.75-9.5-12.84-9.17-30-12.89-45.5-17-13.45-3.57-16.31-3.71,0-3Z"/>
        <path class="cls-27" d="m261.91,419c-.03.39.76.71.5,1.75-.48,1.35-17.51,3.07-18.5,0-.2-.97.53-1.29.5-2.25l17.5.5Z"/>
      </g>
      <path class="cls-25" d="m293.91,141.5c5.14,14.87,22.78,16.22,37,16.5-12.15,2.34-16.77,2.48-25,12-3.7,4.28-11.09,17.18-12.25,17-6.6-9.43.65-12.74-12.25-22.5,1.84-9.63,6.37-18.45,10-27.5.85,1.54,1.14,3.23,2.5,4.5Z"/>
      <path class="cls-56" d="m305.91,170c-1.75,9.63.65,21.31,5,30-.65-.06-1.36.09-2,0-3.62-.53-5.18.05-7.5,0-4.07-.09-8.4-1.37-12.5,0h-1.25c-3.8-3.85-8.18-8.17-10.75-13,1.32.57.36-6.37,1-10.25.03-.21,1.4-.42,1.5-1,.1-.57-.34-6.05,2-11.25,12.9,9.76,5.65,13.07,12.25,22.5,1.16.18,8.55-12.72,12.25-17Z"/>
      <g>
        <path class="cls-32" d="m314.41,124.5c2.47,7.4,10.19,10.07,17,6,3.57-2.13,3.86-6.01,6-4-2.43,9.52-6.8,11.57,8,22.75.04.59-3.4,3.58-4.5,3.75-3.08.49-40.28-5.23-47-11.5-1.36-1.27-1.65-2.96-2.5-4.5,1.4-3.49,2.93-5.56,3.5-7,4.7-4.78,11.02-7.46,17.75-7.5,2.25,1.05,1.64,1.92,1.75,2Z"/>
        <path class="cls-10" d="m340.91,153c-.1.62.16,1.6,0,2-.03.08-1.21.24-1,1.5-2.87.27-6.15.95-9,1.5-14.22-.28-31.86-1.63-37-16.5,6.72,6.27,43.92,11.99,47,11.5Z"/>
      </g>
      <g>
        <path class="cls-26" d="m375.91,144.5c-5.05-1.02-5.57.19-1.75,3.5.4.35.96-.53,1-.5,1.83,1.39.74,4.93,2.75-1,5.94,4.23,13.41,4.3,12,10.75-1.97,9.02-28.27-2.23-33.75-1.75-1.27.11-3.85,2.44-4.5,2.5-1.2.11-4.97-1.97-5.25-2-.5-5.69,6.19-8.47,7.5-13.75l1.5-15.5c2.07-.53,6.15-1.04,7.5-2.75,1.95.49.79,10.23,1,10.75.28.72,10.49,8.66,12,9.75Z"/>
        <path class="cls-40" d="m375.91,144.5c1.24.9,1.05,1.71,2,2-2.01,5.93-.92,2.39-2.75,1-.04-.03-.6.85-1,.5-3.82-3.31-3.3-4.52,1.75-3.5Z"/>
        <path class="cls-27" d="m359.91,148c-1.8.77,7.34,2.47,11.25,3,7.69,1.05,9.78-1.14,11.25,2-.81,5.7-22.6-1.75-26.75-1.5-1.49-3.46,1.69-3.46,4.25-3.5Z"/>
        <path class="cls-43" d="m382.41,153c-1.47-3.14-3.56-.95-11.25-2-3.91-.53-13.05-2.23-11.25-3,3.97-.06,12.85,2.81,16.75,3,.41.02,6.56-3.72,5.75,2Z"/>
        <path class="cls-44" d="m359.66,134c.27-.08,1.76-.08,2,0,.83.28,11.96,12.87-2.5,1-.51-.14.26-.93.5-1Z"/>
      </g>
      <g>
        <path class="cls-30" d="m354.91,279c2.35,1.16,4.43,2.82,7,3.5.07.12-.07.38,0,.5,1.04,1.8,3.76,3.58,5,5.75,3.53,7.64,7.79,14.96,11,22.75-4.85,2.98-10.47,4.12-16,3-4.24-12.42-9.88-24.66-12-37.5.24.12,1.42.24,5,2Z"/>
        <path class="cls-30" d="m377.91,311.5c1.52,3.69,2.45,7.58,4.5,11-6.07,6.73-13.4,11.64-20.5,17-4.81-3.33-7.66-14.97-10.5-19.5-.29-.46-.61-.9-.5-1.5,3.44-.89,10.62-.34,11-4,5.53,1.12,11.15-.02,16-3Z"/>
        <path class="cls-37" d="m345.91,362.5c-3.14-2.16-8.15-11.67-10-13-.27-1.49.31-1.45,1.5-2,6.8,4.68,7.3,7.28,11,1.5,4.12-2.27,8.47-4.72,12.25-7.5.81-.6,1.06-1.85,1.25-2,7.1-5.36,14.43-10.27,20.5-17l.5,2.25c-10,14.7-23.6,26.28-37,37.75Z"/>
        <path class="cls-34" d="m346.91,275c.16.08.68.86,3,2,2.12,12.84,7.76,25.08,12,37.5-.38,3.66-7.56,3.11-11,4l-13.75-6-.75.25c1.02.84.82,2.14,1,2.75-4.08-7.24-7.76-14.84-13.5-21v-.5c2.71-.5,5.77-.85,8.5-1,1.58-.09,10.02.4,10.5-.75l-4.5-14c1.64-1.98,6.42-1.36,6.5-3.75.33.17,1.66.33,2,.5Z"/>
        <path class="cls-42" d="m351.41,320c2.84,4.53,5.69,16.17,10.5,19.5-.19.15-.44,1.4-1.25,2-3.78,2.78-8.13,5.23-12.25,7.5.4-.63,1.65-1.69,1.5-2.25-15.98-11.35,2.87-3.94-8.5-23.25,4.53.12,6.12-1.57,10-3.5Z"/>
        <path class="cls-29" d="m350.91,318.5c-.11.6.21,1.04.5,1.5-3.88,1.93-5.47,3.62-10,3.5-.33,0-.68.04-1,0-.11-3.56-2.15-5.14-3-8-.18-.61.02-1.91-1-2.75l.75-.25,13.75,6Z"/>
      </g>
      <g>
        <path class="cls-20" d="m319.91,378c-7.65,3.75-22.68,8.6-31,10-1.03.17-11.38,1.46-12,1.5-.25.02-2.41-1.33-5,0-.51-2.01-3.47-5.26-3.5-8,1.38-1.5,5.32-1.91,10-3.5-.13,1.55,7.83,1.82,10.25,1.5,1.8-.24,20.16-6.56,19.25-8.5,3.85,2.39,8.31,4.26,12,7Z"/>
        <path class="cls-20" d="m326.41,355.5c4.44,3.47,9.24,6.54,13.5,10.25l-9.75,6.75c-.71.05-1.56-1.07-2.25-1.5-1.34-.84-10.81-8.94-15-12,.23-1.93,3.73-2.06,5.5-2.5.46-.11.55-.4,1-.5,1.38-.3,5.52-.86,7-.5Z"/>
        <path class="cls-12" d="m303.41,367.5c1.51.94,3.73,3.02,4.5,3.5.91,1.94-17.45,8.26-19.25,8.5-2.42.32-10.38.05-10.25-1.5,7.99-2.71,15.82-6.44,23-11,.1.04,1.34.32,2,.5Z"/>
      </g>
      <path class="cls-58" d="m325.91,317.5c.65-.73.15-1.75,1.75-1.5.92.15,7.94,6.93,12.75,7.5.32.04.67,0,1,0,11.37,19.31-7.48,11.9,8.5,23.25.15.56-1.1,1.62-1.5,2.25-3.7,5.78-4.2,3.18-11-1.5-.21-.15.36-.96-3.75-3.5-4.27-2.63-38.78-17.73-41-18-1.69-.21-.92.76-1.75,1-1.43-.72-3.03-1.25-4.5-2,4.87-4.22,10-9.59,13.5-15,3.64.92,24.84,9.52,26.5,8.25.04-.03-.7-.52-.5-.75Z"/>
      <path class="cls-25" d="m162.41,200c-2.01-2.13-8.94-13.03-11.5-10-3.95-9.27-21.34-11.29-30-13,13.21-.67,27.67-.48,37-11.5,5.72,3.75,21.87,36.68,11.75,38.5-3.92.71-5.01-1.62-7.25-4Z"/>
      <path class="cls-25" d="m162.41,200c-2.4,5.08-6.72,9.15-12,11,1.52-6.05,3.01-15.11.5-21,2.56-3.03,9.49,7.87,11.5,10Z"/>
      <g>
        <path class="cls-26" d="m98.91,168l-.5,5.5c-4.51-.53-8.75-1.62-13.25-2-5.61.08-35.56,9.56-29.25-4.75.56-1.27,10.23-7.85,10-5.5-4.7,2.08-2.78,5.46-1.75,5.75,1.27.36,22.84-2.2,26.25-2.75-6.35-.48-29.68,3.21-24.25-.25,1.17-.75,2.86-.39,3-.5,9.24-6.94.36-8.35-.5-1-4.29-4.03,4.28-6.78,8.25-10,3.27.34,5.76,3.11,9,3.5,5.3.63,2.01-1.19,1-11.25-2.43-1.73-1.37,1.52-1.5,2.25l-1.5-.5c-.05-2.6.97-5.01,1.5-7.5,1.5,1.69,6.16,1.9,7,3.75.9,1.97.45,21.98,6.5,25.25Z"/>
        <path class="cls-15" d="m85.41,147c-.51,2.9-.42,5.3-3.5,6.75l4,2.25c-3.24-.39-5.73-3.16-9-3.5,2.37-1.93,4.7-3.99,7-6l1.5.5Z"/>
        <path class="cls-28" d="m85.91,156l-4-2.25c3.08-1.45,2.99-3.85,3.5-6.75.13-.73-.93-3.98,1.5-2.25,1.01,10.06,4.3,11.88-1,11.25Z"/>
      </g>
      <g>
        <g>
          <path class="cls-52" d="m135.41,124.5l-6.5,4c-4.84-.35-9.76.63-13.75,3.5-6.9,4.97-4.71,7.25-1.25,10.5.04,1.36,1.58,2.37,2,3.5,1.13,3.06,1.06,6.79,1,10l-6,7c11.6-16.92,2.32-11.46-3.75-12.5-8.18-1.41-7.19-6.7,5.25-6.75-1.52-5.08-4.9-3.55-1.25-9.75-8.42,2.37-17.05,2.9-25.75,3.5.79-3.8.51-5.63,2-10,.62.33.74.45,1.5.5,4.45.3,11.97-5.47,16.75-7.5,4.89-2.08,10.18-3.43,15.25-5,4.2,1.35,10.77,6.28,14.5,9Z"/>
          <path class="cls-31" d="m110.91,163c-1.74,2.54-3.55,4.23-5.5,6.5-1.39-1.22-5.47-.95-6.5-1.5-6.05-3.27-5.6-23.28-6.5-25.25-.84-1.85-5.5-2.06-7-3.75.1-.46-.1-1.04,0-1.5,8.7-.6,17.33-1.13,25.75-3.5-3.65,6.2-.27,4.67,1.25,9.75-12.44.05-13.43,5.34-5.25,6.75,6.07,1.04,15.35-4.42,3.75,12.5Z"/>
          <path class="cls-53" d="m102.41,115.5c-2.27,4.06-9.65,3.72-13.5,12.5-.76-.05-.88-.17-1.5-.5,2.28-6.66,6.41-9.26,12.5-12.5-.1.66,1.28.6,2.5.5Z"/>
          <path class="cls-41" d="m105.41,169.5c-.08.1.08.4,0,.5-1.98,2.29-3.4,2.91-3,4-1.36-.18-2.64-.34-4-.5l.5-5.5c1.03.55,5.11.28,6.5,1.5Z"/>
          <path class="cls-1" d="m120.91,115.5c-5.07,1.57-10.36,2.92-15.25,5-4.78,2.03-12.3,7.8-16.75,7.5,3.85-8.78,11.23-8.44,13.5-12.5,5.85-.49,9.92-2.76,18.5,0Z"/>
        </g>
        <g>
          <path class="cls-26" d="m142.91,108.5c13.81,1.99,27.3,12.78,34.5,24.5-.68.08-1.34.32-2,.5-.49.14-.96.76-2.5.5-.05-.08-.08-.34-.5-1-6.61-10.45-22.96-21.16-35.5-21-1.68.02-3.99.47-5.5,1.25-.01.73,10.18,4.99,11.5,5.75,2.99,1.73,22.45,15.01,23,16.75.31.97-1.37.47-1,1.75-2,1.01-3.17,1.58-5,3-1.36,1.06-2.48,2.11-3.5,3.5-3.52-2.3-11.33-4.8-15.5-4-3.21.62-5.28,4.67-8.25,6-6.86,3.08-13.34,1.58-18.75-3.5-3.46-3.25-5.65-5.53,1.25-10.5,3.99-2.87,8.91-3.85,13.75-3.5,10.47.76,25.54,14.72,15,2.25-3.22-3.81-5.49-4.05-8.5-6.25-3.73-2.72-10.3-7.65-14.5-9-8.58-2.76-12.65-.49-18.5,0-1.22.1-2.6.16-2.5-.5,4.64-2.47,11.35-5.1,16.5-6,7-1.23,19.48-1.51,26.5-.5Z"/>
          <g>
            <path class="cls-51" d="m172.41,133c-1.78.92-3.79-3.36-5.75-5-.09-.07-.13,1.23-2.25-.5-5.17-4.23-11.82-10.69-18.25-13-3.36-1.21-9.48-1.07-9.25-2.5,12.54-.16,28.89,10.55,35.5,21Z"/>
            <g>
              <path class="cls-55" d="m128.91,128.5l6.5-4c3.01,2.2,5.28,2.44,8.5,6.25,10.54,12.47-4.53-1.49-15-2.25Z"/>
              <g>
                <path class="cls-48" d="m140.91,140c-6,8.29-16.29,13.98-25,6-.42-1.13-1.96-2.14-2-3.5,5.41,5.08,11.89,6.58,18.75,3.5,2.97-1.33,5.04-5.38,8.25-6Z"/>
                <path class="cls-2" d="m131.41,133.5c.06.22.46.97.5,1-9.59,1.55-14.57-4.24-.5-1Z"/>
                <path class="cls-13" d="m131.91,134.5s-.44-.78-.5-1c11,2.53,6.32,5.38.5,1Z"/>
              </g>
            </g>
          </g>
        </g>
        <g>
          <path class="cls-10" d="m162.41,158c-1.24,2.67-2.58,5.24-4.5,7.5-9.33,11.02-23.79,10.83-37,11.5-5.75-1.14-11.7-2.2-17.5-3-.32-.04-.68.04-1,0-.4-1.09,1.02-1.71,3-4,11.06-.96,51.22-.66,56-12.5h.5c-.05.61.45.46.5.5Z"/>
          <path class="cls-54" d="m156.41,144c4.02,2.62,8.29,8.98,5.5,13.5h-.5c3.19-7.91-4.9-1.96-16.75-1-7.98.65-18.15.08-26-1.5l-1.75,1c.06-3.21.13-6.94-1-10,8.71,7.98,19,2.29,25-6,4.17-.8,11.98,1.7,15.5,4Z"/>
          <path class="cls-32" d="m161.41,157.5c-4.78,11.84-44.94,11.54-56,12.5.08-.1-.08-.4,0-.5,1.95-2.27,3.76-3.96,5.5-6.5l6-7,1.75-1c7.85,1.58,18.02,2.15,26,1.5,11.85-.96,19.94-6.91,16.75,1Z"/>
        </g>
      </g>
      <g>
        <path class="cls-30" d="m95.91,318c-3.55,8.66-9.67,15.67-13,24.5l-17-9.5c1.17-3.77,9.65-18.53,12.5-24-1.13,3.95,10.7,6,17.5,9Z"/>
        <path class="cls-34" d="m103.91,290.5c-2.21,2.56-4.39,18.68-8,27.5-6.8-3-18.63-5.05-17.5-9,2.38-4.56,5.11-8.96,7.5-13.5,2.28-.26,4.32-1.37,6.5-2,1.47-.43,3.05-.6,4.5-1,2.02-.56,4-1.43,6-2,.26-.07.68.04,1,0Z"/>
        <path class="cls-42" d="m82.91,342.5l12.75,16c2.68.19,5.17-15.46,8.75-5-1.9,1.89-2.09,5.82-3,7.5-.24.44-3.58,3.18-5.5,8-11.56-10.07-21.83-21.49-31-33.75-.07-.6.77-1.51,1-2.25l17,9.5Z"/>
        <path class="cls-63" d="m107.41,289c-.39.76-1.83.79-1.25,1.5l6.75,2.75c-5.78,15.19-1.92,6.39,11,10.25-1,2.31-9.84,22.86-8.75,23.5,1.58.07,3.18-.09,4.75,0-.32,5.38-3.12,10.15-5,15-.89,2.29-1.58,4.75-2.5,7-2.32,5.66-.37,7.73-8,4.5-3.58-10.46-6.07,5.19-8.75,5l-12.75-16c3.33-8.83,9.45-15.84,13-24.5,3.61-8.82,5.79-24.94,8-27.5.12-.14,2.93-1.74,3.5-1.5Z"/>
      </g>
      <g>
        <path class="cls-12" d="m310.91,200c4.73,9.44,40.83,54.54,49.5,73.5,2.83,6.2,7.19,13.6,1.5,9.5-.07-.12.07-.38,0-.5-7.02-12.09-13.91-24.51-21.5-36.25-8.46-13.07-18.35-25.3-27-38.25-1.65-2.46-3.29-5.28-4.5-8,.64.09,1.35-.06,2,0Z"/>
        <path class="cls-33" d="m308.91,200c1.21,2.72,2.85,5.54,4.5,8-.28.18.43,2.63.5,2.75,3.49,6.35,17.65,23.82,23.5,34.5,3.3,6.03,5.17,12.9,8.5,19,2.42,4.43,8.09,10.34,9,14.75-3.58-1.76-4.76-1.88-5-2-2.32-1.14-2.84-1.92-3-2-17.24-23.72-31-49.59-45.5-75,2.32.05,3.88-.53,7.5,0Z"/>
        <path class="cls-33" d="m361.91,282.5c-2.57-.68-4.65-2.34-7-3.5-.91-4.41-6.58-10.32-9-14.75-3.33-6.1-5.2-12.97-8.5-19-5.85-10.68-20.01-28.15-23.5-34.5-.07-.12-.78-2.57-.5-2.75,8.65,12.95,18.54,25.18,27,38.25,7.59,11.74,14.48,24.16,21.5,36.25Z"/>
        <path class="cls-3" d="m301.41,200c14.5,25.41,28.26,51.28,45.5,75-.34-.17-1.67-.33-2-.5-6.53-3.32-22.52-12.2-27.5-16.5-1.07-.93-2.15-2.31-3.5-3-6.91-18.96-15.68-37.14-25-55,4.1-1.37,8.43-.09,12.5,0Z"/>
      </g>
      <path class="cls-14" d="m317.41,258l15,35c-2.73.15-5.79.5-8.5,1l-14-9c2.32-9.86,3.18-19.95,4-30,1.35.69,2.43,2.07,3.5,3Z"/>
      <path class="cls-8" d="m337.41,315.5c.85,2.86,2.89,4.44,3,8-4.81-.57-11.83-7.35-12.75-7.5-1.6-.25-1.1.77-1.75,1.5-8.77-7.83-10.87-9.94-23-12.5.81-1.55,3.48-7.53,4-9l23.25,9.5-6.25-11c5.74,6.16,9.42,13.76,13.5,21Z"/>
      <path class="cls-8" d="m323.91,294v.5l6.25,11-23.25-9.5c.82-2.33,2.37-8.3,3-11l14,9Z"/>
      <path class="cls-39" d="m325.91,317.5c-.2.23.54.72.5.75-1.66,1.27-22.86-7.33-26.5-8.25.97-1.5,2.18-3.43,3-5,12.13,2.56,14.23,4.67,23,12.5Z"/>
      <path class="cls-35" d="m172.91,134.5c8.13,14.33,11.34,31.85,12.5,48-3.1-12.11-6.3-24.08-11.5-35.5-1.72-3.77-3.62-7.32-5.5-11,1.47-.58,2.95-1.17,4.5-1.5Z"/>
      <g>
        <path class="cls-12" d="m152.41,223c-5.41,6.86-11.52,13.22-17,20-1.41-.15-1.59-.05-2.5.75-2.42,2.12-37.1,43.2-40.5,49.75-2.18.63-4.22,1.74-6.5,2,.02-.04-.78-.19,0-1,18.18-25.62,41.74-46.78,61-71.5,2.35-1,3.5-.19,5.5,0Z"/>
        <path class="cls-3" d="m169.91,227.5l-25.5,43.75-3,1.75c-3.13.62-5.7,2.85-6,3-8.3,4.14-19.43,7.77-28,12.5,3.18-5.03,15.47-17.85,20.5-24,9.58-11.72,12.43-15.63,21-28,2.85-4.12,6.37-7.9,8.5-12.5,3.88.63,11.54,1.59,12.5,3.5Z"/>
        <path class="cls-33" d="m157.41,224c-2.13,4.6-5.65,8.38-8.5,12.5-.56,0,.03-1.66-.75-1.5-2.16.43-15.92,21.64-18.25,25-1.09.29-1.42-1.22-2.25-1-1.94.52-23.35,27.03-24.75,31.5-2,.57-3.98,1.44-6,2-.03-1.13.22-4.16.5-4.75.32-.67,8.29-10.1,9.5-11.5,3.17-3.64,8.86-7.89,14-14,5.11-6.06,9.51-13.08,14.5-19.25,5.48-6.78,11.59-13.14,17-20,1.36.13,3.38.74,5,1Z"/>
        <path class="cls-45" d="m129.91,260c-1.28,1.84-3.27,3.09-2,4.5-5.03,6.15-17.32,18.97-20.5,24-.07.12.07.37,0,.5-.57-.24-3.38,1.36-3.5,1.5-.32.04-.74-.07-1,0,1.4-4.47,22.81-30.98,24.75-31.5.83-.22,1.16,1.29,2.25,1Z"/>
        <path class="cls-46" d="m135.41,243c-4.99,6.17-9.39,13.19-14.5,19.25-5.14,6.11-10.83,10.36-14,14-1.21,1.4-9.18,10.83-9.5,11.5-.28.59-.53,3.62-.5,4.75-1.45.4-3.03.57-4.5,1,3.4-6.55,38.08-47.63,40.5-49.75.91-.8,1.09-.9,2.5-.75Z"/>
        <path class="cls-33" d="m148.91,236.5c-8.57,12.37-11.42,16.28-21,28-1.27-1.41.72-2.66,2-4.5,2.33-3.36,16.09-24.57,18.25-25,.78-.16.19,1.49.75,1.5Z"/>
      </g>
      <g>
        <path class="cls-14" d="m141.41,273c-4.18,8.96-4.95,17.72-4.5,27.5-2.17,2.5-.44,14.73.5,20-2.05,6.64-11.72,6.85-17.5,6.5-1.57-.09-3.17.07-4.75,0-1.09-.64,7.75-21.19,8.75-23.5,3.4-7.88,10.7-19.04,11.5-27.5.3-.15,2.87-2.38,6-3Z"/>
        <path class="cls-21" d="m145.91,333.5c3.41,6.86,8.62,14.58,13.5,20.5l-8.5.25,2.25,6.75c-7.02-1.64-13.85-3.96-20.75-6,3.93-6.46,7.78-12.91,11.5-19.5.35-.61,1.14-2.15,2-2Z"/>
        <path class="cls-8" d="m145.91,333.5c-.86-.15-1.65,1.39-2,2-1.46.32-2.26-.62-3-.5-.49-5.77-3.19-12.78-3.5-14.5-.94-5.27-2.67-17.5-.5-20,.52,11.36,3.95,22.83,9,33Z"/>
        <path class="cls-8" d="m143.91,335.5c-3.72,6.59-7.57,13.04-11.5,19.5-3.09-.91-6.18-2.12-9.25-3-.06-.02-.4.75-1.25.5-.49-.14-5.66-2.68-9.5-3.5.92-2.25,1.61-4.71,2.5-7,8.52-1.57,16.81-4.08,25.25-6,.45-.1.69-.99.75-1,.74-.12,1.54.82,3,.5Z"/>
        <path class="cls-21" d="m121.91,352.5l-5.25,14.5-15.25-6c.91-1.68,1.1-5.61,3-7.5,7.63,3.23,5.68,1.16,8-4.5,3.84.82,9.01,3.36,9.5,3.5Z"/>
        <path class="cls-14" d="m135.41,276c-.8,8.46-8.1,19.62-11.5,27.5-12.92-3.86-16.78,4.94-11-10.25l-6.75-2.75c-.58-.71.86-.74,1.25-1.5.07-.13-.07-.38,0-.5,8.57-4.73,19.7-8.36,28-12.5Z"/>
        <path class="cls-6" d="m140.91,335c-.06,0-.3.9-.75,1-8.44,1.92-16.73,4.43-25.25,6,1.88-4.85,4.68-9.62,5-15,5.78.35,15.45.14,17.5-6.5.31,1.72,3.01,8.73,3.5,14.5Z"/>
      </g>
      <path class="cls-14" d="m344.91,274.5c-.08,2.39-4.86,1.77-6.5,3.75l4.5,14c-.48,1.15-8.92.66-10.5.75l-15-35c4.98,4.3,20.97,13.18,27.5,16.5Z"/>
      <g>
        <path class="cls-58" d="m312.41,344.5c2.96,2.03,6.11,4.35,9,6.5,1.24.92,3.45,3.29,5,4.5-1.48-.36-5.62.2-7,.5-8.02-7.32-27.28-17.79-34-23-.94-.73-8.22-7.75-8-9,11.69,6.84,23.77,12.79,35,20.5Z"/>
        <path class="cls-36" d="m335.91,349.5c1.85,1.33,6.86,10.84,10,13l-1.25.5c-1.85-3.1-6.21-2.87-10-5-6.57-3.69-16.55-13.94-13.25-7-2.89-2.15-6.04-4.47-9-6.5l.5-4.5c10.16,5.18,21.99,8.77,23,9.5Z"/>
        <path class="cls-61" d="m311.41,364c3.89,3.92,7.7,7.99,11.5,12-.59.36-.44.74-3,2-3.69-2.74-8.15-4.61-12-7-.77-.48-2.99-2.56-4.5-3.5,4.28,1.17,6.53-.68,6-5.5.29,1,1.37,1.36,2,2Z"/>
        <path class="cls-12" d="m327.41,371.5c.51.42,1.04.78,1.5,1.25-1.76,2.08-5.7,3.07-6,3.25-3.8-4.01-7.61-8.08-11.5-12v-1c3.78,2.43,15.04,7.72,16,8.5Z"/>
        <path class="cls-24" d="m312.91,359c4.19,3.06,13.66,11.16,15,12l-.5.5c-.96-.78-12.22-6.07-16-8.5-.11-.07-.99-1.43-2-1.5-.04-.25-1.45-.55-1-5,1.03.73,3.63,1.87,4.5,2.5Z"/>
        <path class="cls-25" d="m281.91,357c10.61,4.6,18.49,9.58,19.5,10-7.18,4.56-15.01,8.29-23,11-4.68,1.59-8.62,2-10,3.5l-.75-1c-33.71,1.49-72.05-10.91-91.25-40,14.4,13.84,84.33,20.78,105.5,16.5Z"/>
        <path class="cls-9" d="m213.91,317.5c-.65.94-1.44,1.74-2,2.75,18.05,11.2,37.38,20.43,56,30.75-33.99-5.92-68.24-12.65-99-29-.45-5.48.08-11.01,1-16.5,9.73,3.67,39.51,9.41,43.75,11,.39.15.25.67.25,1Z"/>
        <path class="cls-57" d="m267.91,351c5.03,1.07,9.38,4,14,6-21.17,4.28-91.1-2.66-105.5-16.5-4.86-4.67-6.98-12.13-7.5-18.5,30.76,16.35,65.01,23.08,99,29Z"/>
        <path class="cls-60" d="m183.41,289c1.17.14,4.95,1.76,7,2h3l17.5,6c-.06.14.05.35,0,.5-.43,1.31-.99,2.47-1.5,3.75l11.5,7.5c.23,1.32-1.29,2.11-2.5,3.75-1.04,1.42-3.44,3.47-4.5,5,0-.33.14-.85-.25-1-4.24-1.59-34.02-7.33-43.75-11,1.75-10.45,1.11-13.27,12-16.5.49.07,1.01-.06,1.5,0Z"/>
        <path class="cls-62" d="m337.41,347.5c-1.19.55-1.77.51-1.5,2-1.01-.73-12.84-4.32-23-9.5-7.56-3.86-14.43-9.16-22-13,.83-.24.06-1.21,1.75-1,2.22.27,36.73,15.37,41,18,4.11,2.54,3.54,3.35,3.75,3.5Z"/>
        <path class="cls-50" d="m286.41,325c1.47.75,3.07,1.28,4.5,2,7.57,3.84,14.44,9.14,22,13l-.5,4.5c-11.23-7.71-23.31-13.66-35-20.5-1.31-.77-2.65-1.7-4-2.5-3.22-1.92-11.25-6.78-10-7.5,7.75,3.57,15.39,7.13,23,11Z"/>
        <path class="cls-61" d="m319.41,356c-.45.1-.54.39-1,.5q-8-3.25-16-6.5c.08-1.35-1.22-1.8-2-2.5-.94-.84-1.95-1.81-3-2.5-3.99-3.74-8.12-7.74-12.5-11l.5-1c6.72,5.21,25.98,15.68,34,23Z"/>
        <path class="cls-62" d="m277.41,324c-.22,1.25,7.06,8.27,8,9l-.5,1c-4.41-3.28-9.34-6.08-14-9-.28-.17-.72-.33-1-.5,1.65-.66,2.47,1.21,3.5-3,1.35.8,2.69,1.73,4,2.5Z"/>
        <path class="cls-19" d="m318.41,356.5c-1.77.44-5.27.57-5.5,2.5-.87-.63-3.47-1.77-4.5-2.5-1.76-1.25-4.93-4.67-6.5-6.5h.5q8,3.25,16,6.5Z"/>
        <path class="cls-10" d="m299.91,349l2,1c1.57,1.83,4.74,5.25,6.5,6.5-.45,4.45.96,4.75,1,5,.03.16-.02.34,0,.5.53,4.82-1.72,6.67-6,5.5-.66-.18-1.9-.46-2-.5-1.01-.42-8.89-5.4-19.5-10-4.62-2-8.97-4.93-14-6-18.62-10.32-37.95-19.55-56-30.75.56-1.01,1.35-1.81,2-2.75,1.06-1.53,3.46-3.58,4.5-5,26.07,14.57,53.84,25.42,81.5,36.5Z"/>
        <path class="cls-18" d="m311.41,363v1c-.63-.64-1.71-1-2-2-.02-.16.03-.34,0-.5,1.01.07,1.89,1.43,2,1.5Z"/>
        <path class="cls-10" d="m212.91,294c7.17,3,14.72,4.83,22,7.5,7.78,2.86,15.43,6.13,23,9.5,1.9.85,3.66,2.15,5.5,3-1.25.72,6.78,5.58,10,7.5-1.03,4.21-1.85,2.34-3.5,3-19.51-12.08-36.91-20.43-59-27,.05-.15-.06-.36,0-.5.44-1.07,1.12-2.12,2-3Z"/>
        <path class="cls-35" d="m269.91,324.5c.28.17.72.33,1,.5,7.16,5.85,14.23,12.67,21.75,18,.29.21,2.94.81,4.75,2,1.05.69,2.06,1.66,3,2.5l-.5,1.5c-27.66-11.08-55.43-21.93-81.5-36.5,1.21-1.64,2.73-2.43,2.5-3.75l-11.5-7.5c.51-1.28,1.07-2.44,1.5-3.75,22.09,6.57,39.49,14.92,59,27Z"/>
        <g>
          <path class="cls-62" d="m277.91,260.5c6.03,4.55,8.08,8.81,8,16.5-16.45,2.03-37.02,5.69-53,10,4.67-3.31,10.07-4.53,3.5-9.5,6.56-2.44,27.53-10.98,18-9-.32-5.83-18.87,6.81-19.5,1,16.9-5.13,25.12-7.3,43-9Z"/>
          <path class="cls-10" d="m254.41,268.5c-9.09,1.89-51.64,17.45-64,22.5-2.05-.24-5.83-1.86-7-2,16.84-7.2,33.96-14.18,51.5-19.5.63,5.81,19.18-6.83,19.5-1Z"/>
          <path class="cls-9" d="m285.91,277c-.03,2.76-.82,5.82-1.5,8.5-15.33,8.61-32.6,11.89-49.5,16-7.28-2.67-14.83-4.5-22-7.5.07-.07-.47-.7,1.25-1.5,6.36-1.42,12.47-3.81,18.75-5.5,15.98-4.31,36.55-7.97,53-10Z"/>
          <path class="cls-57" d="m284.41,285.5c-3,11.79-16.21,26.57-19.75,27.5-1.67.44-5.19-2.86-6.75-2-7.57-3.37-15.22-6.64-23-9.5,16.9-4.11,34.17-7.39,49.5-16Z"/>
          <path class="cls-62" d="m236.41,277.5c6.57,4.97,1.17,6.19-3.5,9.5-6.28,1.69-12.39,4.08-18.75,5.5-1.72.8-1.18,1.43-1.25,1.5-.88.88-1.56,1.93-2,3l-17.5-6c5.65-.41,35.61-10.75,43-13.5Z"/>
          <path class="cls-35" d="m236.41,277.5c-7.39,2.75-37.35,13.09-43,13.5h-3c12.36-5.05,54.91-20.61,64-22.5,9.53-1.98-11.44,6.56-18,9Z"/>
        </g>
        <path class="cls-38" d="m284.91,334c4.38,3.26,8.51,7.26,12.5,11-1.81-1.19-4.46-1.79-4.75-2-7.52-5.33-14.59-12.15-21.75-18,4.66,2.92,9.59,5.72,14,9Z"/>
        <path class="cls-35" d="m302.41,350h-.5l-2-1,.5-1.5c.78.7,2.08,1.15,2,2.5Z"/>
      </g>
    </g>
  </g>
</svg>