<svg width="146" height="401" viewBox="0 0 146 401" fill="none" xmlns="http://www.w3.org/2000/svg">
<g clip-path="url(#clip0_56_513)">
<path d="M48.1136 227.783C50.443 229.157 61.7215 233.112 64.1515 233.397C64.4699 233.431 64.8218 234.017 65.9614 233.799C67.6205 233.498 69.3466 232.911 70.9722 232.593C72.2291 232.358 73.3519 232.09 74.5753 231.788C81.5803 231.956 95.2217 227.699 99.8303 222.169C102.21 220.527 102.998 219.756 104.64 217.359C106.433 220.895 104.791 222.973 102.629 225.772C101.322 227.481 85.0326 243.117 81.3792 244.022L80.5748 254.245C80.0386 253.725 78.966 252.586 78.3627 253.44C76.4522 256.239 91.5181 311.677 92.5907 319.402L96.5959 353.69C93.4956 354.696 90.7305 347.054 87.9821 347.674C83.6751 348.646 96.177 355.148 87.9821 355.701C87.6972 355.718 79.9548 354.227 85.3678 356.506C85.0493 356.942 84.4963 357.26 84.1611 357.713C80.8262 352.249 85.2337 353.406 85.3678 353.104C85.77 352.165 80.2397 351.26 87.781 333.848C83.3232 324.346 85.5689 319.939 84.9823 313.403C84.6136 309.364 83.893 298.538 83.7757 297.767C83.7422 297.583 82.6529 295.84 82.5691 295.354C80.1223 280.908 76.2176 266.713 72.9497 252.452C71.7766 247.374 70.4527 233.33 68.5422 238.023C67.5367 240.486 66.5312 282.634 62.1237 290.561C63.8834 298.856 61.135 307.655 60.9171 316.017C60.7998 320.592 61.6042 325.318 62.1237 329.86C62.0734 330.128 61.2355 329.256 60.9171 330.664C60.3473 333.245 57.2638 345.881 57.314 346.702C57.5822 351.663 67.034 346.953 64.5369 352.718C64.1012 353.707 50.4263 356.489 46.8902 347.708C50.0744 351.73 54.9176 349.601 54.5154 348.713C54.197 348.311 53.359 348.596 53.3088 348.512C51.415 344.557 50.5604 344.641 48.0969 341.49C46.1864 339.043 45.1976 334.703 42.885 336.077C39.483 319.386 32.8131 294.399 32.059 278.126C31.3886 263.529 35.1425 233.95 36.8687 217.778C39.6003 217.778 42.399 224.448 48.0969 227.8L48.1136 227.783Z" fill="url(#paint0_linear_56_513)"/>
<path d="M59.3418 4.02207C59.3418 4.02207 59.4759 4.74269 59.1407 4.82648C48.4488 2.17862 54.5991 13.9934 61.5539 8.02737C62.6767 15.9207 64.118 7.79275 69.9667 7.22296C66.682 16.9094 67.235 15.3509 74.3742 10.0216C76.3014 11.4629 69.7153 18.1831 81.1949 10.0216C81.3289 15.8034 76.7874 19.3394 85.2001 13.6247C83.9935 22.0041 87.4625 17.7306 88.401 12.4181C91.9203 14.2448 89.792 18.1999 95.0206 16.0212C94.6687 16.8592 93.1437 17.7809 93.0096 18.2334C92.5739 19.7081 94.1995 24.0989 91.4008 22.2387C92.4901 24.1156 89.5238 35.2601 90.3953 36.0813C90.8813 36.5338 94.8363 35.3104 94.1995 42.0976C92.9593 37.8577 90.6131 34.5395 87.3787 39.2989C86.3397 37.8074 88.5351 31.2213 87.781 28.2718C84.2282 26.5792 86.6079 21.8197 83.1724 20.0433C79.4352 20.8645 75.8489 20.1103 72.1453 20.0433C70.0169 20.0098 67.8551 19.9595 65.7268 20.0433C64.9224 20.0768 64.118 19.9763 63.3135 20.0433C61.9729 20.1438 55.4035 20.7974 54.9008 21.451C54.5321 24.7525 53.3758 27.9198 53.292 31.2716C52.3032 31.0872 52.0183 35.9975 52.4876 37.0868C52.3703 37.6901 50.5603 37.3047 50.8787 38.0923C50.9961 38.3772 53.1411 39.6844 53.292 39.7011C54.0629 43.1702 54.1466 46.6392 54.9008 50.125C55.2192 51.6165 55.4538 52.0355 55.7052 52.9237C56.9286 57.3144 58.705 61.0851 61.7215 64.7553C62.8276 66.096 65.1067 68.6433 66.5312 69.3639C77.5918 74.9445 85.0996 58.6216 86.1721 49.9239C86.5576 49.572 89.0546 49.706 89.7752 49.3206C89.8087 52.1696 89.8758 55.1861 88.9708 57.9345C87.429 62.6269 82.016 64.6882 81.7479 68.1573C79.6698 71.3414 77.1225 75.2294 73.3351 76.5701C67.4529 78.6482 65.5257 75.4975 61.5036 71.7604C61.0009 72.1626 61.5036 79.8045 61.7047 80.9776C61.7047 81.4804 61.269 81.4468 60.9003 81.3798C58.9899 80.9944 56.6102 80.4916 56.0906 78.5811C55.9063 77.7767 55.0851 76.5366 56.0906 75.7824C57.6157 75.7322 58.9899 76.3522 60.4981 75.9835L60.9003 66.3641C52.7222 63.1632 50.9793 58.8227 51.281 50.5272C51.281 50.4099 51.8507 48.6502 52.0854 48.3151C47.0411 45.1812 46.84 40.7737 47.6779 35.2769C48.918 34.6568 49.4375 35.964 49.6889 35.478C50.5771 23.0766 45.3484 14.5967 45.2814 13.0214C44.9965 6.56937 49.823 7.85979 50.2922 7.60841C51.2642 7.07213 50.7614 0.0837929 59.3083 4.00531L59.3418 4.02207Z" fill="#0E0C0E"/>
<path d="M19.6578 140.353L21.2666 155.386C22.7246 156.794 22.6576 155.855 22.8754 155.989C23.9982 156.643 30.5005 159.257 31.2882 159.19C30.3162 164.687 30.8525 174.524 38.7122 173.217C34.422 169.061 34.9415 163.095 34.5058 157.581C34.4723 157.213 35.3772 152.822 34.908 150.358C35.2264 149.872 36.0308 149.537 36.5168 149.152C37.2039 148.599 37.1872 147.61 38.5278 147.945C38.5278 148.079 38.5278 148.213 38.5278 148.347L38.1256 149.353L45.1474 162.391C49.4544 156.777 46.1027 157.581 44.7452 151.967H56.1745C56.5935 153.056 57.113 158.738 56.9789 159.994C56.2751 166.279 52.5044 164.067 47.5607 164.402C45.9519 171.575 45.2815 169.346 41.3433 173.619L34.3215 173.217C27.065 178.328 -0.318343 179.166 6.8526e-05 167.234C10.2395 178.881 30.6178 171.022 28.6739 170.033C28.3387 169.865 26.093 169.983 21.2498 168.022C20.7471 163.078 15.0827 159.659 13.6247 155.788C3.98859 154.9 9.41834 152.587 6.80402 143.956C7.92684 140.588 8.49662 137.018 10.4071 133.935C11.1445 134.622 18.602 139.767 19.6243 140.353H19.6578Z" fill="#471C13"/>
<path d="M111.075 288.734C108.461 306.548 107.556 324.564 104.255 342.261C110.103 349.618 107.12 348.177 103.852 355.701C101.556 355.752 99.7633 356.875 98.8416 356.908C96.3278 356.975 86.7587 357.076 85.4013 356.506C79.9883 354.227 87.714 355.718 88.0156 355.701C96.2105 355.148 83.7087 348.646 88.0156 347.674C90.7808 347.054 93.5292 354.696 96.6295 353.69C98.7913 352.987 101.355 349.015 102.646 347.071C101.774 339.948 100.719 332.792 100.233 325.62C100.903 324.698 101.322 326.391 101.439 325.821C101.791 324.044 101.758 315.732 102.646 309.783C103.333 305.158 105.914 296.259 106.249 292.538C107.405 280.003 103.467 267.987 102.646 255.653C101.975 245.731 103.031 235.71 102.646 225.772C104.808 222.957 106.45 220.878 104.657 217.359C104.808 217.141 104.992 216.823 105.059 216.555C108.494 229.392 112.466 270.702 111.88 282.114L111.075 288.734Z" fill="#833D1C"/>
<path d="M134.336 121.919C130.046 124.935 126.024 128.304 121.901 131.538C121.415 131.589 121.516 131.153 121.499 131.136L127.113 126.528L116.89 105.479C115.399 105.948 115.985 109.149 115.081 112.098C113.807 116.305 111.461 120.327 110.673 124.734C110.288 124.5 108.025 123.176 107.874 123.126C113.287 107.255 110.019 108.613 105.863 122.321C105.562 123.293 105.126 123.511 105.059 124.332C104.204 122.924 105.863 122.991 103.45 122.321C104.824 117.109 105.863 111.847 107.455 106.685C109.316 107.942 112.919 105.596 113.472 104.071C114.176 102.144 113.12 97.3005 111.058 97.0491C110.019 96.9318 109.416 99.5126 109.047 100.25C108.93 100.501 108.729 100.853 108.645 101.054L97.216 85.4186L96.2105 97.8535C94.6687 96.9318 92.6074 96.781 91.4008 95.2392C93.0096 84.7818 91.3673 92.8762 88.9876 97.4513C86.7922 95.4235 84.0606 91.3009 81.1613 89.0385C78.7314 90.9155 74.1228 92.6416 72.1453 93.8482C71.6593 93.8817 71.7933 93.5633 71.7431 93.446C71.6928 93.3454 71.7766 93.1779 71.7431 93.0438C74.8434 90.2116 79.5693 87.4464 81.3624 83.4244C84.7141 79.2179 87.362 76.1176 83.7757 75.7992C89.0546 71.9782 94.5011 77.0561 93.5961 83.4244C94.0486 82.9384 94.4173 82.4188 95.205 82.6199C96.1602 82.8713 112.047 90.8652 112.852 91.435C122.052 98.2055 128.588 113.841 134.303 121.919H134.336Z" fill="#FCFCFA"/>
<path d="M50.1246 181.663C51.4485 185.417 51.1972 189.992 52.9233 193.696L52.1189 194.702C52.5714 197.115 52.806 199.679 52.9233 202.126C52.4205 202.042 51.5994 202.243 51.3145 202.126C51.281 202.126 51.3648 202.042 50.9123 201.723C50.0241 201.103 46.1361 197.232 45.0971 197.316C43.7732 197.416 42.9352 200.818 42.885 201.723C42.8514 202.193 42.8012 202.98 42.885 203.332C43.2872 205.008 44.9463 205.544 45.6836 206.935C44.8457 206.835 39.7176 203.366 39.6673 208.142C39.6673 209.181 40.0528 208.896 40.0695 208.946C41.5946 212.734 44.477 209.483 46.0858 214.56C46.1529 214.762 46.0188 215.147 46.0858 215.365C46.3037 216.069 46.2031 218.683 47.0913 218.968H53.3087C52.9401 223.878 55.5544 225.604 47.8957 224.984C47.0913 226.208 48.432 226.074 48.4991 226.593C48.4991 226.694 47.393 225.99 48.0969 227.8C42.399 224.448 39.6003 217.778 36.8687 217.778C36.986 216.655 35.5783 216.421 35.662 215.566L43.2872 174.859C50.1079 174.859 46.0691 175.329 45.7004 175.865C45.2814 176.451 46.9238 176.485 46.5048 177.071C46.1361 177.591 44.5273 176.686 44.896 178.278C45.449 180.557 47.8455 175.262 50.1079 181.68L50.1246 181.663Z" fill="#357884"/>
<path d="M64.1682 346.87C64.3358 348.931 65.3246 350.741 64.9726 352.886C64.7715 353.757 63.8666 355.417 63.766 356.087C63.3471 358.936 64.4866 356.405 66.5647 360.494C63.8331 364.265 62.7605 359.02 61.755 368.12C60.85 368.254 61.0176 367.818 60.9506 367.717C58.9228 364.315 57.7832 368.807 57.5486 368.924C55.3365 369.997 53.1747 364.667 48.9348 363.712C49.0521 363.394 48.851 362.606 48.9348 362.103C50.7782 362.388 51.901 362.455 53.7444 362.505C57.9173 362.64 67.654 363.528 61.1685 358.5C60.7327 360.746 49.2029 359.958 54.75 358.098C53.2082 357.964 51.5994 357.847 50.1414 357.294C44.4602 355.165 48.3482 353.741 48.1304 353.087C48.0298 352.752 46.5886 352.534 46.5215 352.484C39.5165 347.356 44.477 342.831 44.5105 341.054C43.991 339.446 43.2369 337.686 42.9017 336.044C45.2144 334.669 46.2031 339.01 48.1136 341.457C50.5771 344.607 51.4318 344.507 53.3255 348.479C48.2141 347.255 44.7116 342.211 46.907 347.674C50.443 356.456 64.118 353.674 64.5537 352.685C67.0507 346.92 57.5989 351.629 57.3308 346.669C57.2805 345.847 60.3808 333.211 60.9338 330.631C61.2355 329.223 62.0902 330.094 62.1405 329.826C61.6209 325.285 60.8165 320.559 60.9338 315.984C62.9616 325.905 63.3471 336.63 64.1347 346.853L64.1682 346.87Z" fill="#27120C"/>
<path d="M79.4019 3.21765C79.8543 3.61986 79.9381 4.05558 80.4074 4.42427C88.1665 0.35193 88.3509 8.02737 88.8201 8.42958C89.7251 9.21724 98.1211 8.64744 95.0375 16.0547C89.8089 18.2166 91.9372 14.2783 88.4179 12.4516C87.4627 17.7641 84.0104 22.0376 85.2171 13.6583C76.8043 19.373 81.3458 15.8201 81.2118 10.0552C69.7322 18.2166 76.3183 11.4964 74.3911 10.0552C67.2519 15.3844 66.6989 16.9262 69.9836 7.25648C64.1349 7.82627 62.6769 15.9542 61.5708 8.06089C54.616 14.0102 48.4657 2.19538 59.1576 4.86C59.4928 4.7762 59.3252 4.07234 59.3587 4.05558C61.4703 3.58634 63.4981 3.06682 65.5761 2.44676C70.1847 3.888 74.743 1.32393 79.4186 3.25117L79.4019 3.21765Z" fill="#212026"/>
<path d="M138.341 135.946C135.576 137.102 140.151 141.392 141.14 145.766C140.436 146.805 125.923 151.263 123.493 154.783C119.622 155.151 115.784 155.838 111.863 155.587C111.846 155.218 111.528 155.185 111.461 154.783C111.41 154.531 111.511 154.213 111.461 153.978C111.444 153.894 112.332 154.464 111.058 152.369L114.259 150.962L109.45 150.76C109.249 150.543 108.796 150.09 108.645 149.956C111.444 149.705 117.025 147.258 117.46 147.157C117.929 147.057 118.633 148.079 126.677 145.549C128.152 145.079 127.817 144.778 127.884 144.744C128.102 144.677 128.672 145.431 132.291 143.739C131.755 141.828 130.213 140.621 129.091 139.13C128.001 137.672 126.862 136.247 125.89 134.722C125.437 132.829 132.811 129.309 134.705 127.902C135.962 130.499 137.001 133.348 138.308 135.929L138.341 135.946Z" fill="#C46F49"/>
<path d="M83.407 390.978C83.9935 395.067 92.3728 393.174 92.2219 394.581C85.9543 394.548 95.5569 395.872 98.0371 396.19C105.361 397.112 112.902 397.43 120.292 397.799C124.013 397.983 127.817 398.788 131.521 397.799C129.409 404.368 99.1264 398.888 92.6241 398.201C83.7254 397.263 74.8937 395.654 65.9614 395L53.7277 399.408C45.449 401.469 27.752 400.782 19.2387 399.006C18.803 398.905 17.6466 399.19 17.6299 398.805C19.3728 398.654 26.7633 396.995 27.2493 396.995C27.9196 396.995 35.3101 398.654 40.4885 399.006C44.3262 399.257 48.0633 399.777 51.9178 399.006C55.3365 396.659 68.0897 394.648 68.9612 391.381L83.3902 390.978H83.407Z" fill="#0E0C0E"/>
<path d="M75.7986 161.218C76.6868 162.491 82.2507 170.67 82.8204 170.837C89.3395 172.882 92.1046 168.189 93.8475 162.81C95.7412 162.659 98.8751 162.626 100.668 163.212C101.221 163.497 101.037 163.598 101.07 163.614C99.8806 166.882 100.367 170.267 99.8638 173.636C99.4951 176.133 99.3108 178.563 98.0539 180.859L81.0105 177.256C81.0105 177.256 80.4575 177.407 80.6083 176.451C80.8765 176.451 81.1446 176.451 81.4127 176.451C84.2449 176.602 89.6076 178.178 90.0266 178.06C90.1271 178.027 90.1439 176.15 90.0266 176.049C89.3395 175.53 75.7819 172.748 73.3854 171.642C73.3351 168.173 73.7038 164.67 73.3854 161.218C73.6871 161.201 73.8211 161.151 73.7876 160.816C76.0165 160.598 75.6981 161.184 75.7986 161.218Z" fill="#357884"/>
<path d="M64.5705 161.218C64.47 166.463 63.8499 171.591 63.7661 176.854C61.3696 177.021 58.9564 177.289 56.5432 177.256C56.2415 176.585 56.3421 175.211 55.7388 174.843C55.0852 174.34 44.5441 173.636 42.9018 174.44C42.2985 174.34 42.0974 173.401 41.293 173.636C45.2312 169.362 45.9016 171.591 47.5104 164.419C52.4541 164.084 56.2415 166.296 56.9286 160.011C57.6995 161.067 62.0903 161.134 64.5538 161.218H64.5705Z" fill="#357884"/>
<path d="M94.2331 379.348C98.6406 381.577 98.7914 380.471 99.0428 380.554C99.512 380.705 101.557 381.325 101.456 380.957L107.07 386.169C109.534 386.169 108.914 386.772 109.483 386.973C115.03 388.867 121.399 389.135 127.13 390.174C127.264 390.191 127.398 390.174 127.532 390.174C127.951 390.224 128.353 390.023 128.337 390.576C124.7 391.649 114.712 391.699 110.69 391.381C100.953 390.61 102.361 387.744 100.467 387.375C98.9422 387.074 93.6968 388.984 93.2443 388.984C91.1495 388.951 86.2225 386.202 85.8203 386.185C86.8091 382.23 85.8036 377.018 89.4234 374.153C89.7753 375.007 90.4792 375.711 90.2278 376.767C91.3506 377.99 92.7918 378.644 94.2331 379.381V379.348Z" fill="#091A1B"/>
<path d="M21.2498 168.039C26.0762 169.999 28.3219 169.865 28.6738 170.05C30.6178 171.038 10.2394 178.881 0 167.251C0.0502755 165.273 1.18985 163.145 1.60882 161.235C3.72039 167.988 4.96051 155.855 5.8152 155.62C10.4908 162.274 13.6917 164.989 21.2498 168.055V168.039Z" fill="#673633"/>
<path d="M110.673 391.783C116.891 392.52 123.979 392.654 129.929 393.392C130.381 393.442 130.867 393.358 131.336 393.392C132.392 394.112 131.437 394.263 131.537 394.598C127.616 396.425 124.683 397.33 120.309 397.397C113.723 397.514 100.786 394.649 92.2388 394.598C92.3896 393.191 83.9936 395.084 83.4238 390.995L83.826 388.582C83.8596 388.314 83.759 387.979 83.826 387.777L92.4399 390.191C103.082 386.068 100.987 390.325 104.07 391.397C106.098 392.101 108.696 391.565 110.69 391.8L110.673 391.783Z" fill="#0E0C0E"/>
<path d="M145.966 156.006C145.933 156.358 145.648 156.408 145.564 156.81C136.699 162.642 121.884 162.743 111.88 160.011C112.014 159.324 111.947 156.659 111.88 155.604C115.801 155.855 119.639 155.168 123.51 154.799C136.079 153.609 140.486 151.313 141.358 151.598C141.659 151.699 144.508 156.14 145.966 156.006Z" fill="#A6502C"/>
<path d="M83.0049 75.7992C82.9714 77.8102 82.2005 81.6312 81.3961 83.4244C79.5862 87.4464 74.8603 90.2116 71.7767 93.0438C67.2519 77.6259 71.7432 80.8771 73.3855 77.6091C73.4693 77.4415 73.3353 76.9723 73.3855 76.6036C77.1897 75.2629 79.737 71.3582 81.7983 68.1908L83.0049 75.816V75.7992Z" fill="#A6502C"/>
<path d="M92.6242 44.9298C92.8253 45.3656 92.8086 45.7007 93.0264 46.1365C92.088 47.7956 91.5349 48.4659 89.8256 49.3373C89.0882 49.7228 86.6079 49.5887 86.2225 49.9407C85.1332 58.6551 77.6254 74.978 66.5815 69.3806C66.6486 67.2691 71.961 68.0567 74.9943 64.3698C74.2402 63.733 73.7207 64.5709 73.3855 64.5709L72.9833 62.9621C73.972 62.7945 74.9273 62.2415 75.782 61.7555C78.2957 60.331 79.6867 58.3367 81.3961 56.1413C83.9769 54.6666 83.0384 54.2979 83.4071 53.7281C85.7868 49.9239 85.3511 45.1812 86.6079 40.891C89.7083 42.2987 91.0322 41.3435 92.6242 44.8963V44.9298Z" fill="#C46F49"/>
<path d="M94.2331 367.734C94.1493 375.493 97.9702 369.075 104.054 368.941C107.606 368.857 105.729 369.494 106.266 371.354C106.953 373.784 108.025 371.874 108.679 372.762C108.863 373.013 107.908 373.918 108.277 374.572C105.746 376.75 102.378 375.745 101.456 380.99C101.557 381.359 99.512 380.739 99.0428 380.588L101.255 374.572L94.2331 379.381C92.7919 378.644 91.3506 377.99 90.2278 376.767C90.4792 375.711 89.7753 375.024 89.4234 374.153C89.3061 373.885 88.1833 369.444 88.2168 368.539C90.1943 367.952 92.1718 368.12 94.2331 367.734Z" fill="#471C13"/>
<path d="M102.663 164.419C105.16 161.402 110.824 165.139 111.88 160.011C121.868 162.726 136.699 162.642 145.564 156.81C145.229 158.352 143.453 161.553 142.162 162.424C138.76 164.72 123.778 166.312 119.304 166.028C112.567 165.609 108.612 162.039 102.663 164.419Z" fill="#471C13"/>
<path d="M47.7282 83.8266C47.6779 84.0277 47.3595 84.5975 47.326 84.631C46.9238 85.0332 38.9635 90.2786 37.7066 91.0495C37.5222 91.1668 36.1983 91.5858 33.7013 93.0606C33.651 93.0941 33.3326 92.9768 32.4947 93.4628C32.2768 93.5968 30.8691 93.8482 29.8804 94.2672L28.8749 95.6749C26.0259 101.641 21.6184 106.769 18.4511 112.517C15.7865 117.361 13.8928 123.494 10.826 127.55C10.1556 127.047 9.43501 126.527 8.81494 125.941C14.7139 112.534 21.0486 104.138 29.6625 92.4572C35.4274 89.139 41.3767 85.9717 47.7114 83.8433L47.7282 83.8266Z" fill="#4AC0E1"/>
<path d="M21.2498 168.039C13.6918 164.972 10.4909 162.274 5.81527 155.604C4.94383 155.838 3.7037 167.972 1.60889 161.218C2.93281 155.218 4.89355 149.772 6.82078 143.973C9.4351 152.604 3.98859 154.917 13.6415 155.805C15.0995 159.659 20.7471 163.095 21.2666 168.039H21.2498Z" fill="#471C13"/>
<path d="M60.9507 367.734C58.3532 366.243 58.3196 369.092 57.7498 369.343C52.1022 371.84 50.6442 368.421 54.7501 371.756C57.9007 374.32 58.1856 378.644 60.9675 375.359C61.0178 375.443 60.5988 374.371 62.1741 376.164C59.6938 377.002 60.7329 380.152 60.1631 382.582C61.6378 380.102 50.9124 373.533 49.136 373.365C40.5221 372.544 51.566 377.471 51.9347 377.773C53.3591 378.929 53.8284 380.94 56.141 382.582C54.4149 382.348 55.0517 382.917 55.7388 384.996C54.0295 382.716 52.3871 380.772 50.1247 378.979C48.6835 377.823 47.1082 376.717 45.315 376.18C45.5832 374.84 45.3821 371.17 44.9128 369.762C45.181 369.795 45.5162 369.695 45.7173 369.762C45.9854 369.846 47.4769 370.818 46.9239 369.36C46.0692 366.477 48.8176 364.031 48.9349 363.746C53.1915 364.701 55.3534 370.03 57.5487 368.958C57.8001 368.84 58.9229 364.349 60.9507 367.751V367.734Z" fill="#27120C"/>
<path d="M145.966 156.006C144.508 156.14 141.659 151.699 141.358 151.598C140.486 151.313 136.079 153.609 123.51 154.799C125.923 151.28 140.453 146.822 141.157 145.783C140.151 141.392 135.576 137.119 138.358 135.963C141.14 141.392 146.536 149.688 145.983 156.006H145.966Z" fill="#C46F49"/>
<path d="M56.1409 75.7992C55.1354 76.5701 55.9565 77.7935 56.1409 78.5979C56.5431 80.3743 58.0849 84.9326 58.9395 86.223L50.1246 95.8425L48.918 83.0054C51.1301 80.3575 52.7054 75.883 56.1409 75.7824V75.7992Z" fill="#4AC0E1"/>
<path d="M31.2882 139.566C32.1596 142.331 31.6401 142.616 31.6904 142.767C31.0703 143.722 30.2994 144.627 29.6793 145.565C27.2829 143.537 23.7301 141.627 20.6633 139.951C20.613 139.918 20.194 140.655 19.6578 140.353C18.6187 139.767 11.178 134.622 10.4406 133.935C10.3401 133.834 10.5914 133.667 8.83179 131.522C12.8203 129.93 15.4514 133.197 19.0545 134.722C23.0597 136.432 27.1991 138.007 31.2882 139.532V139.566Z" fill="#0E0C0E"/>
<path d="M103.852 152.788C100.601 158.972 103.165 159.643 105.059 157.799C106.752 156.14 104.221 150.66 111.478 154.799C111.545 155.201 111.863 155.235 111.88 155.604C111.947 156.659 112.014 159.324 111.88 160.011C110.824 165.139 105.16 161.402 102.663 164.419C101.942 164.519 101.607 163.933 101.054 163.614C101.037 163.614 101.205 163.497 100.652 163.212C100.551 163.162 101.138 162.424 99.0427 161.603C100.316 159.408 99.4449 158.721 99.4449 158C99.4449 156.81 99.3611 155.57 99.4449 154.397C100.031 150.844 100.685 151.867 103.852 152.788Z" fill="#1F100C"/>
<path d="M50.1248 95.8592L50.7281 96.2614C60.0123 86.3236 56.7444 90.1446 67.7714 95.0548C67.7379 95.3732 67.8217 95.7754 67.7714 95.8592C59.1743 95.7252 52.9067 92.7924 48.5159 100.669C48.4321 100.434 47.7618 96.3452 47.7115 95.8592C47.5272 94.0661 48.2981 87.7481 47.3093 84.631C47.3428 84.5975 47.6445 84.0277 47.7115 83.8266L48.9181 83.0221L50.1248 95.8592Z" fill="#142726"/>
<path d="M40.9075 381.359C46.354 383.353 47.8287 383.303 51.1301 388.582C51.7167 388.716 52.1692 385.163 52.1357 384.979H52.5379C51.0631 397.347 48.9348 384.811 45.1138 384.979C44.0916 385.029 32.6623 389.001 36.7011 391.8C33.1986 391.531 28.9922 392.503 28.4727 390.995C28.59 390.861 29.0927 390.358 29.2771 390.191C30.668 388.884 34.003 386.99 35.8967 386.185C38.6953 381.376 40.6561 381.627 40.9075 381.376V381.359Z" fill="#091A1B"/>
<path d="M10.8259 127.533C12.6861 128.924 14.4458 129.98 16.44 131.136C17.9148 131.991 22.3893 135.343 23.864 135.141C24.8696 135.007 28.6402 129.963 30.8859 129.929C30.8859 132.008 30.8859 134.069 30.8859 136.147C24.4674 135.929 29.8301 136.432 31.087 137.555C31.9081 138.292 31.2545 139.465 31.2881 139.566C27.2157 138.041 23.0596 136.465 19.0544 134.756C15.4513 133.214 12.8034 129.963 8.83168 131.555C8.27865 130.885 6.41846 130.516 6.41846 129.343C6.77039 128.438 8.74789 126.125 8.83168 125.941C9.45174 126.527 10.1556 127.047 10.8427 127.55L10.8259 127.533Z" fill="#091A1B"/>
<path d="M50.1247 357.294C48.8176 359.707 52.2531 361.165 53.7278 362.505C51.8844 362.455 50.7616 362.388 48.9181 362.103C47.8456 361.936 46.4546 362.154 44.9128 361.701C36.2655 359.154 39.0809 353.305 46.5217 352.484C46.5887 352.534 48.0299 352.752 48.1305 353.087C48.3316 353.757 44.4436 355.165 50.1415 357.294H50.1247Z" fill="#783E11"/>
<path d="M134.738 127.935C132.845 129.343 125.471 132.862 125.923 134.756L121.516 137.169C121.868 136.616 122.237 136.197 122.723 135.762C121.935 134.253 111.595 141.577 109.885 141.175C111.913 138.828 114.712 137.437 117.108 135.56C117.946 134.907 118.717 134.186 119.522 133.549C125.588 131.371 130.951 127.717 136.364 124.332C136.431 124.466 137.068 123.058 137.571 125.74C136.816 126.729 135.727 127.231 134.772 127.952L134.738 127.935Z" fill="#033C3D"/>
<path d="M104.254 356.104C103.735 356.104 103.886 355.701 103.852 355.701C107.12 348.194 110.103 349.635 104.254 342.261C107.556 324.547 108.461 306.548 111.075 288.734C110.003 306.381 108.528 324.078 105.461 341.457C110.857 350.037 109.031 349.233 104.254 356.087V356.104Z" fill="#B5702F"/>
<path d="M110.673 362.12C104.707 362.757 102.093 364.785 97.0317 360.511C99.4952 360.008 101.758 359.07 104.054 358.098C105.361 357.143 104.154 356.238 104.255 356.087C108.092 356.204 115.064 356.389 110.673 362.103V362.12Z" fill="#F3BB29"/>
<path d="M112.684 384.962C113.572 384.845 117.879 384.828 118.7 384.962C120.024 385.18 128.203 388.28 127.113 390.174C121.382 389.118 115.014 388.867 109.467 386.973C109.651 385.817 111.695 385.113 112.667 384.962H112.684Z" fill="#1CACD0"/>
<path d="M105.461 364.919C106.601 366.829 108.31 369.628 106.266 371.337C105.746 369.494 107.606 368.857 104.054 368.924C97.9702 369.058 94.1492 375.493 94.233 367.717C95.3726 367.516 97.3501 367.231 97.8361 366.109C98.8416 366.36 104.305 365.271 105.461 364.902V364.919Z" fill="#27120C"/>
<path d="M110.673 377.354C107.858 380.655 101.372 381.409 108.662 384.577C108.193 385.146 107.841 385.917 107.053 386.185L101.439 380.973C102.361 375.745 105.713 376.734 108.26 374.555C108.344 374.723 110.07 376.616 110.673 377.354Z" fill="#833D1C"/>
<path d="M97.0485 360.511C102.11 364.785 104.724 362.757 110.69 362.12C109.366 363.846 107.405 364.315 105.478 364.919C104.322 365.287 98.8752 366.377 97.8529 366.125C95.3894 365.522 94.9872 362.707 93.0432 360.913C93.8141 360.779 95.1548 360.913 97.0485 360.511Z" fill="#DC9C1E"/>
<path d="M55.7389 174.843C53.7614 174.558 53.8452 175.63 53.7278 175.647C53.4597 175.664 49.1528 175.111 48.3148 174.843C47.2591 177.004 49.6555 176.032 50.9292 177.842C52.2531 179.753 51.7503 182.92 54.9345 186.071C55.6551 186.791 55.0518 187.579 56.5433 187.277C56.1578 188.266 55.7556 189.121 55.3367 190.076C52.2363 187.847 52.1693 181.881 50.1248 181.663C47.8624 175.228 45.4659 180.541 44.9129 178.261C44.5274 176.669 46.153 177.574 46.5217 177.055C46.9407 176.468 45.3151 176.435 45.7173 175.848C46.086 175.312 50.1248 174.859 43.3041 174.843C42.8013 174.893 42.9354 174.44 42.9019 174.44C44.5274 173.636 55.0685 174.34 55.7389 174.843Z" fill="#174A54"/>
<path d="M136.347 124.315C130.934 127.701 125.571 131.354 119.505 133.533C120.326 132.879 121.097 132.175 121.918 131.522C126.041 128.287 130.063 124.919 134.353 121.902C134.453 122.053 134.286 120.712 136.364 124.315H136.347Z" fill="#3FBCD5"/>
<path d="M79.4017 3.21765C74.7429 1.29041 70.1678 3.85448 65.5592 2.41324C63.4979 3.03331 61.4534 3.53607 59.3418 4.02207C60.9171 -0.653586 65.8106 -1.34069 68.7601 2.41324C75.8992 -1.96076 77.2566 1.29041 79.385 3.21765H79.4017Z" fill="#0E0C0E"/>
<path d="M43.7061 378.946C45.9014 380.085 51.6496 381.996 52.1188 384.962C52.1523 385.146 51.6999 388.716 51.1133 388.565C47.8119 383.286 46.3371 383.353 40.8906 381.342C41.0247 381.208 41.0247 379.448 43.6893 378.929L43.7061 378.946Z" fill="#9E5816"/>
<path d="M51.3312 50.544C46.3875 48.3318 41.4605 38.4778 47.7282 35.3104C46.8902 40.7905 47.0913 45.198 52.1357 48.3486C51.9178 48.6838 51.3312 50.4434 51.3312 50.5607V50.544Z" fill="#471C13"/>
<path d="M48.9179 362.12C48.8342 362.606 49.0353 363.394 48.9179 363.729C48.8006 364.014 46.069 366.46 46.9069 369.343L45.7003 369.745C45.516 369.678 45.164 369.779 44.8959 369.745C44.7451 369.309 40.589 367.768 44.8959 361.718C46.4377 362.17 47.8286 361.952 48.9012 362.12H48.9179Z" fill="#0E0C0E"/>
<path d="M129.929 393.392C123.979 392.654 116.89 392.537 110.673 391.783V391.381C114.678 391.699 124.666 391.649 128.32 390.576C128.521 390.526 128.856 390.61 129.124 390.576C129.409 390.811 130.767 388.398 129.929 393.375V393.392Z" fill="#D4E8F2"/>
<path d="M50.1246 378.946C49.1023 380.136 53.0741 382.197 53.3254 383.152C53.7444 384.677 52.5378 384.861 52.521 384.962H52.1188C51.6328 381.996 45.9014 380.085 43.7061 378.946C44.125 378.46 45.2311 376.499 45.3149 376.147C47.108 376.683 48.6833 377.806 50.1246 378.946Z" fill="#471C13"/>
<path d="M113.086 380.152C111.059 380.806 110.087 382.884 108.679 384.56C101.372 381.392 107.874 380.638 110.69 377.337C111.461 378.309 112.047 379.7 113.103 380.136L113.086 380.152Z" fill="#9E5816"/>
<path d="M94.2329 42.1144C94.0821 43.7232 93.8307 44.712 93.0263 46.1197C92.8085 45.7007 92.8252 45.3488 92.6241 44.9131C94.0151 40.2877 89.0378 40.7737 87.4122 40.1034C87.3787 39.7682 87.4625 39.366 87.4122 39.2989C90.6298 34.5563 92.9928 37.8745 94.2329 42.0976V42.1144Z" fill="#A6502C"/>
<path d="M117.092 382.968C113.958 381.845 110.958 380.404 112.684 384.979C111.695 385.113 109.668 385.817 109.483 386.99C108.914 386.789 109.534 386.169 107.07 386.185C107.841 385.917 108.193 385.146 108.679 384.577C110.103 382.901 111.059 380.823 113.086 380.169C116.103 380.538 115.667 381.175 117.092 382.968Z" fill="#1E1812"/>
<path d="M131.521 394.598C132.023 396.14 132.007 396.274 131.521 397.799C127.817 398.788 124.013 397.983 120.292 397.799V397.397C124.666 397.33 127.599 396.408 131.521 394.598Z" fill="#E3E7EB"/>
<path d="M117.092 382.968C117.561 383.571 118.583 383.94 118.7 384.979C117.879 384.845 113.572 384.861 112.684 384.979C110.958 380.404 113.958 381.845 117.092 382.968Z" fill="#997638"/>
<path d="M83.8092 75.7992C87.4123 76.1176 84.7477 79.2179 81.396 83.4244C82.2004 81.6312 82.9545 77.8102 83.0048 75.7992C83.2729 75.7992 83.5411 75.7824 83.8092 75.7992Z" fill="#1E1812"/>
<path d="M129.124 390.576C128.856 390.61 128.521 390.526 128.32 390.576C128.353 390.023 127.934 390.224 127.515 390.174C127.649 387.476 128.99 390.476 129.124 390.576Z" fill="#2A99B1"/>
<path d="M68.5758 388.582C69.0618 389.889 68.5758 389.906 68.5758 390.191C64.47 391.749 60.4312 393.593 55.9399 392.989C52.3201 399.257 46.7227 398.268 40.5053 399.006C35.3269 398.671 27.9364 396.995 27.2661 396.995C27.8527 396.257 27.1656 396.106 27.2661 394.984C27.6851 390.66 28.2046 392.772 36.8855 392.57C39.2149 396.693 54.5992 397.213 54.5322 390.157H54.9344C59.4089 391.414 64.051 389.906 68.1736 388.146L68.5758 388.548V388.582Z" fill="#0E0C0E"/>
<path d="M55.7388 384.962C55.8561 385.297 55.7556 385.683 56.141 386.169C56.4259 386.521 56.9287 386.873 57.3476 386.973C58.3866 387.208 60.2468 385.599 60.1463 387.375C58.4369 388.046 56.1578 388.682 54.9344 390.174H54.5322C48.8175 392.353 42.9018 392.453 36.8855 392.587C28.2046 392.772 27.6851 390.66 27.2661 395H26.8639C26.4282 391.766 27.4505 392.168 28.4727 390.995C28.9755 392.503 33.1986 391.531 36.7011 391.8C32.6623 389.018 44.1084 385.029 45.1139 384.979C48.9348 384.811 51.0464 397.347 52.5379 384.979C52.5379 384.878 53.7613 384.711 53.3423 383.169C53.0742 382.214 49.1024 380.136 50.1415 378.962C52.4039 380.756 54.0462 382.7 55.7556 384.979L55.7388 384.962Z" fill="#2A99B1"/>
<path d="M100.249 325.62C99.6627 316.989 99.294 308.392 99.0427 299.761C92.9426 291.432 85.5856 259.071 80.5916 254.245L81.396 244.022C85.0493 243.117 101.339 227.498 102.646 225.772C103.031 235.693 101.975 245.731 102.646 255.653C103.467 267.987 107.405 280.02 106.249 292.538C105.897 296.259 103.333 305.158 102.646 309.783C101.758 315.732 101.791 324.044 101.439 325.821C101.322 326.391 100.92 324.715 100.233 325.62H100.249Z" fill="#833D1C"/>
<path d="M80.6085 254.245C85.6025 259.071 92.9595 291.415 99.0596 299.761C99.3109 308.409 99.6796 316.989 100.266 325.62C100.752 332.792 101.808 339.948 102.679 347.071C101.389 348.998 98.8249 352.987 96.6631 353.69L92.6578 319.402C91.5685 311.677 76.5194 256.239 78.4299 253.44C79.0164 252.569 80.1057 253.725 80.642 254.245H80.6085Z" fill="#471C13"/>
<path d="M68.978 176.451C68.8774 195.221 68.5758 213.94 70.989 232.593C69.3634 232.894 67.6373 233.498 65.9782 233.799C64.8386 234.017 64.4867 233.431 64.1683 233.397C65.2408 231.42 64.1683 229.208 64.1683 228.99C63.6655 218.666 63.5985 188.417 63.7661 176.854C65.4922 176.736 67.2518 176.518 68.978 176.451Z" fill="#F5CC1C"/>
<path d="M103.852 355.701C103.852 355.701 103.718 356.087 104.255 356.104C104.154 356.238 105.361 357.159 104.054 358.115C101.758 359.07 99.4952 360.008 97.0317 360.528C95.1213 360.913 93.7973 360.796 93.0264 360.93C88.8368 361.617 84.8986 360.193 84.6137 363.729C81.0609 363.293 82.8373 359.556 84.2115 357.713C84.5466 357.26 85.0829 356.942 85.4181 356.506C86.7588 357.076 96.3446 356.975 98.8584 356.908C99.7801 356.891 101.573 355.769 103.869 355.701H103.852Z" fill="#27120C"/>
<path d="M64.1682 228.99C64.1682 229.207 65.2408 231.42 64.1682 233.397C61.7382 233.112 50.4598 229.157 48.1303 227.783C47.4265 225.99 48.5493 226.677 48.5325 226.576C50.0576 226.191 56.5263 227.884 56.9453 226.778C57.6659 197.299 59.4926 198.74 57.7497 227.18L64.1682 228.99Z" fill="#446762"/>
<path d="M53.3423 348.479C53.3758 348.562 54.2305 348.277 54.5489 348.68C54.9511 349.568 50.1079 351.696 46.9238 347.674C44.7284 342.211 48.2309 347.255 53.3423 348.479Z" fill="#833D1C"/>
<path d="M80.6083 176.451C80.4574 177.407 81.0105 177.206 81.0105 177.256C81.044 177.507 80.3569 179.099 80.8094 179.267C89.1719 176.87 86.943 185.417 84.2113 189.691C83.8762 189.724 83.474 189.64 83.4069 189.691C81.0607 190.411 76.117 183.825 76.184 182.669C76.2008 182.317 79.5692 177.49 79.7871 176.451C80.0552 176.451 80.3234 176.451 80.5915 176.451H80.6083Z" fill="#F3BB29"/>
<path d="M69.3802 161.218V176.451C69.2461 176.451 69.1121 176.451 68.978 176.451C67.2519 176.518 65.4922 176.736 63.7661 176.854C63.8331 171.591 64.47 166.463 64.5705 161.218C66.1793 161.268 67.6541 161.117 69.3802 161.218Z" fill="#783E11"/>
<path d="M73.3854 161.218C73.7038 164.67 73.3351 168.173 73.3854 171.642C73.4692 177.457 72.8156 172.848 81.4127 176.451C81.1446 176.451 80.8764 176.451 80.6083 176.451C80.3402 176.451 80.072 176.451 79.8039 176.451C76.4019 176.317 72.7821 176.334 69.3801 176.451V161.218C70.6035 161.285 72.1788 161.318 73.3854 161.218Z" fill="#4B838F"/>
<path d="M105.059 216.555C104.992 216.823 104.808 217.141 104.657 217.359C103.015 219.772 102.227 220.527 99.8472 222.169C92.9595 226.928 82.6865 229.878 74.5921 231.788C73.352 232.09 72.246 232.358 70.9891 232.593C68.5926 213.94 68.8775 195.221 68.9781 176.451C69.1121 176.451 69.2462 176.451 69.3803 176.451C72.7822 176.334 76.4021 176.317 79.804 176.451C79.5862 177.49 76.2177 182.3 76.201 182.669C76.1339 183.825 81.0777 190.411 83.4239 189.691C79.9213 192.137 76.1339 183.741 74.4078 181.278C73.4358 181.613 79.1002 192.523 84.0272 190.897C84.9992 190.579 84.1612 189.791 84.2283 189.691C86.9432 185.417 89.1888 176.87 80.8263 179.267C80.3738 179.116 81.0609 177.524 81.0274 177.256L98.0708 180.859C99.3109 178.563 99.512 176.15 99.8807 173.636C100.166 173.636 100.501 173.502 100.685 173.837C101.707 175.731 104.959 211.041 105.093 216.538L105.059 216.555Z" fill="#FAF2D7"/>
<path d="M99.8471 222.169C95.2218 227.716 81.5803 231.973 74.592 231.788C82.6864 229.861 92.9594 226.928 99.8471 222.169Z" fill="#8E988A"/>
<path d="M85.4181 205.326C79.7202 208.46 78.7315 204.606 77.0054 202.913C81.7648 195.958 87.1945 201.472 85.4181 205.326Z" fill="#F3BB29"/>
<path d="M74.1898 218.549C71.6258 211.644 84.932 214.628 95.2385 208.125C96.2105 207.505 99.9309 204.438 100.249 203.517C100.802 201.874 99.4617 197.316 100.652 199.511C103.685 205.125 93.6129 209.835 89.6244 211.343C81.6306 214.359 72.2961 213.588 74.1898 218.566V218.549Z" fill="#B7B195"/>
<path d="M83.4072 189.691C83.4072 189.691 83.8764 189.724 84.2116 189.691C84.1446 189.791 84.9825 190.579 84.0105 190.897C79.0835 192.523 73.4191 181.613 74.3911 181.278C76.1172 183.758 79.9047 192.137 83.4072 189.691Z" fill="#989468"/>
<path d="M76.9887 202.913C78.7148 204.589 79.7203 208.444 85.4014 205.326C85.2171 205.712 84.3121 206.801 83.9937 206.935C77.8266 209.55 74.0559 200.098 76.9719 202.93L76.9887 202.913Z" fill="#7C7444"/>
<path d="M74.1899 218.549C75.296 221.465 85.9712 218.164 88.619 217.946C85.6025 219.387 75.4803 222.052 74.1899 218.549Z" fill="#B7B195"/>
<path d="M66.1624 32.8972C65.6094 37.8242 60.297 24.3 53.7276 37.1036C57.9843 37.1371 61.956 37.5896 66.1624 38.1091C67.7377 38.3102 72.782 39.2487 69.7655 37.7069C72.1955 37.6566 74.5752 37.1874 76.9884 37.3047C82.4349 37.5728 83.1723 38.3772 87.4122 40.1034C89.0378 40.7737 94.015 40.3045 92.6241 44.9131C91.032 41.3602 89.7249 42.3155 86.6078 40.9078C85.5185 40.405 84.6303 39.6844 83.4069 39.2989C76.7538 37.2209 84.2448 40.8072 80.4071 43.3042C78.0442 44.846 75.3796 41.4273 76.603 39.0978L75.3964 38.4945C72.5977 39.2319 71.0392 39.3995 68.1734 39.2989C67.1009 39.2654 65.2407 39.0476 64.1682 38.8967C64.0676 38.8967 62.8275 38.0085 62.3582 38.0923C63.4811 44.8628 58.2189 45.2147 57.1464 38.4945C54.9342 40.2542 56.4593 43.1702 58.9563 44.1087C54.884 43.4718 56.6771 41.3602 54.5488 39.2989C58.7217 37.7739 52.4205 38.2599 50.9457 38.0923C50.6273 37.3214 52.4372 37.6901 52.5545 37.0868C52.0853 35.9975 52.3534 31.0872 53.3589 31.2716C53.2416 35.9305 54.3142 31.59 55.37 30.0649C60.1294 23.1269 63.5984 26.6294 66.1959 32.8636L66.1624 32.8972Z" fill="#1F100C"/>
<path d="M73.3855 76.6036C73.3353 76.9723 73.4693 77.4415 73.3855 77.6091C71.76 80.8771 67.2519 77.6259 71.7767 93.0438C71.8103 93.1779 71.7265 93.3455 71.7767 93.446C69.397 94.2169 69.9668 95.3733 67.7714 94.2504C67.0173 93.865 66.6319 93.3287 66.1626 92.6416C65.7604 92.055 61.8557 81.6312 61.7551 81.0111C61.554 79.838 61.0513 72.1961 61.554 71.7939C65.5761 75.5311 67.5033 78.6817 73.3855 76.6036Z" fill="#471C13"/>
<path d="M68.1735 39.3157C68.6427 42.2987 67.4361 47.5274 67.7713 48.734C68.4751 51.2981 72.5809 50.4602 72.1787 51.7338C62.6599 52.488 60.783 44.7622 62.1572 53.7449C61.755 53.594 59.4088 54.432 54.9343 50.1418C54.1969 46.656 54.0963 43.1869 53.3254 39.7179C53.3925 39.7179 54.331 39.3827 54.5321 39.3157C56.6604 41.377 54.884 43.5054 58.9395 44.1254C63.1962 44.779 64.5201 43.2875 64.1514 38.9135C65.224 39.0643 67.0842 39.2822 68.1567 39.3157H68.1735Z" fill="#A6502C"/>
<path d="M58.9563 56.1581C63.4141 61.2527 65.3413 65.2748 65.777 62.5766C68.4752 64.6212 70.1845 64.6212 73.4022 64.5877C73.7373 64.5877 74.2568 63.7497 75.011 64.3866C71.9777 68.0902 66.6485 67.2858 66.5982 69.3974C65.157 68.6768 62.8946 66.1295 61.7885 64.7888C58.772 61.1354 56.9956 57.348 55.7722 52.9572C56.6101 52.8399 57.7665 54.7839 58.9731 56.1581H58.9563Z" fill="#471C13"/>
<path d="M65.7602 20.0601C65.3412 24.3 66.6316 28.674 66.1624 32.8972C63.5648 26.6462 60.0958 23.1604 55.3364 30.0985C55.6213 25.0541 60.0958 22.8923 63.3637 20.0768C64.1514 20.0098 64.9726 20.1103 65.777 20.0768L65.7602 20.0601Z" fill="#833D1C"/>
<path d="M63.3638 20.0601C60.0958 22.8755 55.6213 25.0374 55.3364 30.0817C54.2974 31.6067 53.2249 35.9472 53.3254 31.2883C53.4092 27.9366 54.5488 24.7692 54.9342 21.4678C55.4537 20.8142 62.0063 20.1774 63.347 20.0601H63.3638Z" fill="#471C13"/>
<path d="M62.1573 53.7449C62.8444 53.9962 64.1851 55.9235 66.967 55.7559L67.7714 58.1691C64.537 57.9345 61.973 57.1301 58.9565 56.1581C57.7498 54.7839 56.5767 52.8399 55.7556 52.9572C55.5042 52.069 55.2696 51.65 54.9512 50.1585C59.4257 54.4487 61.7719 53.6108 62.1741 53.7616L62.1573 53.7449Z" fill="#77301E"/>
<path d="M66.1624 92.6416C63.9838 91.8707 62.3415 89.139 60.9505 87.4297C62.4588 85.0835 60.7662 83.9439 60.9505 81.4133C61.3192 81.4804 61.7717 81.5139 61.7549 81.0111C61.8555 81.6312 65.7602 92.055 66.1624 92.6416Z" fill="#27120C"/>
<path d="M60.9506 81.4133C60.7662 83.9439 62.4588 85.0835 60.9506 87.4297C60.0288 86.2901 59.0066 86.3236 58.9395 86.223C58.0681 84.9326 56.5431 80.391 56.1409 78.5979C56.6604 80.5084 59.0401 81.0279 60.9506 81.3966V81.4133Z" fill="#471C13"/>
<path d="M54.5322 39.3157C54.3311 39.3827 53.3926 39.7179 53.3256 39.7179C53.1748 39.7179 51.0464 38.4107 50.9124 38.1091C52.3871 38.2767 58.6883 37.7907 54.5154 39.3157H54.5322Z" fill="#FCFCFA"/>
<path d="M50.929 117.914C50.929 117.914 50.6776 118.299 51.7334 118.316C56.1409 118.366 60.5651 118.215 64.9726 118.316C65.157 118.316 65.5592 118.651 68.5757 118.718C71.1062 118.768 89.8087 118.249 90.2277 119.321C88.887 127.008 87.5519 134.695 86.2224 142.381L85.8202 142.783C83.8427 142.364 74.592 144.426 73.9887 145.197C72.1453 147.493 76.1338 146.822 76.2008 147.007C76.4857 147.995 59.1071 153.794 73.7876 160.849C73.8211 161.184 73.687 161.235 73.3854 161.251C72.1788 161.352 70.6035 161.318 69.3801 161.251C67.654 161.151 66.1792 161.302 64.5704 161.251C62.1237 161.168 57.7162 161.101 56.9453 160.045C57.0794 158.805 56.5599 153.123 56.1409 152.017C55.7722 151.045 53.2082 149.068 52.94 147.409C71.6257 121.533 71.2738 120.277 52.3367 146.805C48.4152 146.001 44.3262 146.588 40.5052 147.61C38.2261 146.872 39.6003 143.169 39.7008 140.387C39.8516 136.365 40.0192 131.069 40.5052 127.148C40.6728 125.84 41.4772 118.115 41.9129 117.93C44.9127 118.031 47.9292 117.93 50.929 117.93V117.914Z" fill="#F49525"/>
<path d="M29.6792 145.582C27.4001 149.034 24.8863 152.386 22.8585 156.006C22.6406 155.889 22.7077 156.81 21.2497 155.403L19.6409 140.37C20.1771 140.672 20.5961 139.951 20.6464 139.968C23.7132 141.644 27.266 143.554 29.6624 145.582H29.6792Z" fill="#471C13"/>
<path d="M35.6957 133.549C36.1649 138.778 35.88 143.973 36.5001 149.185C36.0308 149.554 35.2097 149.906 34.8913 150.392L34.4891 149.587C34.288 144.074 32.9473 124.935 31.6904 121.316C31.5731 120.997 31.1541 121.114 30.886 121.114C31.1876 119.439 31.8747 118.902 32.4948 117.511C34.8913 122.355 35.2264 128.22 35.6957 133.549Z" fill="#357884"/>
<path d="M34.4889 157.598C34.9246 163.112 34.4051 169.078 38.6953 173.234C30.8523 174.541 30.316 164.704 31.2712 159.207C32.0589 159.157 33.5336 157.631 34.4721 157.598H34.4889Z" fill="#0E0C0E"/>
<path d="M38.4944 144.375C38.5782 145.565 38.3938 146.789 38.4944 147.979C37.1537 147.643 37.1872 148.632 36.4834 149.185C35.8633 143.973 36.1482 138.778 35.679 133.549C37.9078 133.868 36.9023 132.829 37.69 132.343C38.0754 136.398 38.1927 140.337 38.4944 144.375Z" fill="#043A47"/>
<path d="M40.5053 147.576C39.9188 147.727 39.0976 148.146 38.4943 148.381C38.4943 148.247 38.4943 148.113 38.4943 147.979C38.3937 146.789 38.5781 145.565 38.4943 144.375L39.7009 140.37C39.6003 143.135 38.2261 146.856 40.5053 147.593V147.576Z" fill="#DC9C1E"/>
<path d="M121.499 131.136C118.231 128.941 114.192 126.93 110.673 124.718C111.461 120.327 113.807 116.305 115.081 112.082C115.969 109.132 115.382 105.948 116.89 105.462L127.113 126.511L121.499 131.119V131.136Z" fill="#FAF2D7"/>
<path d="M105.059 124.315C105.796 125.539 107.958 127.55 107.07 128.723C103.936 131.806 105.679 135.125 105.461 136.348C105.21 137.856 103.685 146.671 103.45 147.174C103.048 148.096 101.657 148.347 101.037 149.185C100.199 149.269 97.5847 145.934 97.4338 145.582C99.0427 137.722 101.389 130.064 103.45 122.321C105.847 122.975 104.204 122.908 105.059 124.332V124.315Z" fill="#FAF2D7"/>
<path d="M89.0212 97.4513C89.3061 97.7027 89.2391 98.5574 90.2278 99.0601L89.8256 101.473H89.4234C88.8201 101.49 89.105 100.971 89.0212 100.669C88.6525 99.345 84.3959 94.3845 84.0104 94.2504C81.9827 93.5298 73.9553 94.837 71.3745 95.8593C71.0561 95.6917 70.0506 96.2615 70.1679 95.2559C70.1679 95.1386 71.8773 94.0326 72.1789 93.8482C74.1564 92.6416 78.765 90.9155 81.195 89.0385C84.0775 91.3177 86.8259 95.4235 89.0212 97.4513Z" fill="#142726"/>
<path d="M107.874 123.126C108.025 123.176 110.304 124.483 110.673 124.734C114.192 126.946 118.231 128.941 121.499 131.153C121.516 131.153 121.415 131.605 121.901 131.555C121.08 132.192 120.309 132.913 119.488 133.566C118.684 134.203 117.913 134.924 117.075 135.577C115.801 133.248 113.354 131.337 111.863 129.561C110.187 127.583 108.662 125.204 107.053 123.142C107.305 123.176 107.64 123.092 107.858 123.142L107.874 123.126Z" fill="#B1C0B3"/>
<path d="M107.472 106.685C108.109 104.624 108.662 102.244 109.483 100.267C109.55 100.099 110.69 98.7585 111.092 97.0659C113.137 97.3005 114.192 102.16 113.505 104.088C112.952 105.613 109.349 107.959 107.489 106.702L107.472 106.685Z" fill="#FAF2D7"/>
<path d="M96.2439 97.8535C103.802 102.362 91.3169 99.6132 90.2276 99.0601C89.2389 98.5574 89.3059 97.7195 89.021 97.4513C91.3839 92.8762 93.043 84.7818 91.4342 95.2392C92.6576 96.7642 94.7021 96.9318 96.2439 97.8535Z" fill="#FAF2D7"/>
<path d="M107.874 123.126C107.673 123.075 107.338 123.159 107.07 123.126C107.02 123.075 106.148 122.455 105.863 122.321C110.019 108.613 113.271 107.255 107.874 123.126Z" fill="#FAF2D7"/>
<path d="M107.07 123.125C108.679 125.187 110.204 127.567 111.88 129.544L107.07 128.74C107.975 127.567 105.813 125.555 105.059 124.332C105.109 123.511 105.562 123.31 105.863 122.321C106.132 122.455 107.02 123.058 107.07 123.125Z" fill="#142726"/>
<path d="M111.075 97.0491C110.673 98.7417 109.533 100.099 109.466 100.25H109.064C109.433 99.4959 110.036 96.915 111.075 97.0491Z" fill="#BFBCAD"/>
<path d="M63.7661 176.854C63.5985 188.417 63.6655 218.666 64.1683 228.99L57.7498 227.18C59.4927 198.74 57.666 197.299 56.9454 226.778C56.5264 227.884 50.0409 226.191 48.5326 226.576C48.4656 226.057 47.1249 226.208 47.9293 224.968C55.5879 225.588 52.9736 223.861 53.3423 218.951C53.4261 217.745 53.7277 216.639 53.7445 215.348C53.7445 215.08 53.7445 214.812 53.7445 214.544C53.7445 214.142 53.7445 213.739 53.7445 213.337C53.7445 212.281 53.3423 212.583 53.3423 212.533C53.2585 208.997 53.0909 205.628 52.9401 202.109C52.8228 199.662 52.5882 197.098 52.1357 194.685L52.9401 193.679C54.0629 192.808 54.8003 191.333 55.3533 190.076C55.7723 189.121 56.1745 188.249 56.5599 187.277C58.0347 183.49 59.4759 183.624 56.5599 177.256C58.9732 177.289 61.3696 177.021 63.7828 176.854H63.7661Z" fill="#6D9295"/>
<path d="M52.9401 202.109C53.091 205.628 53.2585 208.997 53.3423 212.533L39.7009 208.125C39.7344 203.349 44.8793 206.818 45.7172 206.919C50.0744 207.455 50.7615 206.231 51.3313 202.109C51.6162 202.226 52.4206 202.025 52.9401 202.109Z" fill="#346A70"/>
<path d="M50.9292 201.707C49.5885 202.226 50.9292 202.478 50.1248 203.718C46.2368 204.505 43.5052 198.774 42.9019 201.707C42.9521 200.802 43.7733 197.4 45.114 197.299C46.153 197.232 50.041 201.103 50.9292 201.707Z" fill="#735E33"/>
<path d="M53.7278 213.337C53.7278 213.739 53.7278 214.142 53.7278 214.544H46.1027C44.4939 209.466 41.6114 212.717 40.0864 208.93L53.7278 213.337Z" fill="#346A70"/>
<path d="M53.7277 215.348C53.7109 216.639 53.4092 217.761 53.3254 218.951H47.108C46.2198 218.65 46.3204 216.052 46.1025 215.348H53.7277Z" fill="#174A54"/>
<path d="M55.3366 190.093C54.7836 191.35 54.0462 192.841 52.9234 193.696C51.1973 189.992 51.4319 185.417 50.1248 181.663C52.1693 181.881 52.2363 187.847 55.3366 190.076V190.093Z" fill="#346A70"/>
<path d="M50.1247 203.718C47.4769 207.756 45.9686 204.891 42.9018 203.315C42.818 202.98 42.8683 202.193 42.9018 201.707C43.4884 198.757 46.2368 204.505 50.1247 203.718Z" fill="#5A461E"/>
<path d="M51.3312 202.109C50.7614 206.231 50.0743 207.455 45.7171 206.919C44.963 205.528 43.3207 204.975 42.9185 203.315C45.9685 204.891 47.4935 207.756 50.1414 203.718C50.9458 202.478 49.6051 202.243 50.9458 201.707C51.3983 202.025 51.3145 202.092 51.348 202.109H51.3312Z" fill="#392D18"/>
<path d="M53.3423 212.533C53.3423 212.533 53.7278 212.281 53.7445 213.337L40.1031 208.93C40.1031 208.93 39.7009 209.164 39.7009 208.125L53.3423 212.533Z" fill="#043A47"/>
<path d="M53.7277 214.544C53.7277 214.812 53.7277 215.08 53.7277 215.348H46.1026C46.0356 215.147 46.1696 214.762 46.1026 214.544H53.7277Z" fill="#174A54"/>
<path d="M53.7277 362.505C52.253 361.165 48.8007 359.707 50.1247 357.294C51.5827 357.847 53.1915 357.964 54.7332 358.098C49.1862 359.958 60.716 360.746 61.1518 358.5C67.654 363.528 57.9006 362.64 53.7277 362.505Z" fill="#DC9C1E"/>
<path d="M60.9506 367.734C61.0177 367.835 60.8501 368.27 61.755 368.136C61.688 368.74 61.2188 368.388 60.9506 368.74C60.8668 373.918 63.2801 371.874 64.1515 373.549C64.2521 373.734 64.118 375.644 64.9559 377.756C63.2465 379.013 63.0119 377.152 62.1572 376.147C60.5987 374.354 61.0177 375.426 60.9506 375.343C60.5987 374.823 60.163 371.052 57.7498 369.326C58.3195 369.075 58.3698 366.226 60.9506 367.717V367.734Z" fill="#833D1C"/>
<path d="M66.5648 360.511C64.47 356.422 63.3305 358.953 63.7662 356.104C68.291 354.009 68.3412 358.064 66.5648 360.511Z" fill="#F3BB29"/>
<path d="M64.956 352.886C65.3079 350.741 64.3192 348.931 64.1516 346.87C67.4866 348.11 65.0398 352.534 64.956 352.886Z" fill="#783E11"/>
<path d="M126.711 145.582C118.667 148.113 117.946 147.074 117.494 147.191C117.242 146.521 117.226 145.616 117.092 145.18C116.974 144.794 117.444 144.141 115.885 142.968C115.851 142.465 120.091 139.08 120.695 138.359L126.711 145.582Z" fill="#471C13"/>
<path d="M125.907 134.756C126.879 136.298 128.018 137.706 129.107 139.163L127.901 144.778C127.901 144.778 128.169 145.113 126.694 145.582L120.678 138.359C120.963 138.024 121.248 137.538 121.482 137.152L125.89 134.739L125.907 134.756Z" fill="#471C13"/>
<path d="M108.679 149.99C108.83 150.124 109.282 150.576 109.483 150.794C109.802 151.129 111.025 152.302 111.092 152.403C112.349 154.498 111.478 153.928 111.494 154.012C106.785 152.47 102.864 147.291 102.679 149.001C106.349 152.788 104.305 152.001 103.886 152.805C100.719 151.883 100.065 150.861 99.4784 154.414C99.5622 153.207 99.3109 151.582 99.4784 151.012C99.512 150.895 100.752 149.654 101.087 149.202C101.691 148.381 103.098 148.113 103.5 147.191C103.919 146.286 107.858 149.252 108.712 149.99H108.679Z" fill="#27120C"/>
<path d="M111.477 153.995C111.528 154.213 111.427 154.548 111.477 154.799C104.221 150.677 106.751 156.157 105.059 157.799C103.182 159.643 100.618 158.972 103.852 152.788C104.271 151.984 106.316 152.788 102.646 148.984C102.83 147.275 106.768 152.453 111.461 153.995H111.477Z" fill="#77301E"/>
<path d="M127.917 144.778L129.124 139.163C130.247 140.655 131.789 141.878 132.325 143.772C128.705 145.465 128.135 144.694 127.917 144.778Z" fill="#833D1C"/>
<path d="M111.075 152.386C111.025 152.285 109.802 151.112 109.467 150.777L114.276 150.978L111.075 152.386Z" fill="#A6502C"/>
<path d="M68.5758 390.174C68.5758 391.062 69.0451 391.129 68.9781 391.381C68.1066 394.648 55.3534 396.643 51.9347 399.006C48.0802 399.777 44.3431 399.257 40.5054 399.006C46.7228 398.268 52.3201 399.257 55.9399 392.989C60.4312 393.576 64.47 391.749 68.5758 390.191V390.174Z" fill="#E3E7EB"/>
<path d="M92.2386 394.598C100.785 394.649 113.723 397.514 120.309 397.397V397.799C112.919 397.43 105.377 397.112 98.0538 396.19C95.5736 395.872 85.971 394.548 92.2386 394.581V394.598Z" fill="#3B4855"/>
<path d="M85.8203 142.767C85.8203 144.778 87.8481 143.403 89.0212 144.375C83.826 146.319 78.1784 147.308 73.7877 150.995L73.9888 151.598C93.127 145.549 94.9202 147.71 74.9943 154.213C74.9273 155.989 87.3118 153.291 88.4346 152.805C90.1272 155 88.2168 154.682 88.2335 154.816L78.6141 157.43C82.5189 157.397 85.7365 158.302 89.4401 159.24C93.4789 160.263 96.0262 162.575 99.0595 161.654C101.154 162.475 100.568 163.212 100.668 163.262C98.8752 162.676 95.7413 162.709 93.8476 162.86C88.2335 163.313 91.4344 163.145 85.6192 167.67C84.798 167.016 84.7142 166.296 83.8093 165.659C89.172 162.123 82.3178 162.776 79.4018 162.056C76.1674 160.145 75.9831 161.318 75.7987 161.251C75.6982 161.218 76.0166 160.631 73.7877 160.849C59.0905 153.794 76.4691 148.012 76.2009 147.007C76.1506 146.822 72.1454 147.509 73.9888 145.197C74.5921 144.442 83.8428 142.381 85.8203 142.783V142.767Z" fill="#471C13"/>
<path d="M79.4017 162.022C80.7088 163.463 82.2338 164.519 83.8091 165.625C84.6973 166.262 84.7811 166.983 85.6191 167.636C91.4175 163.112 88.2166 163.279 93.8475 162.827C92.1046 168.189 89.3394 172.899 82.8204 170.854C82.2506 170.67 76.6868 162.508 75.7986 161.235C75.9829 161.302 76.1673 160.129 79.4017 162.039V162.022Z" fill="#174A54"/>
<path d="M81.4128 176.451C72.8157 172.848 73.486 177.457 73.3855 171.642C75.782 172.748 89.3396 175.546 90.0267 176.049C90.144 176.133 90.1272 178.027 90.0267 178.06C89.6077 178.178 84.245 176.602 81.4128 176.451Z" fill="#346A70"/>
<path d="M55.7388 174.843C56.3421 175.195 56.2416 176.585 56.5432 177.256C59.4592 183.641 58.018 183.49 56.5432 187.277C55.0517 187.579 55.655 186.791 54.9344 186.071L53.7278 175.647C53.8283 175.647 53.7445 174.558 55.7388 174.843Z" fill="#874F17"/>
<path d="M85.8202 386.169C86.2224 386.202 91.1494 388.951 93.2442 388.967C93.6967 388.967 98.9421 387.057 100.467 387.359C102.361 387.727 100.953 390.593 110.69 391.364V391.766C108.696 391.531 106.098 392.068 104.07 391.364C101.003 390.291 103.081 386.035 92.4398 390.157L83.8259 387.744C84.1443 386.705 84.7476 386.051 85.8369 386.135L85.8202 386.169Z" fill="#2E4F61"/>
<path d="M99.0426 380.555C98.7912 380.471 98.6404 381.577 94.2329 379.348L101.255 374.538L99.0426 380.555Z" fill="#0E0C0E"/>
<path d="M75.3966 38.5113C73.3018 45.818 84.6305 48.0302 83.4239 39.3157C84.6473 39.7011 85.5355 40.4218 86.6248 40.9245C85.3679 45.2147 85.8036 49.9574 83.4239 53.7616C80.8934 54.2309 78.3461 54.5325 75.7988 54.9682C76.5697 53.46 76.9719 53.2924 76.6032 51.7673C75.8658 48.7005 75.0111 51.5495 72.1957 51.7673C72.5979 50.4937 68.4921 51.3149 67.7882 48.7676C67.453 47.5442 68.6597 42.3322 68.1904 39.3492C71.0561 39.4498 72.6147 39.2822 75.4133 38.5448L75.3966 38.5113Z" fill="#C46F49"/>
<path d="M75.7987 61.7722C74.944 62.2582 73.9888 62.8113 73 62.9789C69.4472 63.5654 67.3356 62.2582 64.5872 60.1802C64.7213 59.3758 63.7828 59.0909 64.3861 58.5713C73.972 60.4986 77.6421 55.4542 75.8154 61.7722H75.7987Z" fill="#FCFCFA"/>
<path d="M83.407 53.7449C83.0551 54.3147 83.9768 54.6666 81.396 56.1581C78.0611 58.0686 71.5085 58.4205 67.7546 58.1691L66.9502 55.7559C68.2238 56.6609 69.2629 55.8062 70.5533 55.7559C72.9832 55.6553 73.6201 55.3202 75.7652 54.9515C78.2957 54.5158 80.8597 54.2141 83.3903 53.7449H83.407Z" fill="#A6502C"/>
<path d="M67.7713 58.1524C71.5252 58.4205 78.0777 58.0518 81.4127 56.1413C79.7033 58.3367 78.3124 60.331 75.7986 61.7555C77.6253 55.4375 73.9551 60.4818 64.3693 58.5546C63.766 59.0741 64.7045 59.359 64.5704 60.1634C64.4531 60.8505 62.6264 60.1969 65.777 62.5766C65.3413 65.2748 63.4141 61.2527 58.9563 56.1581C61.9896 57.1133 64.5536 57.9345 67.7713 58.1691V58.1524Z" fill="#27120C"/>
<path d="M72.9832 62.9621L73.3854 64.5709C70.1846 64.6212 68.4752 64.6044 65.7603 62.5599C62.6097 60.1802 64.4364 60.8505 64.5537 60.1467C67.3189 62.2247 69.4137 63.5319 72.9665 62.9453L72.9832 62.9621Z" fill="#B54547"/>
<path d="M93.0263 360.913C94.9703 362.707 95.3725 365.522 97.836 366.125C97.35 367.231 95.3725 367.516 94.2329 367.734C92.1716 368.12 90.1941 367.935 88.2166 368.539L84.6135 363.729C84.8984 360.193 88.8367 361.617 93.0263 360.93V360.913Z" fill="#783E11"/>
<path d="M32.4779 93.446C32.6958 99.8143 33.7683 106.149 34.0867 112.501C33.7348 113.355 32.8633 113.908 32.4779 114.713C31.7405 116.238 27.333 122.841 27.266 123.327C26.9811 125.421 28.9921 125.874 27.6682 128.74C20.8643 129.427 15.4178 126.125 16.44 131.153C14.4458 129.997 12.6861 128.924 10.8259 127.55C13.8927 123.494 15.7697 117.344 18.451 112.517C21.6184 106.769 26.0259 101.641 28.8748 95.6749L29.8803 94.2672C30.8523 93.8482 32.26 93.5968 32.4947 93.4628L32.4779 93.446Z" fill="#2A99B1"/>
<path d="M47.7282 95.8592C47.0746 95.9095 46.3708 95.7754 45.7172 95.8592C42.5666 96.295 39.1981 97.1329 36.0978 97.8703C35.9805 95.3565 38.8127 93.6639 37.7066 91.0495C38.9635 90.2786 46.9238 85.0499 47.326 84.631C48.3147 87.7313 47.5438 94.0661 47.7282 95.8592Z" fill="#2A99B1"/>
<path d="M33.6845 93.0438C34.4721 94.5856 33.9526 96.5631 34.0867 98.2557C34.0867 98.3898 34.3381 99.2612 34.4889 101.054C34.8073 104.775 35.0252 108.613 35.6955 112.283C35.0419 112.568 33.4163 115.333 32.8968 116.288L32.4946 114.679C32.8801 113.875 33.7348 113.322 34.1034 112.467C33.785 106.116 32.7292 99.7975 32.4946 93.4125C33.3326 92.9265 33.651 93.0438 33.7012 93.0103L33.6845 93.0438Z" fill="#043A47"/>
<path d="M36.0978 97.8535C35.7459 97.9373 35.3604 98.4736 34.0868 98.2557C33.9527 96.5631 34.4722 94.5856 33.6846 93.0438C36.1816 91.569 37.5055 91.1501 37.6898 91.0328C38.7959 93.6304 35.9805 95.3397 36.081 97.8535H36.0978Z" fill="#60ABB2"/>
<path d="M64.956 377.756C65.9783 380.303 66.5146 382.448 67.3692 384.979C64.9728 385.716 62.4758 386.487 60.1463 387.392C60.2301 385.616 58.3699 387.224 57.3477 386.99C59.2749 385.683 59.6436 384.727 60.1463 382.582C60.7161 380.152 59.6603 377.002 62.1573 376.164C63.0288 377.169 63.2634 379.029 64.956 377.773V377.756Z" fill="#016279"/>
<path d="M60.1463 382.566C59.7608 383.202 57.666 382.901 56.9454 382.968C56.4762 382.7 56.1745 382.599 56.141 382.566C53.8283 380.923 53.3591 378.912 51.9346 377.756C51.5659 377.454 40.5221 372.527 49.1359 373.348C50.9123 373.516 61.6378 380.085 60.163 382.566H60.1463Z" fill="#833D1C"/>
<path d="M57.7497 369.326C60.1796 371.052 60.6154 374.823 60.9505 375.343C58.1686 378.627 57.9005 374.304 54.7331 371.74C50.6273 368.405 52.0853 371.823 57.7329 369.326H57.7497Z" fill="#A6502C"/>
<path d="M56.1409 382.566C56.1409 382.566 56.4761 382.7 56.9453 382.968C58.4368 383.822 61.9896 383.487 56.1409 386.169C55.7554 385.683 55.856 385.297 55.7387 384.962C55.0516 382.901 54.4148 382.331 56.1409 382.549V382.566Z" fill="#091A1B"/>
<path d="M46.9239 369.326C47.4769 370.784 45.9854 369.812 45.7173 369.728L46.9239 369.326Z" fill="#CAB6B0"/>
<path d="M60.9507 87.4297C62.3417 89.139 63.984 91.8707 66.1626 92.6416C66.6319 93.3287 67.0006 93.8482 67.7714 94.2504V95.0548C56.7444 90.1446 60.0123 86.3236 50.7281 96.2615L50.1248 95.8593L58.9397 86.2398C59.0068 86.3404 60.0123 86.3068 60.9507 87.4464V87.4297Z" fill="#E4EBE1"/>
<path d="M34.489 149.587C33.165 147.593 32.3606 145.029 31.6903 142.767C31.64 142.616 32.1595 142.314 31.2881 139.566C31.2546 139.465 31.9082 138.292 31.087 137.555C29.8301 136.449 24.4674 135.929 30.8859 136.147C30.8859 134.069 30.8859 132.008 30.8859 129.929C30.8859 129.795 30.8859 129.661 30.8859 129.527C30.8859 126.561 30.3664 124.097 30.8859 121.114C31.154 121.114 31.573 120.997 31.6903 121.316C32.9639 124.935 34.3046 144.074 34.489 149.587Z" fill="#4B838F"/>
<path d="M99.445 158C99.445 158.721 100.316 159.425 99.0428 161.603C96.0095 162.542 93.4622 160.212 89.4234 159.19C90.3619 158.084 88.3844 155.905 88.2168 154.783C88.2001 154.648 90.1105 154.984 88.4179 152.771C87.3119 153.257 74.9106 155.956 74.9776 154.179C94.9035 147.694 93.1271 145.515 73.9721 151.565L73.771 150.962C78.1617 147.275 83.8261 146.286 89.0045 144.342C89.4569 144.711 90.0938 153.894 91.0155 154.967C91.5015 155.537 98.0038 157.363 99.4283 157.967L99.445 158Z" fill="#833D1C"/>
<path d="M97.0485 144.778C97.1491 145.867 97.434 145.532 97.4507 145.582C97.6015 145.951 100.216 149.269 101.054 149.185C100.735 149.638 99.4785 150.878 99.445 150.995C99.2774 151.565 99.5288 153.207 99.445 154.397C99.3612 155.57 99.445 156.81 99.445 158C98.0037 157.397 91.5014 155.553 91.0322 155C90.1272 153.928 89.4737 144.744 89.0212 144.375C87.8481 143.403 85.8203 144.794 85.8203 142.767L86.2225 142.364C90.077 142.884 93.5292 142.8 97.0485 144.778Z" fill="#A6502C"/>
<path d="M47.7281 95.8592C47.7784 96.3452 48.4487 100.451 48.5325 100.669C48.6833 101.054 48.8844 101.423 49.3369 101.473V101.876C48.7336 101.876 46.1025 101.021 45.9349 101.071C45.2311 101.256 38.7958 112.836 38.5109 113.506C37.74 107.49 41.628 103.484 42.5162 98.2725C44.0747 97.7027 48.4822 96.5966 45.7171 95.8592C46.3539 95.7755 47.0745 95.9095 47.7281 95.8592Z" fill="#B1C0B3"/>
<path d="M67.7714 95.8592C67.7043 95.9766 67.9557 96.3788 67.5703 96.6637C66.8329 97.2167 52.0352 99.4288 49.7225 101.473H49.3203C48.8678 101.423 48.6667 101.054 48.5159 100.669C52.9066 92.7924 59.1575 95.7084 67.7714 95.8592Z" fill="#357884"/>
<path d="M27.6682 128.74C26.8302 130.55 25.456 130.985 24.2662 132.343L30.8858 129.544C30.8858 129.678 30.8858 129.812 30.8858 129.946C28.6569 129.98 24.8695 135.024 23.864 135.158C22.406 135.359 17.9147 132.008 16.44 131.153C15.4177 126.125 20.8642 129.427 27.6682 128.74Z" fill="#346A70"/>
<path d="M111.88 129.527C113.371 131.304 115.818 133.214 117.091 135.544C114.695 137.421 111.896 138.812 109.869 141.158V141.56C108.193 140.018 107.02 137.99 105.461 136.348C105.662 135.125 103.936 131.806 107.07 128.723L111.88 129.527Z" fill="#395753"/>
<path d="M121.499 137.152C121.264 137.538 120.98 138.007 120.695 138.359C120.091 139.08 115.851 142.465 115.885 142.968C117.427 144.124 116.974 144.794 117.092 145.18C114.628 142.716 115.55 146.822 109.869 141.577V141.175C111.561 141.577 121.901 134.253 122.706 135.761C122.22 136.18 121.851 136.616 121.499 137.169V137.152Z" fill="#111311"/>
<path d="M53.7276 175.647L54.9343 186.071C51.7501 182.92 52.2529 179.753 50.929 177.842C49.6553 176.016 47.2589 176.988 48.3147 174.843C49.1526 175.094 53.4595 175.664 53.7276 175.647Z" fill="#357884"/>
<path d="M54.5322 390.174C54.5992 397.229 39.2149 396.693 36.8855 392.587C42.9018 392.453 48.8008 392.353 54.5322 390.174Z" fill="#D4E8F2"/>
<path d="M67.3691 384.962C67.7211 386.001 68.14 387.057 68.1735 388.163C64.051 389.906 59.4088 391.414 54.9343 390.174C56.1577 388.682 58.4369 388.029 60.1462 387.375C62.4756 386.47 64.9727 385.716 67.3691 384.962Z" fill="#D4E8F2"/>
<path d="M57.3475 386.973C56.9285 386.872 56.4258 386.537 56.1409 386.169C61.9896 383.487 58.4368 383.822 56.9453 382.968C57.6826 382.901 59.7775 383.202 60.1461 382.566C59.6434 384.711 59.258 385.666 57.3475 386.973Z" fill="#27120C"/>
<path d="M87.4123 39.3157C87.4123 39.3157 87.3788 39.7849 87.4123 40.1201C83.1724 38.3772 82.435 37.5728 76.9885 37.3214V36.1148C88.6189 38.9805 82.3512 33.3664 73.7876 35.3104C73.1173 34.9752 72.447 34.64 71.7766 34.3049L72.1788 20.0768C75.8824 20.1438 79.4688 20.898 83.2059 20.0768C86.6414 21.8365 84.2617 26.5959 87.8145 28.3053C88.5686 31.2548 86.3733 37.8409 87.4123 39.3325V39.3157Z" fill="#C46F49"/>
<path d="M79.2006 27.6852C84.5633 27.0149 86.5744 34.1876 85.6191 34.9082C81.5803 30.7018 78.9325 31.8414 74.3909 34.506C72.6145 34.0535 75.8824 28.1042 79.2006 27.6852Z" fill="#0E0C0E"/>
<path d="M76.9885 36.098C76.1003 35.8802 74.5752 35.6958 73.7876 35.2936C82.3679 33.3496 88.6356 38.9638 76.9885 36.098Z" fill="#601E0C"/>
<path d="M83.407 39.3157C84.6304 48.0302 73.2849 45.818 75.3797 38.5113L76.5863 39.1146C75.3797 41.444 78.0275 44.8628 80.3905 43.321C84.2449 40.824 76.7539 37.2209 83.3902 39.3157H83.407Z" fill="#FCFCFA"/>
<path d="M64.1682 38.9135C64.5369 43.2875 63.213 44.7958 58.9563 44.1254C56.4593 43.1869 54.9343 40.2709 57.1464 38.5113C58.219 45.2482 63.4811 44.8796 62.3583 38.1091C62.8275 38.0253 64.0677 38.8967 64.1682 38.9135Z" fill="#FCFCFA"/>
<path d="M72.1789 20.0601L71.7767 34.2881C72.447 34.6233 73.1174 34.9585 73.7877 35.2936C74.5921 35.6958 76.1004 35.8802 76.9886 36.098V37.3047C74.5921 37.1874 72.1956 37.6566 69.7657 37.7069C67.8384 37.7404 66.1123 37.4555 66.1626 38.1091C61.9562 37.5896 57.9844 37.1371 53.7278 37.1036C60.2971 24.3 65.6096 37.8242 66.1626 32.8971C66.6318 28.674 65.3414 24.3167 65.7604 20.0601C67.872 19.9763 70.0506 20.0265 72.1789 20.0601Z" fill="#B65F3D"/>
<path d="M69.7825 37.7069C72.799 39.2487 67.738 38.3102 66.1794 38.1091C66.1459 37.4555 67.872 37.7404 69.7825 37.7069Z" fill="#5C747D"/>
<path d="M58.3532 34.1038C61.2021 33.2826 63.6154 34.992 65.375 37.1036C59.8279 36.5002 53.644 35.4612 58.3532 34.1038Z" fill="#471C13"/>
<path d="M72.1789 51.7338C74.9943 51.516 75.849 48.667 76.5863 51.7338C75.2289 53.946 72.7319 54.5493 70.57 55.7391C69.2796 55.7894 68.2406 56.6441 66.967 55.7391C64.1851 55.9067 62.8444 53.9962 62.1573 53.7281C60.7831 44.7622 62.6768 52.4712 72.1789 51.7171V51.7338Z" fill="#27120C"/>
<path d="M49.3201 101.859L50.9289 117.897C47.9292 117.897 44.9126 117.997 41.9129 117.897C41.4939 118.081 40.6727 125.824 40.5052 127.114C39.5164 125.438 37.2875 118.282 37.3043 117.092C37.3043 116.037 38.0752 114.495 38.5109 113.489C38.7958 112.819 45.2311 101.256 45.9349 101.054C46.1025 101.004 48.7336 101.859 49.3369 101.859H49.3201Z" fill="#FAF2D7"/>
<path d="M37.2877 117.109C37.2877 118.299 39.5166 125.455 40.4886 127.131C40.0026 131.052 39.835 136.348 39.6842 140.37L38.4776 144.375C38.1759 140.337 38.0586 136.398 37.6732 132.343C37.1872 127.215 34.908 121.182 36.4665 116.305C36.4665 116.355 37.0866 117.059 37.2709 117.109H37.2877Z" fill="#60ABB2"/>
<path d="M56.1409 151.984H44.7116C46.0523 157.598 49.4208 156.794 45.1139 162.408L38.092 149.369L38.4942 148.364C39.0976 148.129 39.9187 147.71 40.5053 147.56C44.3262 146.554 48.4153 145.967 52.3368 146.755C71.2739 120.226 71.6258 121.483 52.9401 147.358C53.225 149.018 55.7723 150.995 56.1409 151.967V151.984Z" fill="#A6502C"/>
<path d="M49.9235 147.174C54.1969 147.141 45.382 149.554 44.3094 149.587C39.4327 149.738 42.8347 147.241 49.9235 147.174Z" fill="#833D1C"/>
<path d="M35.6955 112.299C35.8966 113.355 36.2653 115.484 36.4999 116.305C34.9414 121.182 37.2205 127.215 37.7065 132.343C36.9189 132.829 37.9244 133.868 35.6955 133.549C35.2263 128.22 34.8911 122.355 32.4946 117.511C32.8298 116.74 32.8633 116.372 32.8968 116.305C33.4163 115.35 35.0587 112.584 35.6955 112.299Z" fill="#174A54"/>
<path d="M32.8801 116.305C32.8801 116.305 32.8131 116.74 32.4779 117.511C31.8579 118.902 31.1708 119.439 30.8691 121.114C30.3496 124.114 30.8691 126.561 30.8691 129.527L24.2495 132.326C25.4394 130.969 26.8303 130.516 27.6515 128.723C28.9754 125.857 26.9644 125.405 27.2493 123.31C27.3163 122.807 31.7238 116.221 32.4612 114.696L32.8634 116.305H32.8801Z" fill="#091A1B"/>
<path d="M89.0212 100.669C85.0159 97.7362 74.9441 97.753 71.3745 95.8592C73.9553 94.8537 81.9826 93.5466 84.0104 94.2504C84.3959 94.3845 88.6525 99.3283 89.0212 100.669Z" fill="#7D948B"/>
<path d="M88.2167 107.473C78.7816 108.981 81.9658 104.909 88.6189 103.065C88.4178 104.507 88.7194 106.048 88.2167 107.473Z" fill="#8AC483"/>
<path d="M91.8366 103.468L89.8256 107.071C89.2055 107.238 88.9877 107.356 88.2168 107.473C88.7196 106.032 88.4179 104.49 88.619 103.065C88.619 102.982 89.3899 101.842 89.4234 101.457H89.8256C93.4957 102.194 91.4512 102.982 91.8366 103.468Z" fill="#F3BB29"/>
<path d="M108.679 101.071C107.489 103.753 96.8641 142.532 97.0484 144.778C93.5291 142.817 90.0769 142.901 86.2224 142.364C87.5631 134.678 88.8982 126.991 90.2277 119.305C89.8087 118.232 71.1062 118.768 68.5757 118.701C68.5087 111.484 68.4416 104.266 68.3746 97.0491L64.9726 118.299C60.5819 118.198 56.1409 118.349 51.7334 118.299L49.7224 101.457C52.0351 99.4121 66.8161 97.1999 67.5702 96.6469C67.9557 96.362 67.6875 95.9598 67.7713 95.8425C67.8216 95.7587 67.7378 95.3565 67.7713 95.0381V94.2337C69.9667 95.3732 69.3969 94.2001 71.7766 93.4292C71.8269 93.5466 71.6928 93.865 72.1788 93.8315C71.8771 94.0158 70.1845 95.1051 70.1678 95.2392C70.0337 96.2279 71.056 95.6749 71.3744 95.8425C74.9439 97.7362 85.0158 97.7195 89.0211 100.652C89.1049 100.954 88.82 101.473 89.4233 101.457C89.3898 101.842 88.6356 102.965 88.6189 103.065C81.9658 104.926 78.7984 108.981 88.2167 107.473C88.9876 107.356 89.2054 107.255 89.8255 107.071C94.6687 105.697 94.5011 106.819 91.8365 103.468C91.4511 102.982 93.4956 102.211 89.8255 101.457L90.2277 99.0434C91.317 99.5964 103.802 102.345 96.244 97.8368L97.2495 85.4019L108.679 101.038V101.071Z" fill="#FAF2D7"/>
<path d="M107.472 106.685C105.88 111.847 104.841 117.109 103.467 122.321C101.422 130.064 99.0595 137.722 97.4507 145.582C97.4339 145.549 97.149 145.867 97.0485 144.778C96.8474 142.532 107.489 103.736 108.679 101.071C108.763 100.87 108.964 100.518 109.081 100.267H109.483C108.662 102.244 108.109 104.607 107.472 106.685Z" fill="#525043"/>
<path d="M68.5757 118.701C65.5592 118.634 65.1402 118.299 64.9727 118.299L68.3746 97.0491C68.4417 104.266 68.5087 111.484 68.5757 118.701Z" fill="#F5CC1C"/>
<path d="M51.7335 118.299C50.6778 118.299 50.9794 117.897 50.9291 117.897L49.3203 101.859V101.457H49.7225L51.7335 118.299Z" fill="#6E664B"/>
<path d="M90.429 107.875C95.842 108.043 88.8537 114.528 88.0157 114.696C83.6083 115.601 80.7426 107.574 90.429 107.875Z" fill="#F3BB29"/>
<path d="M89.8257 107.071L91.8367 103.468C94.5013 106.836 94.6689 105.713 89.8257 107.071Z" fill="#B0D5A8"/>
<path d="M81.2117 110.691C84.8818 114.076 84.4796 118.483 90.0266 113.892C90.9316 114.294 85.0158 120.897 81.2117 110.691Z" fill="#989468"/>
<path d="M88.2168 154.799C88.3844 155.922 90.3619 158.101 89.4234 159.207C85.7198 158.268 82.5021 157.363 78.5974 157.397L88.2168 154.783V154.799Z" fill="#77301E"/>
<path d="M83.8093 165.625C82.234 164.503 80.6923 163.463 79.4019 162.022C82.3178 162.743 89.1888 162.106 83.8093 165.625Z" fill="#B7964C"/>
<path d="M75.7986 54.9515C73.6535 55.3202 73.0167 55.6553 70.5867 55.7559C72.7485 54.566 75.2455 53.946 76.603 51.7506C76.9717 53.2924 76.5695 53.4432 75.7986 54.9515Z" fill="#EDA682"/>
<path d="M42.5162 98.2557C39.9689 99.1942 36.6004 99.6467 34.4889 101.054C34.338 99.2445 34.1034 98.3898 34.0867 98.2557C35.3436 98.4736 35.729 97.9373 36.0977 97.8535C39.198 97.1329 42.5832 96.2782 45.7171 95.8425C48.4655 96.5799 44.0747 97.6692 42.5162 98.2557Z" fill="#90B8B7"/>
<path d="M42.5163 98.2557C41.6281 103.468 37.7234 107.49 38.5111 113.489C38.0753 114.512 37.3212 116.037 37.3044 117.092C37.1201 117.059 36.5168 116.338 36.5 116.288C36.2654 115.467 35.8967 113.338 35.6956 112.283C35.0253 108.613 34.8242 104.775 34.489 101.054C36.6006 99.6467 39.9523 99.1775 42.5163 98.2557Z" fill="#B1C0B3"/>
</g>
<defs>
<linearGradient id="paint0_linear_56_513" x1="81.1299" y1="231.749" x2="49.9627" y2="340.803" gradientUnits="userSpaceOnUse">
<stop stop-color="#1D0E08"/>
<stop offset="1" stop-color="#391B10"/>
</linearGradient>
<clipPath id="clip0_56_513">
<rect width="146" height="401" fill="white"/>
</clipPath>
</defs>
</svg>
