<svg width="103" height="206" viewBox="0 0 103 206" fill="none" xmlns="http://www.w3.org/2000/svg">
<g clip-path="url(#clip0_22_23)">
<path d="M20.8984 58.6933C21.0719 78.6258 21.3682 114.533 21.5792 142.67C21.7548 165.772 21.8537 169.81 22.3372 173.558C23.4171 182.019 26.4679 188.661 31.3773 193.308C32.741 194.578 39.2861 199.609 41.8527 201.328C43.7134 202.582 45.3334 203.45 46.8409 203.979C48.5088 204.574 51.3469 204.684 53.1584 204.217C56.541 203.362 60.9165 200.833 67.0704 196.212C76.8462 188.853 80.8028 183.124 81.9677 174.693C82.0953 173.695 82.2549 172.65 82.2868 172.392C82.3347 172.119 82.4278 167.421 82.5204 161.935C82.597 156.449 82.7355 147.681 82.8282 142.469C83.1205 123.807 82.8426 42.8704 82.4523 34.6821C82.3548 32.7356 82.2084 29.4377 82.1108 27.3625C81.8017 20.5737 81.2696 16.0695 80.3533 12.563C78.36 4.79402 74.0603 0.871492 66.7805 0.152365C65.1289 -0.00743195 64.4555 0.0251939 55.5573 0.883721C50.3467 1.38588 45.2162 1.8719 44.158 1.96912C40.5666 2.26108 38.2743 2.93827 36.1266 4.32323C32.0718 6.9321 29.894 11.1968 29.177 17.9862C28.9858 19.8364 29.0276 34.5565 29.4024 92.1499C29.5991 122.925 29.6972 125.837 30.7271 131.403C31.6765 136.582 33.2176 139.332 38.7213 145.635C41.6256 148.963 43.1978 150.281 45.9245 151.711C48.6191 153.125 50.9443 153.558 53.4613 153.122C55.2569 152.815 56.908 152.187 60.2259 150.56C62.1974 149.593 63.2071 148.965 65.1142 147.532C71.4284 142.766 73.7668 138.952 74.5799 132.017C75.0264 128.301 75.0692 120.257 74.8944 74.1017C74.7168 23.6994 74.8317 27.8177 73.6607 26.9337C72.8105 26.2747 71.5117 26.2272 70.6142 26.8231C69.9731 27.2418 69.7008 27.6442 69.4448 28.497C69.3808 28.7222 69.4107 49.6039 69.5076 74.9097C69.683 122.03 69.6393 128.642 69.1126 132.262C68.5539 136.059 67.481 138.184 64.8692 140.679C62.6739 142.804 60.3982 144.382 57.5772 145.783C52.7205 148.2 51.4379 148.378 48.599 146.964C46.53 145.952 45.2145 144.81 42.5829 141.771C38.5233 137.109 37.6084 135.742 36.7408 133.056C35.568 129.453 35.2289 125.866 35.0294 115.151C34.9462 110.55 34.7889 90.8594 34.6798 71.3934C34.3724 18.7228 34.3728 19.3019 34.6123 17.7413C35.6978 10.5172 38.2615 7.87718 44.6586 7.35814C46.1818 7.24452 54.3104 6.48303 60.451 5.88374C65.0684 5.44631 66.4473 5.4454 68.2434 5.89467C72.7336 7.05001 74.9005 10.5074 75.9317 18.1966C76.4473 22.0412 76.593 24.1647 77.0005 34.2031C77.6199 49.5181 77.7697 130.567 77.2239 153.814C77.1461 157.402 77.0691 162.276 77.0707 164.674C77.0765 173.441 76.3898 177.528 74.2758 181.246C73.2988 182.952 72.4818 183.998 70.511 186.058C67.7391 188.94 64.3417 191.693 59.5337 194.93C54.5334 198.295 51.7282 199.456 49.4993 199.039C48.4249 198.83 46.42 197.883 44.9442 196.87C42.3937 195.134 36.2015 190.36 35.0143 189.235C31.0995 185.505 28.5946 179.892 27.7081 172.911C27.2085 169.018 27.2424 171.785 26.6847 104.378C26.5971 93.1331 26.4231 72.3641 26.3175 58.2071C26.2116 43.5996 26.0598 32.2097 25.9794 31.8719C25.8026 31.1642 25.1767 30.3763 24.5352 30.055C23.3483 29.4283 21.6491 30.0569 21.0406 31.3121C20.6564 32.1168 20.6561 31.7467 20.8984 58.6933Z" fill="#31A664"/>
</g>
<defs>
<clipPath id="clip0_22_23">
<rect width="205.921" height="102.616" fill="white" transform="translate(0.135742 205.989) rotate(-90.0379)"/>
</clipPath>
</defs>
</svg>
